<?xml version="1.0" encoding="UTF-8" standalone="no"?>
<svg
   xmlns:dc="http://purl.org/dc/elements/1.1/"
   xmlns:cc="http://creativecommons.org/ns#"
   xmlns:rdf="http://www.w3.org/1999/02/22-rdf-syntax-ns#"
   xmlns:svg="http://www.w3.org/2000/svg"
   xmlns="http://www.w3.org/2000/svg"
   viewBox="0 0 4000 2666.6667"
   height="2666.6667"
   width="4000"
   xml:space="preserve"
   id="svg2"
   version="1.1"><metadata
     id="metadata8"><rdf:RDF><cc:Work
         rdf:about=""><dc:format>image/svg+xml</dc:format><dc:type
           rdf:resource="http://purl.org/dc/dcmitype/StillImage" /></cc:Work></rdf:RDF></metadata><defs
     id="defs6" /><g
     transform="matrix(1.3333333,0,0,-1.3333333,0,2666.6667)"
     id="g10"><g
       transform="scale(0.1)"
       id="g12"><g
         transform="scale(1.84049)"
         id="g14"><path
           id="path16"
           style="fill:#ffffff;fill-opacity:1;fill-rule:nonzero;stroke:none"
           d="M 16300,0 H 0 V 10866.7 H 16300 V 0" /></g><g
         transform="scale(1.71858)"
         id="g18"><path
           id="path20"
           style="fill:#ebf3fa;fill-opacity:1;fill-rule:nonzero;stroke:none"
           d="m 14973.3,925.941 c -862.3,0 -12520.08,25.137 -12520.08,26.532 -4.81,11.349 -1479.908,1819.237 377.54,3709.467 920.34,936.59 -845.16,2150.01 0,3191.83 939.97,1158.68 1873.5,1141.39 2739.34,1124.1 467.69,-9.34 915.67,-18.69 1334.22,157.35 210.87,88.59 422.44,231.19 634.24,450.03 119.23,123.04 249.86,230.66 389.75,323.58 21.47,14.3 43.11,28.26 64.99,41.83 83.79,51.94 170.61,98.94 260.04,141.14 60.11,28.3 121.32,54.5 183.7,78.6 h 0.06 c 98.92,38.3 200.57,71.3 304.38,99.1 147.39,39.7 299.2,69.1 453.98,89.1 67.5,8.8 135.58,15.6 204.12,20.8 1333.42,100.2 2834.02,-463.59 3608.42,-1287.68 155.9,-165.95 864.8,-1024.6 306,-2204.79 -352.9,-745.15 1125.3,-1456.8 1650.6,-2307.68 1335.4,-2163.36 20.8,-3625.088 8.7,-3653.309" /></g><g
         transform="scale(1.27183)"
         id="g22"><path
           id="path24"
           style="fill:#dbe8fe;fill-opacity:1;fill-rule:nonzero;stroke:none"
           d="m 15095.4,6817 -514.5,771.09 -308.7,1152.84 -2.4,9.15 v 0.01 h -464.1 l -837.1,1254.81 c 78.4,-13.86 184.6,-81.12 320,-172.46 49.5,-33.46 87,-47.28 116.6,-47.28 110.2,0.02 110.4,191.85 217.1,274.44 25.2,19.5 57.8,27.1 94.3,27.1 62.6,0 136.7,-22.2 204.7,-44.4 68,-22.3 129.8,-44.47 167.9,-44.47 21,0 34.6,6.77 38.1,24.07 19.6,98.3 -123.7,150.4 -247.9,187.4 -124.3,37 -171.2,86.6 -57.2,288.3 113.7,201.7 -20.2,145 -103,385.9 -37.5,109.4 -108.5,164.1 -174.7,190.9 -57.1,-11.7 -113.9,-25.6 -169.8,-41.6 -117.3,-33.6 -231.6,-76.4 -341.8,-128 -167.2,-78.2 -324.9,-176.4 -469.3,-292.8 v 0 c 144.4,116.4 302.1,214.6 469.3,292.8 110.2,51.6 224.5,94.4 341.8,128 55.9,16 112.7,29.9 169.8,41.6 150,30.9 303.9,46.9 459.4,46.9 259.6,0 523.7,-44.6 782,-138.4 54.7,-20 108.3,-41.7 160.5,-65.3 73.7,-33.1 144.9,-69.8 213.4,-109.8 288.4,-168.2 529.8,-393.9 714.9,-656.7 h 0.1 c 115.3,-163.62 208.7,-341.49 277.9,-528.9 36.3,-98.42 65.9,-199.4 88.4,-302.28 14.1,-64.06 25.5,-128.74 34.1,-194.09 20.6,-157.02 24.8,-317.2 11.8,-478.19 v 0 c -15.5,15.38 -33.5,26.67 -53.8,33.44 0,0 36,59.85 -251,139.86 -287,80.01 -164.5,400.17 -424.7,470.43 -49.9,13.49 -91.2,18.69 -126.9,18.69 -59.7,0 -103.4,-14.61 -145.3,-29.21 -41.7,-14.61 -81.5,-29.21 -133.3,-29.21 -26.4,0 -55.9,3.79 -90.3,13.32 -57.7,15.95 -114.2,24.64 -165.3,24.64 -134.4,0 -229.3,-60.59 -199.3,-208.18 41.5,-203.51 -195.6,-153.76 -149.8,-395.34 46,-241.57 320.3,-256.19 545.7,-271.29 225.5,-15.1 -125.4,-294.79 24.5,-501.21 149.8,-206.45 447,-241.51 287,-347.42 -160.1,-105.99 -464.1,-323.63 -234.7,-528.61 48.8,-43.64 106.7,-65.18 170.4,-67.15 -78.4,-56.29 -160.2,-107.56 -244.8,-153.4 m 712.5,2601.99 c 101.4,0 152,-73.73 206.4,-147.44 54.4,-73.72 112.6,-147.42 229.2,-147.42 10.1,0 20.6,0.55 31.7,1.7 -8.6,65.35 -20,130.03 -34.1,194.09 -22.5,102.88 -52.1,203.86 -88.4,302.28 -69.2,187.41 -162.6,365.28 -277.9,528.9 h -0.1 c -14.4,3.9 -28.7,5.7 -42.8,5.7 -0.8,0 -1.5,0 -2.3,0 0,0 -92.9,51.2 -185.7,51.2 -48.7,0 -97.3,-14.1 -132.5,-57.1 -102.2,-124.9 -320.2,11 -399.5,-162.65 -79.4,-173.8 311,-80.73 426.9,-252.45 109.3,-162.15 26.3,-319.39 213.2,-319.38 11.2,0 23.2,0.55 36.4,1.7 6.7,0.58 13.2,0.87 19.5,0.87 m -1683.7,1435.71 c -91.4,0 -140.1,-86.1 -88.7,-215.9 57.4,-144.8 67.3,-370.7 164.5,-370.7 15.6,0 33.4,5.8 53.9,18.6 131.1,81.6 159.5,172.9 248.8,172.9 12.3,0 25.8,-1.7 41,-5.5 0,0 185.6,131.3 11.1,253.4 -174.5,122 -195.5,52.9 -340,123.6 -32.9,16.1 -63.7,23.6 -90.6,23.6" /></g><g
         transform="scale(1.10383)"
         id="g26"><path
           id="path28"
           style="fill:#bacdfe;fill-opacity:1;fill-rule:nonzero;stroke:none"
           d="m 15445.4,11274.4 c -34,0 -77.2,16 -134.3,54.5 -156,105.3 -278.4,182.7 -368.7,198.8 l -466.7,699.4 c 166.4,134.2 348.2,247.3 540.8,337.4 126.9,59.4 258.6,108.8 393.8,147.5 64.4,18.4 129.8,34.4 195.6,47.9 76.3,-30.9 158.1,-93.9 201.4,-220 95.3,-277.5 249.6,-212.2 118.5,-444.6 -131.2,-232.4 -77.2,-289.5 66,-332.1 143.1,-42.7 308.2,-102.7 285.6,-216 -3.9,-19.9 -19.7,-27.7 -43.9,-27.7 -43.8,0 -115,25.5 -193.4,51.2 -78.4,25.5 -163.8,51.1 -235.9,51.1 -42.1,0 -79.6,-8.7 -108.6,-31.1 -123,-95.2 -123.2,-316.2 -250.2,-316.3" /></g><g
         transform="scale(1.27082)"
         id="g30"><path
           id="path32"
           style="fill:#bacdfe;fill-opacity:1;fill-rule:nonzero;stroke:none"
           d="m 15352.4,6975.96 v 0 c -63.7,1.96 -121.7,23.53 -170.5,67.2 -229.6,205.14 74.7,422.95 234.9,529.03 160.1,105.99 -137.3,141.08 -287.3,347.69 -150,206.59 201.2,486.5 -24.5,501.61 -225.6,15.12 -500.1,29.75 -546.1,271.51 -45.9,241.78 191.5,191.98 149.9,395.65 -30,147.71 64.9,208.35 199.5,208.35 51.1,0 107.7,-8.7 165.4,-24.66 34.5,-9.53 64,-13.33 90.3,-13.33 51.9,0 91.7,14.61 133.5,29.23 41.9,14.61 85.7,29.23 145.4,29.23 35.7,0 77.1,-5.2 127,-18.7 260.4,-70.31 137.8,-390.73 425,-470.8 287.2,-80.07 251.2,-139.97 251.2,-139.97 20.3,-6.78 38.3,-18.08 53.9,-33.47 v 0 c -16.1,-200.45 -59.2,-402.21 -131.3,-600.37 -48,-132.38 -107.1,-257.79 -175.8,-375.35 -164.9,-282.18 -384.7,-519.43 -640.5,-702.85" /></g><g
         transform="scale(1.2699)"
         id="g34"><path
           id="path36"
           style="fill:#bacdfe;fill-opacity:1;fill-rule:nonzero;stroke:none"
           d="m 16268.3,9138.06 c -116.8,0 -175.1,73.81 -229.6,147.65 -54.4,73.82 -105.1,147.66 -206.7,147.66 -6.3,0 -12.8,-0.29 -19.5,-0.87 -13.2,-1.15 -25.2,-1.7 -36.4,-1.7 -187.3,-0.01 -104.1,157.47 -213.6,319.87 -116,171.97 -507,78.76 -427.6,252.83 79.5,173.9 297.9,37.8 400.2,162.9 35.2,43.1 83.9,57.2 132.6,57.2 93,0 186,-51.3 186,-51.3 0.8,0 1.6,0 2.4,0 14.1,0 28.4,-1.8 42.8,-5.7 h 0.1 c 115.5,-163.9 209.1,-342.01 278.3,-529.71 36.4,-98.57 66.1,-199.7 88.6,-302.75 14.1,-64.15 25.5,-128.93 34.1,-194.38 -11,-1.15 -21.6,-1.7 -31.7,-1.7" /></g><g
         transform="scale(1.14928)"
         id="g38"><path
           id="path40"
           style="fill:#bacdfe;fill-opacity:1;fill-rule:nonzero;stroke:none"
           d="m 15714.3,11363.1 c -107.6,0 -118.6,249.9 -182.1,410.3 -56.8,143.5 -2.9,238.8 98.2,238.8 29.8,0 63.8,-8.3 100.3,-26.1 159.8,-78.2 183.1,-1.7 376.2,-136.8 193.1,-135 -12.2,-280.4 -12.2,-280.4 -16.8,4.2 -31.8,6.1 -45.5,6.1 -98.7,0 -130.1,-101.1 -275.3,-191.4 -22.7,-14.1 -42.3,-20.5 -59.6,-20.5" /></g><path
         id="path42"
         style="fill:#a8d29f;fill-opacity:1;fill-rule:nonzero;stroke:none"
         d="m 4877.74,1628.6 h 1015.97 c 54.44,46.2 -37.67,151.1 -133.92,158.1 -41.81,3.2 -94.67,-5.6 -155.07,-18.3 -13.98,185.7 -93.82,1020.4 -394.72,986.9 -338.33,-37.6 0,-367.6 95.64,-563 70.85,-144.8 145.59,-352.3 179.74,-450.3 -27.46,-6 -55.9,-11.8 -84.95,-17.1 -44.84,137.6 -211.7,600.8 -423.89,573.8 -249.13,-31.6 -148.99,-217.3 27.59,-327.5 129.55,-81.1 288.63,-196.3 364.22,-251.9 -64.05,-10.5 -130.89,-17.5 -198.7,-16 -174.02,4.2 -258.97,-47.1 -291.91,-74.7" /><g
         transform="scale(1.29978)"
         id="g44"><path
           id="path46"
           style="fill:#a8d29f;fill-opacity:1;fill-rule:nonzero;stroke:none"
           d="m 16192.5,1252.98 h -725.9 c -39,33.01 26.9,107.95 95.7,113.02 29.8,2.23 67.6,-4 110.7,-13.15 10.1,132.71 67.1,729.27 282.1,705.27 241.8,-26.85 0,-262.66 -68.3,-402.38 -50.6,-103.4 -104,-251.73 -128.5,-321.74 19.7,-4.23 40,-8.39 60.8,-12.24 32,98.41 151.2,429.38 302.9,410.07 178,-22.54 106.5,-155.25 -19.7,-234.04 -92.7,-57.93 -206.3,-140.25 -260.3,-180.03 45.7,-7.46 93.5,-12.46 141.9,-11.38 124.5,3 185.2,-33.7 208.6,-53.4" /></g><g
         transform="scale(1.33394)"
         id="g48"><path
           id="path50"
           style="fill:#ffb27d;fill-opacity:1;fill-rule:nonzero;stroke:none"
           d="m 16283.1,5858.14 c 0,0 16.9,167.47 -70.7,161.78 -87.6,-5.78 -110.8,-45.96 -101,-78.12 9.8,-32.16 95,-138.69 95,-138.69 l 76.7,55.03" /></g><g
         transform="scale(1.44423)"
         id="g52"><path
           id="path54"
           style="fill:#739af0;fill-opacity:1;fill-rule:nonzero;stroke:none"
           d="m 16300,5100.84 c 0,0 -89.6,-105.25 -282.2,-226.63 -18.2,-11.56 -37.3,-23.12 -57.4,-34.83 -74.7,-43.55 -162.5,-88.21 -263.8,-129.82 -11.1,-4.57 -24.2,-9.63 -38.9,-14.89 -115.4,-41.68 -327.8,-100.74 -459.3,-106.08 -11.5,-0.41 -22.3,-0.41 -32.4,-0.07 -200.3,8.11 -224.7,785.4 -224.7,785.4 0,0 22.3,77.76 125.2,58.17 0,0 156.2,-438.99 212.2,-474.72 49.8,-31.85 335.6,401.53 581.7,431.86 165.7,20.35 439.6,-288.39 439.6,-288.39" /></g><g
         transform="scale(1.39787)"
         id="g56"><path
           id="path58"
           style="fill:#1c3154;fill-opacity:1;fill-rule:nonzero;stroke:none"
           d="m 16284.7,1353.92 c 0,0 15.3,-176.77 -22,-195.16 l -478.3,0.93 c 0,0 0,55.23 76.8,67.46 76.8,12.31 211.7,57.23 234.6,157.46 22.9,100.15 188.9,-30.69 188.9,-30.69" /></g><g
         transform="scale(1.4186)"
         id="g60"><path
           id="path62"
           style="fill:#2a4e96;fill-opacity:1;fill-rule:nonzero;stroke:none"
           d="m 15700.9,3442.42 c 2.3,-113.92 7.7,-231.36 18.5,-336.95 50.9,-501.06 68.8,-1106.45 76.1,-1223.19 12.7,-202.59 52.6,-526.29 52.6,-526.29 0,0 79.5,-75.35 234.2,-39.41 0,0 128.2,466.24 156.9,957.08 0.4,8.1 0.8,16.14 1.2,24.25 3.3,64.92 6.9,139.15 10.4,219.16 23.6,535.95 49.2,1332.16 49.2,1332.16 l -591.4,138.87 c 0,0 -13.6,-261.74 -7.7,-545.68" /></g><g
         transform="scale(1.4186)"
         id="g64"><path
           id="path66"
           style="fill:#233862;fill-opacity:1;fill-rule:nonzero;stroke:none"
           d="m 15700.9,3442.42 c 149.9,-258.56 435.5,-734.88 549.9,-925.35 23.6,535.95 49.2,1332.16 49.2,1332.16 l -591.4,138.87 c 0,0 -13.6,-261.74 -7.7,-545.68" /></g><g
         transform="scale(1.39018)"
         id="g68"><path
           id="path70"
           style="fill:#6385db;fill-opacity:1;fill-rule:nonzero;stroke:none"
           d="m 16266.4,4877.2 c -119.8,-43.31 -340.5,-104.67 -477.1,-110.21 20.8,3.96 173,34.1 229.4,102.08 60.4,73.01 162.3,271.47 243.2,190.48 38.1,-38.13 27,-113.44 4.5,-182.35" /></g><g
         transform="scale(1.47699)"
         id="g72"><path
           id="path74"
           style="fill:#ffb27d;fill-opacity:1;fill-rule:nonzero;stroke:none"
           d="m 16264.7,3387.22 c 0,0 35.3,-138.26 29.5,-168.93 -5.8,-30.73 -40.2,-134.8 -61.6,-160.59 -21.5,-25.87 -22.4,112.18 -36.7,133.85 -14.2,21.73 -6.5,-51.52 -18,-57.48 -11.3,-6.03 -30.4,55.45 -39,77.25 -8.4,21.73 30.6,97.56 34.2,151.93 3.5,54.37 91.6,23.97 91.6,23.97" /></g><g
         transform="scale(1.50602)"
         id="g76"><path
           id="path78"
           style="fill:#1c3154;fill-opacity:1;fill-rule:nonzero;stroke:none"
           d="m 16221,1443.14 c 0,0 79,-72.05 63.6,-123.31 -15.4,-51.26 -86.7,-85.39 -96.4,-148 -9.6,-62.62 -48.1,-96.75 -82.8,-96.75 -34.7,0 -165.4,0 -165.4,0 0,0 -25.5,44.03 36.2,57.31 61.7,13.28 84.9,86.91 81,155.17 -3.8,68.33 5.8,159.43 5.8,159.43 l 131,30.34 27,-34.19" /></g><g
         transform="scale(1.49872)"
         id="g80"><path
           id="path82"
           style="fill:#2a4e96;fill-opacity:1;fill-rule:nonzero;stroke:none"
           d="m 14957,3631.96 c 0,0 524,-1121.09 802.8,-1612.97 278.8,-491.89 366,-629.21 366,-629.21 0,0 159.7,62.92 174.2,105.83 0,0 -106.6,949.67 -293.3,1181.13 -105.6,130.85 -229.5,523.38 -235.3,660.63 -5.8,137.32 -128.2,464.93 -128.2,464.93 L 14957,3631.96" /></g><g
         transform="scale(1.4661)"
         id="g84"><path
           id="path86"
           style="fill:#739af0;fill-opacity:1;fill-rule:nonzero;stroke:none"
           d="m 15190,3772.38 c 0,0 174.4,-187.71 470.8,-244.39 130,-24.9 394.1,-48.91 459.5,43.65 15.4,21.76 15.5,53.95 12.1,104.22 -8.8,130.62 -41.7,383.2 106.7,890.73 13.8,47.2 23.1,92.49 28.5,135.67 32.4,259.6 28.9,455.63 -196.4,560.33 -337.5,156.87 -476.1,27.83 -476.1,27.83 0,0 -179.5,-83.9 -261.5,-328.36 -164,-489.05 -143.6,-1189.68 -143.6,-1189.68" /></g><g
         transform="scale(1.42961)"
         id="g88"><path
           id="path90"
           style="fill:#ffb27d;fill-opacity:1;fill-rule:nonzero;stroke:none"
           d="m 16273.7,5441.14 c -58.3,-41.41 -160.8,-65.82 -258.5,-16.92 -7.6,3.77 -6.7,55.47 -4.8,106.25 1.9,49.8 6.6,98.7 6.6,98.7 l 123.2,80.86 117.5,77.08 c -14.1,-265.1 42.3,-327.15 16,-345.97" /></g><g
         transform="scale(1.42409)"
         id="g92"><path
           id="path94"
           style="fill:#ed985f;fill-opacity:1;fill-rule:nonzero;stroke:none"
           d="m 16300,5699.73 c 0,0 -80.3,-120.43 -227.5,-147.82 1.9,50 7.2,105.12 7.2,105.12 l 123,75.14 97.3,-32.44" /></g><g
         transform="scale(1.44017)"
         id="g96"><path
           id="path98"
           style="fill:#ffb27d;fill-opacity:1;fill-rule:nonzero;stroke:none"
           d="m 15790.1,5618.87 c 0,0 295.8,-110.41 361.6,71.87 65.8,182.27 148.3,290.73 -37.8,368.91 -186,78.19 -248,21.8 -285,-33.68 -37,-55.48 -114,-373.7 -38.8,-407.1" /></g><g
         transform="scale(1.44553)"
         id="g100"><path
           id="path102"
           style="fill:#2c3a64;fill-opacity:1;fill-rule:nonzero;stroke:none"
           d="m 16275.4,6016.77 c 3.4,2.62 10.2,3.94 24.6,1.86 0,0 -10,9.34 -25,12.73 0.9,20.34 -2.7,57.35 -35,72.5 0,0 16.3,-13.28 14.5,-34.73 -31.3,48.15 -109.7,94.23 -346.8,121.9 -312.4,36.45 -249.9,-180.49 -214.7,-211.83 35.2,-31.34 148.1,13.21 221.1,-7.33 73.1,-20.55 66,-130.54 88.3,-150.26 22.2,-19.65 17.5,8.3 54.6,16.95 37.1,8.72 29.2,-48.35 12.1,-83.15 -17.1,-34.73 20.1,-92.36 20.1,-92.36 0,0 0,0 57.4,41.58 57.3,41.58 144.5,248.49 132.1,298.71 -1.1,4.43 -2.2,8.93 -3.3,13.43" /></g><g
         transform="scale(1.46319)"
         id="g104"><path
           id="path106"
           style="fill:#6385db;fill-opacity:1;fill-rule:nonzero;stroke:none"
           d="m 16164.5,3683.18 c -8.8,130.88 -41.7,383.96 106.9,892.51 13.9,47.29 23.2,92.67 28.6,135.93 v 0 c -110.4,36.43 -311.7,-44.63 -311.7,-44.63 0,0 -47.3,-672.22 176.2,-983.81" /></g><g
         transform="scale(1.48771)"
         id="g108"><path
           id="path110"
           style="fill:#739af0;fill-opacity:1;fill-rule:nonzero;stroke:none"
           d="m 15897.7,5152.68 c 0,0 133.6,-48.6 218.9,-402.43 56.4,-233.85 160,-577.46 171.7,-685.48 11.7,-108.02 -118.5,-740.27 -118.5,-740.27 0,0 -18.4,-13.37 -63.4,-4.37 -43.1,8.61 -63.1,37.71 -63.1,37.71 0,0 -31.2,421.45 -23.1,620.42 3.3,82.67 -382.7,605.42 -591.1,672.77 -81.8,26.42 468.6,501.65 468.6,501.65" /></g><g
         transform="scale(1.36522)"
         id="g112"><path
           id="path114"
           style="fill:#aec3ff;fill-opacity:1;fill-rule:nonzero;stroke:none"
           d="m 15286.8,6114.17 c 0,0 421,12.02 906.8,-77.42 l 50.7,127.89 55.7,140.13 c 0,0 -487.7,209.93 -780.8,502.33 l -232.4,-692.93" /></g><g
         transform="scale(1.30038)"
         id="g116"><path
           id="path118"
           style="fill:#f99746;fill-opacity:1;fill-rule:nonzero;stroke:none"
           d="m 16300,7153.67 -253.8,-749.08 c -37,10.99 -57.3,50.83 -44.4,87.36 l 223.3,629.35 c 10.8,30.45 45.3,45.37 74.9,32.37" /></g><g
         transform="scale(1.33605)"
         id="g120"><path
           id="path122"
           style="fill:#f99746;fill-opacity:1;fill-rule:nonzero;stroke:none"
           d="m 16100.6,5705.1 v 0 c 48,-9.65 95.1,21.79 104.7,69.84 l 85,425.51 c 9.7,47.97 -21.7,95.13 -69.8,104.71 -48,9.58 -95.1,-21.86 -104.8,-69.84 l -85,-425.5 c -9.6,-47.98 21.9,-95.13 69.9,-104.72" /></g><g
         transform="scale(1.36056)"
         id="g124"><path
           id="path126"
           style="fill:#739af0;fill-opacity:1;fill-rule:nonzero;stroke:none"
           d="m 15339.2,6135.13 c 0,0 422.4,12.05 909.9,-77.69 l 50.9,128.33 c -458,93.49 -960.8,-50.64 -960.8,-50.64" /></g><g
         transform="scale(1.37302)"
         id="g128"><path
           id="path130"
           style="fill:#f99746;fill-opacity:1;fill-rule:nonzero;stroke:none"
           d="m 15968,6028.01 130.8,-23.02 c -2,-0.07 121.5,-24.03 162,85.43 3.7,7.51 6.1,14.86 7.7,23.6 31.5,136.41 -43.4,161.54 -43.4,161.54 l -168.4,65.62 -53.4,-189.29 c 0,0 0,0 0,-0.65 l -35.3,-123.23" /></g><g
         transform="scale(1.36972)"
         id="g132"><path
           id="path134"
           style="fill:#ed7d2b;fill-opacity:1;fill-rule:nonzero;stroke:none"
           d="m 16006.5,6042.53 131.1,-23.07 c -2,-0.07 121.8,-24.09 162.4,85.64 -74.2,53.95 -258.2,61.62 -258.2,61.62 0,0 0,0 0,-0.66 l -35.3,-123.53" /></g><g
         transform="scale(1.32603)"
         id="g136"><path
           id="path138"
           style="fill:#ffb27d;fill-opacity:1;fill-rule:nonzero;stroke:none"
           d="m 16233.8,6163.28 c 0,0 66.2,-26.39 54.1,-55.58 -12.2,-29.11 -96.4,-69.23 -109.7,-46.23 -13.3,23 13.9,126.47 55.6,101.81" /></g><g
         transform="scale(1.3341)"
         id="g140"><path
           id="path142"
           style="fill:#ffb27d;fill-opacity:1;fill-rule:nonzero;stroke:none"
           d="m 16282.4,5883.8 c 0,0 12.4,67.38 13.2,98.34 0.7,30.96 4.4,56.22 -2.9,57.12 -7.3,0.82 -12.6,-4.87 -15.6,-14.84 -3,-9.9 -14.4,-71.66 -14.4,-71.66 l 5.8,-59.52 13.9,-9.44" /></g><path
         id="path144"
         style="fill:#7599ea;fill-opacity:1;fill-rule:nonzero;stroke:none"
         d="m 13033.1,7908.3 -497.7,-5918 c 0,0 -52.1,-358.8 214.7,-359.4 438.7,-1.1 2183.8,0 2183.8,0 0,0 -330.3,74.7 -326.3,242.7 4.8,198 581.8,6090.7 581.8,6090.7 l -2156.3,-56" /><path
         id="path146"
         style="fill:#90aff4;fill-opacity:1;fill-rule:nonzero;stroke:none"
         d="m 15098.1,1735.9 c -86.3,-0.3 -1775.7,-3.1 -2202.9,2.4 -186.2,2.3 -218.9,165.5 -220.4,271.2 -0.8,50.6 5.6,88.1 5.6,88.1 l 13,153.8 33,392 29.1,346.4 37.4,445.1 31.6,375.6 353.6,4205.2 2156.3,56 c 0,0 -243,-2466.1 -414.9,-4261.2 -19.2,-200 -37.5,-391.7 -54.3,-570.8 -5.5,-57.1 -10.8,-113 -15.9,-167.4 -15.9,-169.8 -30.5,-325.8 -43.2,-463.5 -6.7,-72.6 -12.8,-140 -18.4,-201.8 -22,-242.1 -34.8,-396.7 -35,-426.1 -0.1,-17.1 1.4,-33 4.2,-47.9 35.4,-188.6 308.8,-197.1 341.2,-197.1" /><g
         transform="scale(1.2411)"
         id="g148"><path
           id="path150"
           style="fill:#aec3ff;fill-opacity:1;fill-rule:nonzero;stroke:none"
           d="m 6281.93,8966.73 976.84,-3923.72 133.74,-537.43 454.97,-1827.56 H 16300 L 14623.1,8966.73 H 6281.93" /></g><path
         id="path152"
         style="fill:#90aff4;fill-opacity:1;fill-rule:nonzero;stroke:none"
         d="m 7796.51,11128.7 -168.02,-56 1887.68,-7918.4 223.39,169.4 -1943.05,7805" /><g
         transform="scale(1.2411)"
         id="g154"><path
           id="path156"
           style="fill:#7599ea;fill-opacity:1;fill-rule:nonzero;stroke:none"
           d="M 7667.5,2541.53 H 16068 l 232,136.49 H 7847.49 L 7667.5,2541.53" /></g><path
         id="path158"
         style="fill:#aec3ff;fill-opacity:1;fill-rule:nonzero;stroke:none"
         d="m 13177.4,1628.6 h 2257.4 v 107.301 h -2257.4 z" /><path
         id="path160"
         style="fill:#5888dd;fill-opacity:1;fill-rule:nonzero;stroke:none"
         d="m 14861,3154.3 -11.7,-82 -2122.9,-428.9 29.1,346.4 13.9,164.5 H 14861" /><path
         id="path162"
         style="fill:#7a9feb;fill-opacity:1;fill-rule:nonzero;stroke:none"
         d="m 15098.1,1735.9 h -1820 c -162.6,0.5 -297.8,1.3 -382.9,2.4 -186.2,2.3 -218.9,165.5 -220.4,271.2 l 2112.9,397.5 c -22,-242.1 -34.8,-396.7 -35,-426.1 0,-0.5 0,-1 0,-1.6 0,-16.5 1.5,-31.9 4.2,-46.3 35.4,-188.6 308.8,-197.1 341.2,-197.1" /><path
         id="path164"
         style="fill:#8cabf1;fill-opacity:1;fill-rule:nonzero;stroke:none"
         d="m 14064.6,1734.9 c -274.4,0 -557.6,0.3 -786.5,1 v 0 h 1820 v 0 c -44.9,-0.2 -524.1,-1 -1033.5,-1" /><g
         transform="scale(1.21647)"
         id="g166"><path
           id="path168"
           style="fill:#aec3ff;fill-opacity:1;fill-rule:nonzero;stroke:none"
           d="M 6409.15,9148.35 H 14919.3 L 16300,3991.81 H 7692.86 L 6409.15,9148.35" /></g><g
         transform="scale(1.18652)"
         id="g170"><path
           id="path172"
           style="fill:#739af0;fill-opacity:1;fill-rule:nonzero;stroke:none"
           d="M 16300,4321.73 H 8130.77 l -291.91,1162.9 -112.93,449.98 -46.06,183.47 -300.03,1195.1 -15.55,62.2 -158.6,631.77 -70.96,282.59 -60.53,241.13 -141.88,565.21 h 8051.38 l 155.8,-565.21 66.5,-241.13 77.9,-282.59 513.4,-1862.18 v -0.09 l 43.5,-157.77 20.2,-73.24 354.5,-1285.53 84.5,-306.61" /></g><g
         transform="scale(1.10204)"
         id="g174"><path
           id="path176"
           style="fill:#607cf4;fill-opacity:1;fill-rule:nonzero;stroke:none"
           d="M 16300,9184.73 H 7616.47 l -152.75,608.59 h 8668.58 l 167.7,-608.59" /></g><path
         id="path178"
         style="fill:#e9f3fe;fill-opacity:1;fill-rule:nonzero;stroke:none"
         d="m 8620.54,10489.6 c -11.55,46.3 16.63,83.8 62.94,83.8 46.31,0 93.2,-37.5 104.74,-83.8 11.55,-46.3 -16.63,-83.9 -62.93,-83.9 -46.31,0 -93.21,37.6 -104.75,83.9" /><path
         id="path180"
         style="fill:#e9f3fe;fill-opacity:1;fill-rule:nonzero;stroke:none"
         d="m 8899.12,10489.6 c -11.55,46.3 16.63,83.8 62.94,83.8 46.3,0 93.2,-37.5 104.74,-83.8 11.54,-46.3 -16.63,-83.9 -62.94,-83.9 -46.3,0 -93.2,37.6 -104.74,83.9" /><path
         id="path182"
         style="fill:#e9f3fe;fill-opacity:1;fill-rule:nonzero;stroke:none"
         d="m 9199.09,10489.6 c -11.55,46.3 16.63,83.8 62.94,83.8 46.3,0 93.19,-37.5 104.74,-83.8 11.55,-46.3 -16.63,-83.9 -62.94,-83.9 -46.3,0 -93.2,37.6 -104.74,83.9" /><g
         transform="scale(1.13474)"
         id="g184"><path
           id="path186"
           style="fill:#f77d48;fill-opacity:1;fill-rule:nonzero;stroke:none"
           d="m 13992.7,12947.2 c 345.3,405.4 877.7,1219.7 1236.1,1636.7 73.8,85.8 12.5,218.2 -100.7,218.2 h -652.2 l 615.2,1391.2 c 26.2,59.4 -54.7,106.7 -93.5,54.7 L 13510,14257 c -43.4,-58.1 4,-139.8 76,-131 l 738.4,90.9 -439.3,-1206.7 c -24.2,-66.4 61.8,-116.8 107.6,-63" /></g><path
         id="path188"
         style="fill:#aec3ff;fill-opacity:1;fill-rule:nonzero;stroke:none"
         d="m 12393.6,11890.1 c 88.1,452 143.7,1291.7 236.9,1758.1 19.1,96 -83.3,169.8 -168.6,121.7 l -491.5,-276.8 -126.8,1309.6 c -5.5,55.9 -86.5,57.2 -93.8,1.5 l -276,-2131.9 c -8.1,-62.2 62.4,-103.7 112.9,-66.5 l 517.9,382 181.1,-1096 c 10,-60.3 96.2,-61.7 107.9,-1.7" /><g
         transform="scale(1.27302)"
         id="g190"><path
           id="path192"
           style="fill:#e6efff;fill-opacity:1;fill-rule:nonzero;stroke:none"
           d="M 15524.9,3923.1 8908.94,3365.76 c -502.43,-42.34 -865.97,469.75 -660.24,930.07 l 2802.9,6272.97 c 212.7,475.9 866.3,531 1155.5,97.4 l 3813.1,-5715.63 c 279.8,-419.39 7.1,-985.13 -495.3,-1027.47" /></g><g
         transform="scale(1.28348)"
         id="g194"><path
           id="path196"
           style="fill:#f77d48;fill-opacity:1;fill-rule:nonzero;stroke:none"
           d="m 11527.1,10621.1 c -150.2,-12.6 -276.6,-102.3 -338.1,-240 L 8408.87,4159.16 c -59.45,-133.07 -44.57,-283.44 39.81,-402.34 84.38,-118.9 221.51,-182.55 366.74,-170.32 l 6562.08,552.88 c 145.3,12.23 269.8,97.93 333.1,229.3 63.3,131.28 52.8,282.04 -28.1,403.35 l -3782,5669.07 c -83.6,125.4 -223.3,192.7 -373.4,180 M 15419.3,3642.99 8857.26,3090.12 c -322.72,-27.19 -627.36,114.22 -814.82,378.34 -187.46,264.05 -220.49,598.3 -88.35,893.98 l 2780.11,6221.96 c 136.6,305.7 417.4,505 751.1,533.2 333.7,28.1 643.8,-121.5 829.7,-400 l 3782,-5669.13 c 179.7,-269.43 203,-604.37 62.4,-896.16 -140.7,-291.71 -417.3,-482.13 -740.1,-509.32" /></g><path
         id="path198"
         style="fill:#f77d48;fill-opacity:1;fill-rule:nonzero;stroke:none"
         d="m 15899.6,7739.7 -1213.2,-102.2 -521.1,4130.7 1556.9,131.2 z M 14597.4,6216 c -9.1,108.5 1.8,210.5 32.8,305.9 31,95.3 79,179.7 144.1,253.1 65.1,73.3 145.7,133.2 242,179.4 96.2,46.1 206.6,74.6 331.4,85.1 124.6,10.5 239.1,1 343.4,-28.3 104.3,-29.3 194.7,-74.7 271.1,-136.1 76.5,-61.5 137.9,-136.7 184.5,-225.5 46.4,-88.8 74.3,-187.5 83.5,-296 9.1,-108.6 -1.9,-209.8 -33,-303.4 -31.2,-93.8 -79.3,-177.4 -144.3,-250.7 -65.1,-73.4 -146.6,-133.3 -244.6,-179.6 -97.9,-46.3 -209.2,-74.8 -333.8,-85.3 -124.8,-10.5 -238.4,-1 -341,28.4 -102.6,29.4 -192.1,74.9 -268.5,136.4 -76.5,61.4 -138,135.7 -184.3,223 -46.4,87.2 -74.1,185.1 -83.3,293.6" /><path
         id="path200"
         style="fill:#ffb27d;fill-opacity:1;fill-rule:nonzero;stroke:none"
         d="m 9367.5,7486.4 c 0,0 26.41,59.4 43.51,87.5 17.1,28.1 90.17,110.5 102.6,91.8 12.44,-18.6 62.19,-144.2 35.76,-179.3 -26.43,-35.2 1.71,-96.4 -129.73,-133.4 l -52.14,133.4" /><path
         id="path202"
         style="fill:#ed7d2b;fill-opacity:1;fill-rule:nonzero;stroke:none"
         d="m 7906.76,7861.4 c 0,0 672.87,-561.7 935.25,-509.7 205.15,40.7 529.5,143.6 529.5,143.6 0,0 85.6,-81.5 61.39,-179.1 0,0 -413.22,-388.8 -707.63,-391.3 -460.17,-3.9 -677.21,228 -677.21,228 l -141.3,708.5" /><path
         id="path204"
         style="fill:#113c68;fill-opacity:1;fill-rule:nonzero;stroke:none"
         d="m 6726.68,1936.9 c 0,0 19.54,-315.1 80.5,-319.6 8.11,-0.6 309.2,-0.6 309.2,-0.6 l 384.35,2.2 c 0,0 -2.52,92.7 -114.87,112.2 -112.34,19.6 -300.39,98.6 -368.45,247.1 -71.59,156.2 -290.73,-41.3 -290.73,-41.3" /><path
         id="path206"
         style="fill:#2a4e96;fill-opacity:1;fill-rule:nonzero;stroke:none"
         d="m 6704.53,1915.1 c 0,0 116.84,-39.1 208.06,-39.1 101.76,0 194.24,27.7 194.24,27.7 0,0 22,212.7 143.05,681.4 63.46,245.7 154.09,561.6 283.04,954.1 356.5,1084.8 464.92,1719.4 474.81,1779.5 0.53,3.1 0.74,4.7 0.74,4.7 l -1.16,0.5 -1096.05,481.3 c 0,0 135.47,-1495.1 -37.36,-2069 -24.22,-80.2 -44.95,-173.6 -62.74,-274.9 C 6702.01,2838 6704.53,1915.1 6704.53,1915.1" /><path
         id="path208"
         style="fill:#233862;fill-opacity:1;fill-rule:nonzero;stroke:none"
         d="m 7249.88,2585.1 c 63.46,245.7 154.09,561.6 283.04,954.1 356.5,1084.8 464.92,1719.4 474.81,1779.5 -0.1,1.8 -0.21,3.5 -0.42,5.2 l -1096.05,481.3 c 0,0 135.47,-1495.1 -37.36,-2069 -24.22,-80.2 375.98,-1151.1 375.98,-1151.1" /><path
         id="path210"
         style="fill:#15447c;fill-opacity:1;fill-rule:nonzero;stroke:none"
         d="m 7582.76,1936.9 c 0,0 19.53,-315.1 80.5,-319.6 8.11,-0.6 309.19,-0.6 309.19,-0.6 l 384.35,2.2 c 0,0 -2.52,92.7 -114.86,112.2 -112.35,19.6 -300.4,98.6 -368.45,247.1 -71.6,156.2 -290.73,-41.3 -290.73,-41.3" /><path
         id="path212"
         style="fill:#2a4e96;fill-opacity:1;fill-rule:nonzero;stroke:none"
         d="m 8204.18,5770 c 0,0 14.24,-968.9 -153.39,-2158.4 -167.63,-1189.6 -110.8,-1694.5 -110.8,-1694.5 0,0 -115.17,-37.3 -161.65,-41.1 -118.41,-9.7 -239.82,27.7 -239.82,27.7 0,0 -239.93,1190 -171.14,1785.4 68.79,595.4 -328.55,2043.1 -328.55,2043.1 l 1165.35,37.8" /><path
         id="path214"
         style="fill:#ffb27d;fill-opacity:1;fill-rule:nonzero;stroke:none"
         d="m 7426.99,8037.1 213.95,-140.2 194.89,55.1 c 35.62,50.8 45.05,148.8 45.57,233.6 0.52,84.3 -7.65,155.6 -7.65,155.6 l -288.65,127.4 -107.71,47.5 c 0.32,-1.7 8.38,-88.5 9.53,-101.1 20.12,-225 -59.93,-377.9 -59.93,-377.9" /><path
         id="path216"
         style="fill:#f99746;fill-opacity:1;fill-rule:nonzero;stroke:none"
         d="m 8209.09,5500.6 c -266.3,-257.1 -1274.14,-213.9 -1336.25,69.4 -62.01,283.3 67.74,2411.6 522.63,2545.3 94.4,27.7 599.06,-135.4 599.06,-135.4 0,0 79.19,-207.2 131.12,-470.9 10.08,-51.4 39.5,-595.2 61.52,-1104 10.27,-238 18.96,-468.3 23.4,-637 4.05,-158 4.25,-261.8 -1.48,-267.4" /><path
         id="path218"
         style="fill:#fca56b;fill-opacity:1;fill-rule:nonzero;stroke:none"
         d="m 7508.51,8411 c 58.57,-99 264.03,-185.7 372.89,-225.4 0.52,84.3 -7.65,155.6 -7.65,155.6 l -288.65,127.4 c -63.81,0.9 -102.68,-13.4 -76.59,-57.6" /><path
         id="path220"
         style="fill:#ffb27d;fill-opacity:1;fill-rule:nonzero;stroke:none"
         d="m 7982.63,8358.8 c 0,0 -465.09,-145.1 -550.98,145.9 -85.89,291.1 -203.77,468.3 89.55,573.3 293.32,104.9 384.05,11 436.35,-79.2 52.29,-90.2 143.85,-594.8 25.08,-640" /><path
         id="path222"
         style="fill:#163560;fill-opacity:1;fill-rule:nonzero;stroke:none"
         d="m 7939.28,9026.8 c 0,0 -29.66,-338.6 -99.7,-323.9 -70.03,14.7 -147.13,46.1 -136.87,-56 10.25,-102 -68.11,-277.1 -169.1,-276.6 -216.59,0.9 -451.93,556.7 -392.63,662 171.08,304.1 1045.58,365.5 798.3,-5.5" /><path
         id="path224"
         style="fill:#ed7d2b;fill-opacity:1;fill-rule:nonzero;stroke:none"
         d="m 7870.86,8107.9 c -6,2.5 -346.23,155.2 -386.02,142 -39.79,-13.1 -89.39,-134.6 -89.39,-134.6 l 599.1,-135.5 c 0,0 -47.16,95.9 -123.69,128.1" /><path
         id="path226"
         style="fill:#1f4d84;fill-opacity:1;fill-rule:nonzero;stroke:none"
         d="M 9989.03,6459.7 8081.82,4664 c -37.39,-35.2 -84.53,-46.4 -104.76,-24.9 l -64.38,68.4 c -20.23,21.5 -6.2,67.8 31.18,103 l 1907.22,1795.7 c 37.38,35.2 84.53,46.4 104.75,24.9 l 64.37,-68.3 c 20.2,-21.5 6.2,-67.9 -31.17,-103.1" /><path
         id="path228"
         style="fill:#739af0;fill-opacity:1;fill-rule:nonzero;stroke:none"
         d="m 8918.75,5452 -836.93,-788 c -37.39,-35.2 -84.53,-46.4 -104.76,-24.9 l -64.38,68.4 c -20.23,21.5 -6.2,67.8 31.18,103 l 836.93,788 137.96,-146.5" /><path
         id="path230"
         style="fill:#1f4d84;fill-opacity:1;fill-rule:nonzero;stroke:none"
         d="m 9977.94,8517.3 c 329.16,350 798.26,489.4 1238.76,413.2 256.7,-44.5 503.5,-162 707.4,-353.9 553.9,-521 580.4,-1392.3 59.3,-1946.2 -191.8,-203.8 -431,-336.2 -684.4,-396.2 -435.1,-103 -911.8,7.5 -1261.8,336.8 -553.79,521.1 -580.41,1392.4 -59.26,1946.3 M 9550.67,7137.7 c 73.24,-241.3 208.81,-467.3 405.69,-652.6 601.34,-565.7 1547.44,-536.7 2113.04,64.5 558.3,593.4 537.5,1522.3 -41,2090.3 -7.7,7.7 -15.5,15.2 -23.5,22.6 -601.2,565.7 -1547.2,537 -2112.88,-64.3 -380.53,-404.4 -492.12,-964.8 -341.35,-1460.5" /><path
         id="path232"
         style="fill:#93b5f5;fill-opacity:1;fill-rule:nonzero;stroke:none"
         d="m 10512.5,6278.7 c -98,35.3 -192.9,82.2 -282.6,140.7 -67.4,44 -132,94.5 -192.7,151.6 -553.79,521.1 -580.41,1392.4 -59.26,1946.3 21.68,23.1 43.96,45.2 66.86,66.4 262.5,243.9 598.9,367 936,367 78.9,0 157.8,-6.8 235.9,-20.3 143.8,-24.9 284.6,-72.7 416.4,-143.8 L 10512.5,6278.7" /><path
         id="path234"
         style="fill:#ccdffc;fill-opacity:1;fill-rule:nonzero;stroke:none"
         d="m 11183,6211.9 947.3,2120.1 c 3.8,-5.7 7.6,-11.5 11.3,-17.3 122.6,-191.8 193.2,-407.9 211.3,-627.8 30.7,-374.9 -91.4,-760.9 -369.5,-1056.5 -191.8,-203.8 -431,-336.2 -684.4,-396.2 -38.3,-9.1 -77.1,-16.5 -116,-22.3" /><path
         id="path236"
         style="fill:#d5a6a1;fill-opacity:1;fill-rule:nonzero;stroke:none"
         d="m 10980.3,6197 c -43.6,0 -87.2,2.1 -130.7,6.2 -114.3,10.8 -227.6,36 -337.1,75.5 l 1120.6,2507.9 c 52,-28 102.7,-59.6 151.5,-94.8 48.3,-34.9 95,-73.2 139.5,-115.2 79.7,-74.9 148.5,-157.1 206.2,-244.6 L 11183,6211.9 c -67.1,-9.9 -134.9,-14.9 -202.7,-14.9" /><path
         id="path238"
         style="fill:#698ebf;fill-opacity:1;fill-rule:nonzero;stroke:none"
         d="m 10980.4,6197 c -43.6,0 -87.3,2.1 -130.8,6.2 43.5,-4.1 87.1,-6.2 130.7,-6.2 67.8,0 135.6,5 202.7,14.9 38.9,5.8 77.7,13.2 116,22.3 253.4,60 492.6,192.4 684.4,396.2 278.1,295.6 400.2,681.6 369.5,1056.5 30.7,-374.9 -91.4,-760.9 -369.4,-1056.5 -191.9,-203.8 -431.1,-336.2 -684.5,-396.3 -104.5,-24.7 -211.6,-37.1 -318.6,-37.1 m -750.5,222.4 c -67.5,44 -132,94.5 -192.7,151.6 -553.82,521.1 -580.4,1392.4 -59.29,1946.3 21.7,23.1 43.99,45.2 66.89,66.4 -22.9,-21.2 -45.18,-43.3 -66.86,-66.4 -521.15,-553.9 -494.53,-1425.2 59.26,-1946.3 60.7,-57.1 125.3,-107.6 192.7,-151.6 m 1911.7,1895.3 c -3.7,5.8 -7.5,11.6 -11.3,17.3 -57.7,87.5 -126.5,169.7 -206.2,244.6 -44.5,42 -91.2,80.3 -139.5,115.2 48.3,-34.9 95,-73.2 139.5,-115.1 84.9,-79.9 157.5,-168.1 217.5,-262" /><path
         id="path240"
         style="fill:#ed7d2b;fill-opacity:1;fill-rule:nonzero;stroke:none"
         d="m 8210.57,5768 c -1050.89,748.8 -963.5,1748.1 -963.5,1748.1 384.09,-216.6 765.23,-695.6 940.1,-1111.1 10.27,-238 18.96,-468.3 23.4,-637" /><path
         id="path242"
         style="fill:#ffb27d;fill-opacity:1;fill-rule:nonzero;stroke:none"
         d="m 9247.77,6109 c 74.11,17.1 123.88,73.1 134.22,82.9 0,0 31.6,-2.1 -5.18,-69.5 -3.08,-5.7 -9.92,-20.2 -15.07,-30.4 -2.11,-4.2 0.82,-9.1 5.5,-9.4 42.77,-3.3 85.75,13.6 168.14,-3.5 11.37,-2.4 14.67,-29.6 14.24,-41.2 -0.74,-19.7 0.67,-41.7 -22.15,-71.8 -13.27,-17.5 -50.31,-36.4 -132.79,-69.5 -31.42,-12.7 -121.26,-3.2 -205.47,25.8 l -67.28,31.1 20.87,125.1 16.9,-3.6 c 26.84,-5.6 60.09,27.2 88.07,34" /><path
         id="path244"
         style="fill:#f99746;fill-opacity:1;fill-rule:nonzero;stroke:none"
         d="m 7573.21,7979.8 c 0,0 -944.25,-179.8 277.81,-1547.2 195.44,-218.7 1251.39,-503.4 1251.39,-503.4 0,0 107.1,91.1 53.11,164.9 0,0 -727.05,528 -887.02,611.9 -71.97,37.8 -279.31,842.7 -396.62,1036.5 -117.31,193.9 -298.67,237.3 -298.67,237.3" /><path
         id="path246"
         style="fill:#ffb27d;fill-opacity:1;fill-rule:nonzero;stroke:none"
         d="m 9393.1,7469.8 c 0,0 30.88,59 36.91,90.1 6.03,31.2 44.92,122 60.94,138 6.42,6.4 27.56,-1.9 30.06,-29.4 1.08,-12 -4.79,-33.8 -15.17,-59.8 -16.89,-42.2 -14.11,-99.5 -19.98,-118.6 -14.62,-47.6 -92.76,-20.3 -92.76,-20.3" /><path
         id="path248"
         style="fill:#ffb27d;fill-opacity:1;fill-rule:nonzero;stroke:none"
         d="m 9768.88,9812.6 c -16.06,-18.4 -18.12,-39 -10.18,-60.9 l 0.16,-0.4 c 14.68,-40.6 63.21,-85.9 119.58,-131.2 7.2,-5.8 13.61,-11.1 19.19,-16 1.47,-1.3 2.94,-2.6 4.31,-3.9 1.14,-1 2.23,-2 3.32,-3 52.57,-48.5 32.77,-59.6 127.24,-158 107.6,-112.1 181.8,-114.1 202.9,-103.9 17.9,8.7 -18.4,68.1 -58.5,134.9 -2,3.3 -3.9,6.5 -5.9,9.8 -5.3,8.9 -10.7,17.9 -16,26.8 -47,80.4 -34.9,118.2 -23.7,237.8 9.1,97.3 151.4,543.2 151.4,543.2 l -206.4,35.7 c 0,0 -62.2,-355.2 -130.76,-409.8 -36.64,-29.2 -77.63,-29.5 -112.84,-51.1 -2.49,-1.5 -4.93,-3.1 -7.33,-4.7 -20,-13.2 -40.39,-26.9 -56.49,-45.3" /><path
         id="path250"
         style="fill:#233862;fill-opacity:1;fill-rule:nonzero;stroke:none"
         d="m 9768.88,9812.6 c -16.06,-18.4 -18.12,-39 -10.18,-60.9 l 0.16,-0.4 c 17.98,-40.5 65.29,-85.7 119.78,-130.8 7.12,-5.9 13.4,-11.4 18.99,-16.4 1.47,-1.3 2.94,-2.6 4.31,-3.9 1.14,-1 2.23,-2 3.32,-3 52.57,-48.5 32.77,-59.6 127.24,-158 107.6,-112.1 181.8,-114.1 202.9,-103.9 17.9,8.7 -18.4,68.1 -58.5,134.9 -21,7.7 -118.4,47.3 -192.01,141.6 -62.47,79.8 -104.88,181.4 -147.38,243.9 -4.68,0.8 -7.46,1.4 -12.13,2.2 -20.01,-13.2 -40.39,-26.9 -56.5,-45.3" /><path
         id="path252"
         style="fill:#ffb27d;fill-opacity:1;fill-rule:nonzero;stroke:none"
         d="m 11433.4,9940.9 c 12.7,-63.7 103.6,-53.1 205,-28.4 101.5,24.8 77.4,-4.7 221.8,11.3 144.4,15.9 188.2,69.7 192.6,91.2 4,19.1 -67.4,25.8 -143.9,34.7 -9.6,1 -19.3,2.2 -29,3.4 -86.4,10.9 -149.7,66.7 -228.1,112.5 -74.4,43.4 -185.3,220.2 -185.3,220.2 l -198,-15.6 c 0,0 103.8,-157.9 144,-226.6 23.6,-40.3 22.4,-93.7 19.4,-134.9 -1.5,-22.4 -3,-45.3 1.5,-67.8" /><path
         id="path254"
         style="fill:#233862;fill-opacity:1;fill-rule:nonzero;stroke:none"
         d="m 11638.4,9912.5 c 101.5,24.8 77.4,-4.7 221.8,11.3 144.4,15.9 188.2,69.7 192.6,91.2 4,19.1 -67.4,25.8 -143.9,34.7 l -0.7,-1.5 c 0,0 -86.7,-61.4 -206.9,-64.2 -98,-2.4 -201.7,25.7 -269.4,24.7 -1.5,-22.4 -3,-45.3 1.5,-67.8 12.7,-63.7 103.6,-53.1 205,-28.4" /><path
         id="path256"
         style="fill:#233862;fill-opacity:1;fill-rule:nonzero;stroke:none"
         d="m 10674.8,11207.6 -185.3,-498.2 -241.9,-650.4 c 0,0 -65.6,-6.3 -128.4,11.8 -57.9,16.7 -124.21,60.5 -124.21,60.5 0,0 67.31,698.4 192.71,1099.3 32.1,103 68.1,186.2 107.8,233 194.2,229.3 379.3,-256 379.3,-256" /><path
         id="path258"
         style="fill:#2a4e96;fill-opacity:1;fill-rule:nonzero;stroke:none"
         d="m 10486.9,11998.9 c -105.4,34 -380.4,0.7 -678.7,-53.2 -82.41,-14.9 -165.47,22.7 -208.86,94.4 l -750.62,58.8 c 0,0 -247.89,-549.2 -112.4,-899.2 19.91,-51.5 63.64,-83.6 131.15,-84.7 0,0 453.59,-0.8 598.66,-0.8 373.3,-0.1 790.17,256.3 844.07,267.1 88.2,17.6 123.5,-158.9 211.6,-344.2 88.2,-185.4 829.2,-820.9 829.2,-820.9 0,0 113.9,-1.2 161,16.4 50.6,19 69.1,43.6 69.1,43.6 0,0 -820.7,1634.4 -1094.2,1722.7" /><path
         id="path260"
         style="fill:#233862;fill-opacity:1;fill-rule:nonzero;stroke:none"
         d="m 9520.35,14244.4 c -55.73,33.2 -110.07,38.3 -143.37,37.3 -23.17,-0.6 -46.3,0.9 -69.23,4.2 -286.47,42.2 -459.14,-373.9 -469.29,-499.7 -18.64,-230.8 -140.77,-265.9 -312.71,-410.5 -344.75,-289.7 -243.8,-626.6 -55.39,-751.8 113.05,-75.2 312.39,-0.1 312.39,-0.1 2.82,-2 545.18,302.9 812.53,450 400.75,56.8 86.02,1074.7 -74.93,1170.6" /><path
         id="path262"
         style="fill:#ffb27d;fill-opacity:1;fill-rule:nonzero;stroke:none"
         d="m 9371.28,13199.2 c 1.18,-0.8 -131.53,-46 -220.24,-6.7 -83.46,36.9 -146.65,174.2 -145.41,174.3 37.98,1.8 79.67,34.9 111.85,252.8 l 16.17,-5.8 271.82,-98 c 0,0 -19.73,-87.2 -32.49,-170.2 -10.75,-69.8 -16.54,-136.6 -1.7,-146.4" /><path
         id="path264"
         style="fill:#ed975d;fill-opacity:1;fill-rule:nonzero;stroke:none"
         d="m 9405.47,13515.8 c 0,0 -10.86,-47 -26.72,-134.9 -156.14,28.1 -223.14,148.4 -245.1,232.9 l 271.82,-98" /><path
         id="path266"
         style="fill:#ffb27d;fill-opacity:1;fill-rule:nonzero;stroke:none"
         d="m 9445.93,13429.2 c 0,0 -371.94,50.1 -337.2,281.2 34.74,231.2 10.12,393.3 249.06,371.1 238.94,-22.2 271.72,-117.3 278.89,-197.3 7.17,-79.9 -93.11,-462 -190.75,-455" /><path
         id="path268"
         style="fill:#233862;fill-opacity:1;fill-rule:nonzero;stroke:none"
         d="m 9623.17,14011 c 0,0 -238.17,-205.2 -400.14,-221.6 -161.97,-16.5 -223.26,35.5 -223.26,35.5 0,0 95.48,79.2 152.97,207.1 16.95,37.7 52.75,63.6 93.92,67.1 115.64,9.9 334.88,14.4 376.51,-88.1" /><path
         id="path270"
         style="fill:#233862;fill-opacity:1;fill-rule:nonzero;stroke:none"
         d="m 9474.34,14029.4 c 0,0 79.62,-77.1 104.69,-134.2 24.19,-55.1 31.4,-187 12.11,-239.3 0,0 124.19,241.2 53.96,358.5 -74.46,124.4 -170.76,15 -170.76,15" /><path
         id="path272"
         style="fill:#f99746;fill-opacity:1;fill-rule:nonzero;stroke:none"
         d="m 9684.3,12651.1 c -11.51,-752.9 -3.29,-595.5 -85.68,-667 -19.85,-17.2 -75.64,-27.4 -149.07,-32.2 -230.88,-15.3 -636.71,22.9 -652.13,65.6 -53.2,147.6 -15.59,193.5 -59.94,419.5 -4.62,24.1 -10.35,50.1 -17.06,78.4 -36.99,155.3 -73.03,208.1 58.48,457.4 119.26,225.9 243.14,409.2 254.27,402.6 314.38,-186.8 339.79,-29.9 339.79,-29.9 0,0 316.98,-327.1 311.34,-694.4" /><path
         id="path274"
         style="fill:#2a4e96;fill-opacity:1;fill-rule:nonzero;stroke:none"
         d="m 10489.5,10709.4 -241.9,-650.4 c 0,0 -65.6,-6.3 -128.4,11.8 -57.9,16.7 -124.21,60.5 -124.21,60.5 0,0 67.31,698.4 192.71,1099.3 l 301.8,-521.2" /><path
         id="path276"
         style="fill:#f99746;fill-opacity:1;fill-rule:nonzero;stroke:none"
         d="m 9372.98,13345.6 c 0,0 323.53,-55 361.47,-194.3 37.95,-139.4 162.73,-984.9 162.73,-984.9 0,0 -91.27,-89.1 -167.23,-13.1 -75.96,76 -238.86,791.2 -238.86,791.2 l -118.11,401.1" /><path
         id="path278"
         style="fill:#ed7d2b;fill-opacity:1;fill-rule:nonzero;stroke:none"
         d="m 9449.55,11951.9 c -230.88,-15.3 -636.71,22.9 -652.13,65.6 -53.2,147.6 -15.59,193.5 -59.94,419.5 l 111.47,313.6 c 0,0 -18.54,-349.2 84.4,-441.1 102.84,-91.9 421.55,-177.4 471.58,-254.2 24.13,-36.8 40,-73.8 44.62,-103.4" /><path
         id="path280"
         style="fill:#ffb27d;fill-opacity:1;fill-rule:nonzero;stroke:none"
         d="m 9185.08,12098.8 c 0,0 227.79,50.7 264.53,30.4 36.75,-20.2 126.54,-93.8 137.78,-119.4 11.23,-25.7 -81.82,19.4 -112.09,27.6 -19.6,5.2 -71.21,-12.7 -96.76,-21.2 -107.5,-35.8 -173.37,-17.3 -173.37,-17.3 l -20.09,99.9" /><path
         id="path282"
         style="fill:#f99746;fill-opacity:1;fill-rule:nonzero;stroke:none"
         d="m 9032.98,13375.6 c 0,0 -305.84,-18.8 -411.76,-166.4 -149.11,-207.8 -445.06,-1093.6 -275.66,-1211.8 190.77,-133.1 868.42,-35.1 868.42,-35.1 0,0 22.59,105.4 -8.77,156.4 -31.35,51 -541.18,133.5 -564.7,157.1 -23.53,23.5 294.3,458.7 294.32,529.3 0.03,70.6 98.15,570.5 98.15,570.5" /><path
         id="path284"
         style="fill:#ffb27d;fill-opacity:1;fill-rule:nonzero;stroke:none"
         d="m 9460.62,12065.8 c 0,0 47.7,-61.5 63.34,-68.9 15.64,-7.3 25.75,-5.5 25.75,-5.5 l -32.14,57.9 -56.95,16.5" /><path
         id="path286"
         style="fill:#ffb27d;fill-opacity:1;fill-rule:nonzero;stroke:none"
         d="m 9449.61,12129.2 138.73,-67.4 c 0,0 -5.9,-9.6 -22.99,-8.9 -17.08,0.8 -60.17,16.6 -60.17,16.6 l -55.57,59.7" /><path
         id="path288"
         style="fill:#233862;fill-opacity:1;fill-rule:nonzero;stroke:none"
         d="m 10634.4,11970.4 -1449.37,0.5 -0.01,-32 1436.48,-0.5 12.9,32" /><path
         id="path290"
         style="fill:#233862;fill-opacity:1;fill-rule:nonzero;stroke:none"
         d="m 9523.94,11938.8 1097.56,-0.4 330.5,821 -1095.91,0.4 -332.15,-821" /><path
         id="path292"
         style="fill:#ffffff;fill-opacity:1;fill-rule:nonzero;stroke:none"
         d="m 10344.6,12349.1 c 8.3,28.8 -8.4,52.2 -37.3,52.2 -28.8,0.1 -58.9,-23.3 -67.2,-52.2 -8.3,-28.8 8.4,-52.2 37.2,-52.3 28.9,0 59,23.4 67.3,52.3" /><g
         transform="scale(1.15389)"
         id="g294"><path
           id="path296"
           style="fill:#163560;fill-opacity:1;fill-rule:nonzero;stroke:none"
           d="m 15402.4,7663.3 c -128.1,42.55 -216.8,-11.09 -216.8,-11.09 -368.9,-15.17 -382.6,-393.37 -339.3,-534.11 60.8,-197.68 -154.4,-353.5 84.2,-433.49 277,-92.82 509.5,17.24 493.6,-30.51 875.9,-69.07 269.8,912.48 -21.7,1009.2" /></g><g
         transform="scale(1.06326)"
         id="g298"><path
           id="path300"
           style="fill:#f99746;fill-opacity:1;fill-rule:nonzero;stroke:none"
           d="m 16300,6320.35 c 0,0 -38.1,-75.33 -107,-161.86 -83.3,-104.21 -519.7,143.05 -482.2,161.86 37.6,18.81 257,650.83 309.2,730.21 52.3,79.47 230.2,120.66 230.2,120.66 l 49.8,-850.87" /></g><g
         transform="scale(1.16722)"
         id="g302"><path
           id="path304"
           style="fill:#1f447f;fill-opacity:1;fill-rule:nonzero;stroke:none"
           d="m 16190.3,1874.71 c 0,0 109.7,-100.24 88.3,-171.35 -21.4,-71.19 -120.5,-118.66 -133.8,-205.61 -13.5,-86.96 -67,-134.43 -115.2,-134.43 -48.2,0 -229.8,0 -229.8,0 0,0 -35.4,61.17 50.2,79.68 85.7,18.42 118,120.63 112.7,215.56 -5.4,94.84 8,221.38 8,221.38 l 182,42.15 37.6,-47.38" /></g><g
         transform="scale(1.09566)"
         id="g306"><path
           id="path308"
           style="fill:#1c3154;fill-opacity:1;fill-rule:nonzero;stroke:none"
           d="m 16257.9,1951.79 c 0,0 42.1,-452.06 -9.2,-477.34 l -656.9,1.37 c 0,0 0,75.85 105.5,92.64 105.5,16.88 290.8,78.67 322.2,216.3 31.4,137.55 238.4,167.03 238.4,167.03" /></g><g
         transform="scale(1.12747)"
         id="g310"><path
           id="path312"
           style="fill:#f99746;fill-opacity:1;fill-rule:nonzero;stroke:none"
           d="m 16290.4,6256.77 c 0,0 9.6,-134.1 0,-295.08 -6.3,-106.7 -114.2,-249.59 -129.5,-284.89 -38.5,-88.69 -81.7,-103.15 -81.7,-103.15 l -335.2,-82.13 -117.9,-28.83 -371.7,110.96 c 0,0 -169.2,472.56 -101.3,738.56 67.9,265.99 171.8,450.66 171.8,450.66 0,0 252.6,56.76 698.2,25.18 l 267.3,-531.28" /></g><g
         transform="scale(1.12901)"
         id="g314"><path
           id="path316"
           style="fill:#ed7d2b;fill-opacity:1;fill-rule:nonzero;stroke:none"
           d="m 16300,5949.8 c -6.3,-106.55 -146,-245.52 -161.2,-280.77 -38.4,-88.58 -81.7,-103.01 -81.7,-103.01 l -334.7,-82.02 -60.5,173.25 c 0,0 489.1,128.43 410.5,581.12 L 16300,5949.8" /></g><g
         transform="scale(1.10356)"
         id="g318"><path
           id="path320"
           style="fill:#233862;fill-opacity:1;fill-rule:nonzero;stroke:none"
           d="m 15609,5621.15 c 0,0 -188.1,-585.38 -200.2,-784.64 -12.1,-199.26 359.5,-2831.01 374.4,-2922.8 14.2,-86.63 121.6,-141.72 121.6,-141.72 0,0 49.4,-29.18 120,-9.25 97.9,27.64 128.9,60.72 128.9,60.72 0,0 146.3,1876.91 55.7,2547.38 -90.5,670.46 -91.6,1250.31 -91.6,1250.31 H 15609" /></g><g
         transform="scale(1.15667)"
         id="g322"><path
           id="path324"
           style="fill:#2a4e96;fill-opacity:1;fill-rule:nonzero;stroke:none"
           d="m 15652.4,5379.64 c 0,0 273.7,-367.17 299.2,-615.38 25.5,-248.3 40,-1120.19 94.4,-1362.18 54.3,-241.99 254,-707.63 254,-1462.47 0,0 -20.7,-43.23 -84.8,-66.22 -20.5,-7.44 -48,-14.53 -74.6,-20.67 -52.9,-12.1 -107.1,13.67 -131.3,62.25 -135,271.9 -565.1,1148.64 -587.2,1330.63 -15.5,128.82 -151.3,981.26 -447.5,1481.48 -71.2,120.09 43.6,597.67 43.6,597.67 l 634.2,54.89" /></g><g
         transform="scale(1.11352)"
         id="g326"><path
           id="path328"
           style="fill:#233862;fill-opacity:1;fill-rule:nonzero;stroke:none"
           d="m 15439.6,5660.42 c 0,0 74.8,-59.18 223.4,-62.24 177.6,-3.5 617.5,45.27 617.5,45.27 0,0 19.5,-54.6 18.8,-112.26 0,0 -537.3,-135.52 -848.7,-19.76 0,0 -40.1,75.53 -11,148.99" /></g><g
         transform="scale(1.07263)"
         id="g330"><path
           id="path332"
           style="fill:#ffffff;fill-opacity:1;fill-rule:nonzero;stroke:none"
           d="m 16215.9,5815.32 c -30.9,0 -56.2,-30.2 -56.2,-67.31 0,-37.11 25.3,-67.31 56.2,-67.31 31.1,0 56.2,30.2 56.2,67.31 0,37.11 -25.1,67.31 -56.2,67.31 z m 0,-162.5 c -46.3,0 -84.1,42.7 -84.1,95.19 0,52.49 37.8,95.19 84.1,95.19 46.4,0 84.1,-42.7 84.1,-95.19 0,-52.49 -37.7,-95.19 -84.1,-95.19" /></g><g
         transform="scale(1.09361)"
         id="g334"><path
           id="path336"
           style="fill:#b5453c;fill-opacity:1;fill-rule:nonzero;stroke:none"
           d="m 16300,5374.57 -822.2,-7.68 -404.6,950.79 822.3,7.68 404.5,-950.79" /></g><g
         transform="scale(1.0864)"
         id="g338"><path
           id="path340"
           style="fill:#ffb27d;fill-opacity:1;fill-rule:nonzero;stroke:none"
           d="m 16300,5842.79 -60.7,74.56 c 0,0 -41,36.63 -70.8,42.8 -29.8,6.26 -92.7,42.53 -98.8,32.31 -6.1,-10.22 48.3,-83.12 48.3,-83.12 l 2.8,-0.46 c -62.5,-46.95 -220.3,-5.52 -239.7,-24.67 -23.7,-23.19 32.5,-73.45 62.6,-101.71 30.1,-28.17 116.1,-75.2 183.3,-54.31 48.9,15.28 126.1,30.84 126.1,30.84 l 46.9,83.76" /></g><g
         transform="scale(1.02333)"
         id="g342"><path
           id="path344"
           style="fill:#ffb27d;fill-opacity:1;fill-rule:nonzero;stroke:none"
           d="m 16174.5,6572.85 c 0,0 55.2,62.74 90.4,32.64 35.1,-30.1 -9.2,-178.25 -42.7,-163.2 -33.4,15.05 -66.9,112.19 -47.7,130.56" /></g><g
         transform="scale(1.15966)"
         id="g346"><path
           id="path348"
           style="fill:#f99746;fill-opacity:1;fill-rule:nonzero;stroke:none"
           d="m 15578.3,6599.63 c 0,0 222,-24.49 381.3,-313.89 125.6,-228.26 340.4,-648.99 259.3,-767.9 -35.6,-52.17 -376.5,-237.83 -1034.2,-131.68 0,0 10.3,83.05 63.3,121.59 0,0 553.6,177.64 552.6,213 -1.8,66.91 -74.7,124.69 -384,433.92 -84,84.16 161.7,444.96 161.7,444.96" /></g><g
         transform="scale(1.09671)"
         id="g350"><path
           id="path352"
           style="fill:#ffb27d;fill-opacity:1;fill-rule:nonzero;stroke:none"
           d="m 16291.9,6966.04 c 8.1,10.86 -2.3,45.32 -15.2,109.52 -11.7,58.17 -31.5,148.17 -31,249.38 l -17.4,-2.92 -290.8,-48.96 c 0,0 6.5,-77.78 6.7,-151 l 0.1,-1.83 c 0.3,-63.64 -17.2,-159.84 4.3,-172.42 110.1,-64.56 312.3,-23.44 343.3,18.23" /></g><g
         transform="scale(1.09188)"
         id="g354"><path
           id="path356"
           style="fill:#e8945b;fill-opacity:1;fill-rule:nonzero;stroke:none"
           d="m 16007.8,7305.18 c 0,0 5.8,-110.18 6,-183.72 163.6,3.94 250.8,162.65 286.2,232.9 l -292.2,-49.18" /></g><g
         transform="scale(1.09679)"
         id="g358"><path
           id="path360"
           style="fill:#ffb27d;fill-opacity:1;fill-rule:nonzero;stroke:none"
           d="m 15918.7,7141.78 c 0,0 381.3,54.25 343.8,291.22 -37.4,236.96 -13.5,403.54 -258.5,378.92 -245,-24.71 -278,-122.54 -284.7,-204.69 -6.7,-82.15 99.3,-473.47 199.4,-465.45" /></g><g
         transform="scale(1.10173)"
         id="g362"><path
           id="path364"
           style="fill:#163560;fill-opacity:1;fill-rule:nonzero;stroke:none"
           d="m 15758.9,7755.17 c 0,0 147.6,-260.23 313.3,-275.75 165.5,-15.61 227.8,38.03 227.8,38.03 0,0 -137.5,77.52 -189.8,242.71 0,0 -294.2,139.15 -351.3,-4.99" /></g><g
         transform="scale(1.06713)"
         id="g366"><path
           id="path368"
           style="fill:#163560;fill-opacity:1;fill-rule:nonzero;stroke:none"
           d="m 16300,7987.6 c 0,0 -74.6,-42.26 -98,-105.33 -23,-61.75 -38.3,-141.03 -17.3,-232.02 0,0 -111.6,181.32 -38.5,305.58 77.6,131.85 153.8,31.77 153.8,31.77" /></g><g
         transform="scale(1.63421)"
         id="g370"><path
           id="path372"
           style="fill:#233862;fill-opacity:1;fill-rule:nonzero;stroke:none"
           d="M 16282.3,950.859 H 2095.92 c -9.75,0 -17.73,8.015 -17.73,17.746 v 10.218 c 0,9.791 7.98,17.746 17.73,17.746 H 16282.3 c 9.7,0 17.7,-7.955 17.7,-17.746 v -10.218 c 0,-9.731 -8,-17.746 -17.7,-17.746" /></g></g></g></svg>