<?xml version="1.0" encoding="UTF-8" standalone="no"?>
<svg
   xmlns:dc="http://purl.org/dc/elements/1.1/"
   xmlns:cc="http://creativecommons.org/ns#"
   xmlns:rdf="http://www.w3.org/1999/02/22-rdf-syntax-ns#"
   xmlns:svg="http://www.w3.org/2000/svg"
   xmlns="http://www.w3.org/2000/svg"
   viewBox="0 0 600 600"
   height="600"
   width="600"
   xml:space="preserve"
   id="svg2"
   version="1.1"><metadata
     id="metadata8"><rdf:RDF><cc:Work
         rdf:about=""><dc:format>image/svg+xml</dc:format><dc:type
           rdf:resource="http://purl.org/dc/dcmitype/StillImage" /></cc:Work></rdf:RDF></metadata><defs
     id="defs6" /><g
     transform="matrix(1.3333333,0,0,-1.3333333,0,600)"
     id="g10"><g
       transform="scale(0.1)"
       id="g12"><path
         id="path14"
         style="fill:#3f90a8;fill-opacity:1;fill-rule:nonzero;stroke:none"
         d="m 772.438,1058.21 c 0,0 -187.641,-149.819 -12.157,-337.269 l 846.019,249.18 -833.862,88.089" /><path
         id="path16"
         style="fill:#3f90a8;fill-opacity:1;fill-rule:nonzero;stroke:none"
         d="M 3653.1,989.43 2159.22,532.691 760.227,720.871 852.254,750.18 2268.22,1204.16 h 1.02 l 665.6,-139.15 649.88,-68.381 68.38,-7.199" /><path
         id="path18"
         style="fill:#f4f1e5;fill-opacity:1;fill-rule:nonzero;stroke:none"
         d="m 3637.68,1258.84 -76.61,-38.05 76.09,27.25 -0.52,-22.11 -287.92,-122.87 287.41,112.08 -4.11,-112.6 -110.54,-48.33 110.02,29.31 -2.57,-71.47 -44.21,-15.421 -1420.88,-431.039 -3.59,0.519 -1307.996,184.071 -68.379,9.769 c -35.984,88.43 -29.301,181.492 10.281,278.151 l 1474.064,166.06 h 1.02 l 1300.05,78.33 69.41,7.71 -1.02,-31.36" /><path
         id="path20"
         style="fill:#f8dcc2;fill-opacity:1;fill-rule:nonzero;stroke:none"
         d="M 793.926,1038.34 2325.65,1378.66 3638.83,1290.04 2192.89,850.328 793.926,1038.34" /><path
         id="path22"
         style="fill:#f1be94;fill-opacity:1;fill-rule:nonzero;stroke:none"
         d="m 2170.94,853.281 -1377.014,185.059 47.621,10.58 1329.853,-178.709 1419.64,423.059 46.81,-3.16 -68.56,-7.62 -294.19,-100.84 -698.97,-208.298 -404.57,-103.383 -0.62,-16.688 M 3638.7,1290 v 0.05 l 0.13,-0.01 -0.13,-0.04" /><path
         id="path24"
         style="fill:#3f90a8;fill-opacity:1;fill-rule:nonzero;stroke:none"
         d="m 772.438,1058.21 1427.072,303.31 c 69.14,24.46 142.28,35.66 215.57,33.01 L 3664.13,1315.05 2171.4,870.211 772.438,1058.21" /><path
         id="path26"
         style="fill:#3d7c80;fill-opacity:1;fill-rule:nonzero;stroke:none"
         d="m 2159.22,532.691 1.03,33.418 3.59,-0.519 1420.88,431.039 68.38,-7.199 -1493.88,-456.739" /><path
         id="path28"
         style="fill:#edd0ae;fill-opacity:1;fill-rule:nonzero;stroke:none"
         d="m 2163.84,565.59 -3.59,0.519 10.69,287.172 21.95,-2.953 516.52,157.072 225.43,57.61 282.99,97.01 420.87,127.98 -1.02,-31.16 -76.61,-38.05 76.09,27.25 -0.52,-22.11 -287.92,-122.87 287.41,112.08 -4.11,-112.6 -110.54,-48.33 110.02,29.31 -2.57,-71.47 -44.21,-15.421 L 2163.84,565.59" /><path
         id="path30"
         style="fill:#edd0ae;fill-opacity:1;fill-rule:nonzero;stroke:none"
         d="m 3638.7,1290.05 -0.85,0.06 0.85,0.09 v -0.15" /><path
         id="path32"
         style="fill:#f1be94;fill-opacity:1;fill-rule:nonzero;stroke:none"
         d="m 2192.89,850.328 -21.95,2.953 v 0 l 1.58,-0.211 403.61,120.282 133.28,34.048 -516.52,-157.072 m 1024.94,311.692 57.27,19.63 363.6,108.35 v 0 l -420.87,-127.98" /><path
         id="path34"
         style="fill:#eaa471;fill-opacity:1;fill-rule:nonzero;stroke:none"
         d="m 2172.52,853.07 -1.58,0.211 0.62,16.688 404.57,103.383 -403.61,-120.282 m 1102.58,328.58 294.19,100.84 68.56,7.62 0.85,-0.06 V 1290 l -363.6,-108.35" /><path
         id="path36"
         style="fill:#ec925d;fill-opacity:1;fill-rule:nonzero;stroke:none"
         d="m 703.445,1453.42 c 0,0 -187.629,-149.82 -12.148,-337.27 l 846.013,249.17 -833.865,88.1" /><path
         id="path38"
         style="fill:#ec925d;fill-opacity:1;fill-rule:nonzero;stroke:none"
         d="M 3584.11,1384.64 2090.23,927.898 691.238,1116.08 l 92.035,29.3 1415.957,454 h 1.02 l 665.6,-139.17 649.88,-68.37 68.38,-7.2" /><path
         id="path40"
         style="fill:#f4f1e5;fill-opacity:1;fill-rule:nonzero;stroke:none"
         d="m 3568.69,1654.05 -76.61,-38.05 76.1,27.25 -0.52,-22.1 -287.93,-122.89 287.41,112.08 -4.11,-112.6 -110.54,-48.32 110.02,29.3 -2.57,-71.46 -44.21,-15.42 -1420.87,-431.031 -3.6,0.511 -1307.987,184.06 -68.386,9.77 c -35.985,88.44 -29.301,181.5 10.285,278.15 l 1474.058,166.08 h 1.02 l 1300.05,78.33 69.41,7.7 -1.02,-31.36" /><path
         id="path42"
         style="fill:#f8dcc2;fill-opacity:1;fill-rule:nonzero;stroke:none"
         d="M 724.938,1433.55 2256.66,1773.87 3569.85,1685.25 2123.91,1245.54 724.938,1433.55" /><path
         id="path44"
         style="fill:#f1be94;fill-opacity:1;fill-rule:nonzero;stroke:none"
         d="m 2101.95,1248.49 -1377.012,185.06 47.632,10.58 1329.84,-178.71 37.16,11.07 4.77,-0.64 -41.76,-10.67 -0.63,-16.69" /><path
         id="path46"
         style="fill:#ec925d;fill-opacity:1;fill-rule:nonzero;stroke:none"
         d="m 703.445,1453.42 1427.085,303.32 c 69.14,24.45 142.28,35.65 215.56,33 l 1249.05,-79.48 -1492.73,-444.84 -1398.965,188" /><path
         id="path48"
         style="fill:#e67e47;fill-opacity:1;fill-rule:nonzero;stroke:none"
         d="m 2090.23,927.898 1.03,33.422 3.6,-0.511 1287.6,390.601 c 3.56,-1.2 7.1,-2.29 10.61,-3.25 17.27,-4.75 31.52,-7.47 43.6,-8.6 L 2090.23,927.898 M 3510.05,1362 c 2.19,1.58 4.42,3.19 6.71,4.82 7.92,5.5 13,13.9 12.93,23.55 l 54.42,-5.73 -74.06,-22.64" /><path
         id="path50"
         style="fill:#edd0ae;fill-opacity:1;fill-rule:nonzero;stroke:none"
         d="m 2094.86,960.809 -3.6,0.511 10.69,287.17 21.96,-2.95 75.36,22.92 105.25,-14.16 212.56,64.99 c 0.47,-0.91 0.95,-1.81 1.42,-2.7 v 0 0 l 0.07,-0.59 c 10.52,-19.79 18.9,-36.29 22.93,-40.56 40.32,-45.57 133.98,-69.49 172.32,-69.49 5.52,0 9.9,0.49 12.8,1.49 81.4,27.86 0.63,75.18 -50.21,148.06 -1.42,3.82 -2.76,7.57 -4.01,11.27 l 470.76,143.94 c -0.69,-12.03 -1.12,-21.99 -1.12,-28.08 0,-3.1 0.12,-5.2 0.37,-6.06 2.26,-7.91 5.14,-28.55 66.97,-45.5 v 0 0 0 0 l 2.01,-0.86 c 4.51,-1.4 9.54,-2.46 14.86,-3.76 17.9,-4.23 35.01,-11.01 50.54,-20.68 25.46,-15.57 66.88,-41.34 105.67,-54.36 L 2094.86,960.809 m 1434.11,435.641 c -1.99,8.74 -8.2,18.14 -20.16,27.13 -7.3,5.49 -22.01,16.43 -39.76,30.25 l 93.46,24.89 -2.57,-71.46 -30.97,-10.81 m -62.25,59.19 c -27.39,21.4 -61.42,49.23 -86.74,74.48 -1.74,1.74 -3.45,3.48 -5.13,5.24 l 192.29,74.98 -4.11,-112.6 -96.31,-42.1 m -94.23,82.21 c -11.2,11.94 -20.8,23.93 -28.43,34.28 l 155.25,47.46 -7.23,-3.59 26.37,9.45 49.66,15.18 -0.45,-19.48 -195.17,-83.3" /><path
         id="path52"
         style="fill:#f1be94;fill-opacity:1;fill-rule:nonzero;stroke:none"
         d="m 2123.91,1245.54 -21.96,2.95 v 0 l 1.59,-0.21 76.43,22.78 19.3,-2.6 -75.36,-22.92" /><path
         id="path54"
         style="fill:#eaa471;fill-opacity:1;fill-rule:nonzero;stroke:none"
         d="m 2103.54,1248.28 -1.59,0.21 0.63,16.69 41.76,10.67 35.63,-4.79 -76.43,-22.78" /><path
         id="path56"
         style="fill:#a64c49;fill-opacity:1;fill-rule:nonzero;stroke:none"
         d="m 917.734,1779.82 c 0,0 -187.629,-149.82 -12.148,-337.28 l 846.014,249.19 -833.866,88.09" /><path
         id="path58"
         style="fill:#a64c49;fill-opacity:1;fill-rule:nonzero;stroke:none"
         d="M 3798.4,1711.04 2304.52,1254.3 905.531,1442.48 l 92.028,29.31 1415.971,453.99 h 1.02 l 665.59,-139.16 649.88,-68.38 68.38,-7.2" /><path
         id="path60"
         style="fill:#f4f1e5;fill-opacity:1;fill-rule:nonzero;stroke:none"
         d="m 3782.98,1980.45 -76.61,-38.04 76.1,27.24 -0.52,-22.1 -287.93,-122.89 287.41,112.09 -4.11,-112.6 -110.54,-48.33 110.03,29.31 -2.58,-71.47 -44.21,-15.42 -1420.87,-431.03 -3.6,0.51 -1307.991,184.07 -68.379,9.76 c -35.985,88.44 -29.301,181.5 10.281,278.16 l 1474.069,166.07 h 1.02 l 1300.05,78.32 69.41,7.71 -1.03,-31.36" /><path
         id="path62"
         style="fill:#f8dcc2;fill-opacity:1;fill-rule:nonzero;stroke:none"
         d="M 939.23,1759.95 2470.95,2100.27 3784.14,2011.65 2338.2,1571.94 939.23,1759.95" /><path
         id="path64"
         style="fill:#f1be94;fill-opacity:1;fill-rule:nonzero;stroke:none"
         d="m 2316.25,1574.89 -1377.02,185.06 47.633,10.58 1329.837,-178.71 167.78,49.99 47.04,7.39 c -0.71,-1.12 -1.42,-2.23 -2.11,-3.31 l -212.54,-54.31 -0.62,-16.69" /><path
         id="path66"
         style="fill:#a64c49;fill-opacity:1;fill-rule:nonzero;stroke:none"
         d="m 917.734,1779.82 1427.076,303.32 c 69.15,24.45 142.28,35.65 215.57,33.01 l 1249.06,-79.49 -1492.74,-444.84 -1398.966,188" /><path
         id="path68"
         style="fill:#a14238;fill-opacity:1;fill-rule:nonzero;stroke:none"
         d="m 2304.52,1254.3 1.03,33.42 3.6,-0.51 193.6,58.73 c 4.98,-9.02 9.82,-18.12 14.33,-26.65 l -212.56,-64.99 m 367.88,112.47 c -3.32,9.76 -6.1,19.13 -8.41,28.08 l 481.11,145.95 c -0.74,-10.7 -1.41,-20.99 -1.94,-30.09 L 2672.4,1366.77 m 671.66,205.36 c -0.88,1.19 -1.72,2.35 -2.55,3.49 -0.09,0.21 -0.15,0.32 -0.15,0.32 -0.41,0.53 -0.82,1.06 -1.22,1.59 -1.86,2.61 -3.58,5.09 -5.14,7.39 1.71,1.75 3.13,3.57 4.25,5.46 -0.39,2.58 -0.7,5.6 -0.94,9.03 l 391.71,118.83 68.38,-7.2 -230.29,-70.41 -49.66,-15.18 -174.39,-53.32" /><path
         id="path70"
         style="fill:#edd0ae;fill-opacity:1;fill-rule:nonzero;stroke:none"
         d="m 2309.15,1287.21 -3.6,0.51 10.7,287.17 21.95,-2.95 178.73,54.35 c -5.79,-9.09 -8.92,-14.03 -8.92,-14.03 -4.6,-6.55 -5.57,-14.72 -3.73,-23.82 -38.5,-31.37 -80.89,-67.38 -85.87,-77.71 -1.44,-3 -2.1,-7.08 -2.1,-11.92 0,-26.53 20.06,-75.71 43.09,-91.35 12.39,-8.51 28.51,-34.67 43.35,-61.52 l -193.6,-58.73 m 354.84,107.64 c -4.17,16.18 -6.8,31.06 -8.35,44.63 -1.1,9.73 -1.65,18.77 -1.8,27.1 10.22,0.62 18.55,4.92 23.48,13.8 8.86,15.83 125.91,113.37 244.04,230.07 l 194.16,30.5 c 12.37,-76.52 23.71,-147.93 30.28,-190.3 -0.24,-3.3 -0.47,-6.6 -0.7,-9.85 l -481.11,-145.95 m 481.96,157.88 c -0.34,4.56 -0.57,9.51 -0.72,14.82 0.48,-0.65 1.04,-1.28 1.67,-1.89 -0.32,-4.29 -0.64,-8.62 -0.95,-12.93 m 192.36,46.68 c -2.19,31.24 1.58,96.67 6.85,177.62 l 432.93,68.01 -0.77,-20.89 -110.54,-48.33 110.03,29.31 -2.58,-71.47 -44.21,-15.42 -391.71,-118.83" /><path
         id="path72"
         style="fill:#f1be94;fill-opacity:1;fill-rule:nonzero;stroke:none"
         d="m 2338.2,1571.94 -21.95,2.95 v 0 l 1.57,-0.21 205.17,61.14 c -2.26,-3.55 -4.29,-6.74 -6.06,-9.53 l -178.73,-54.35" /><path
         id="path74"
         style="fill:#eaa471;fill-opacity:1;fill-rule:nonzero;stroke:none"
         d="m 2317.82,1574.68 -1.57,0.21 0.62,16.69 212.54,54.31 c -2.31,-3.62 -4.45,-6.98 -6.42,-10.07 l -205.17,-61.14" /><path
         id="path76"
         style="fill:#3f90a8;fill-opacity:1;fill-rule:nonzero;stroke:none"
         d="m 3827.69,1852.84 -111.5,24.8 -785.76,176.05 57.32,8.75 84.4,13.32 103.34,16.57 530,83.33 69.58,10.73 c 0,0 204.16,-126.45 52.62,-333.55" /><path
         id="path78"
         style="fill:#3f90a8;fill-opacity:1;fill-rule:nonzero;stroke:none"
         d="m 3827.69,1852.84 -1382.03,-217.12 -1545.672,285.79 677.642,147.18 56.61,13.86 310.72,129.93 311.6,76.52 327.08,-96.81 447.43,-104.02 36.92,-11.02 4.16,-1.39 5.2,-1.36 657.26,-194.04 93.08,-27.52" /><path
         id="path80"
         style="fill:#f8dcc2;fill-opacity:1;fill-rule:nonzero;stroke:none"
         d="m 1013.99,2003.66 -115.494,34.86 -17.48,111.24 298.864,-76.71 -300.54,87.37 -3.465,22.09 78.953,-18.39 -80.625,29 2901.067,-6.78 c 54.93,-206.45 49.73,-205.5 24.26,-297.24 l -1359.89,-214.5 -1527.05,274.28 -11.156,70.94 112.556,-16.16" /><path
         id="path82"
         style="fill:#f8dcc2;fill-opacity:1;fill-rule:nonzero;stroke:none"
         d="M 3756.32,2164.04 2199.91,2383.57 869.379,2223.83 2374.26,1946.77 3756.32,2164.04" /><path
         id="path84"
         style="fill:#f1be94;fill-opacity:1;fill-rule:nonzero;stroke:none"
         d="m 2396.31,1949.84 -1.18,0.21 1.12,0.17 0.06,-0.38" /><path
         id="path86"
         style="fill:#f1be94;fill-opacity:1;fill-rule:nonzero;stroke:none"
         d="m 3775.3,2186.24 c -0.05,0.04 -0.09,0.06 -0.13,0.09 l 0.1,0.01 0.03,-0.1" /><path
         id="path88"
         style="fill:#f1be94;fill-opacity:1;fill-rule:nonzero;stroke:none"
         d="m 2395.13,1950.05 -1525.751,273.78 48.762,5.85 1474.939,-260.58 3.17,-18.88 -1.12,-0.17" /><path
         id="path90"
         style="fill:#3f90a8;fill-opacity:1;fill-rule:nonzero;stroke:none"
         d="m 3775.27,2186.34 -1448.08,195.29 c -71.57,16.02 -145.52,18.38 -217.97,7 L 843.512,2242.87 2393.22,1969.07 3775.27,2186.34" /><path
         id="path92"
         style="fill:#3d7c80;fill-opacity:1;fill-rule:nonzero;stroke:none"
         d="m 3827.69,1852.84 v 0 l -89.76,26.54 61.6,9.72 c 25,90.04 30.46,90.81 -21.27,286.01 v 0 l -0.89,3.35 c -0.68,2.56 -1.37,5.16 -2.07,7.78 5.48,-3.47 108.42,-70.25 108.36,-183.94 -0.01,-43.32 -14.98,-93.44 -55.97,-149.46" /><path
         id="path94"
         style="fill:#3d7c80;fill-opacity:1;fill-rule:nonzero;stroke:none"
         d="m 2445.66,1635.72 v 0 l -6.02,38.88 120.25,18.97 c -11,-17.16 -20.55,-32.12 -28.37,-44.37 l -85.86,-13.48 m 475.7,74.73 c 15.76,15.57 31.52,31.45 47.06,47.56 l 140.73,22.19 c 2.14,-13.15 4.27,-26.27 6.37,-39.25 l -194.16,-30.5 m 423.8,66.58 c 0.86,13.22 1.77,26.85 2.69,40.82 l 390.08,61.53 89.76,-26.54 -482.53,-75.81" /><path
         id="path96"
         style="fill:#f1be94;fill-opacity:1;fill-rule:nonzero;stroke:none"
         d="m 2439.64,1674.6 v 0 l -43.33,275.24 68.61,11.18 299.85,47.14 c -17.66,-26.44 -35.04,-53.02 -52.02,-79.07 -16.43,-24.63 -32.3,-48.91 -47.66,-72.53 l -0.74,-1.26 c -40.63,-62.41 -77.03,-118.93 -104.46,-161.73 l -120.25,-18.97 m 528.78,83.41 c 43.97,45.54 86.08,92.66 120.55,137.94 4.92,-27.27 9.91,-55.15 14.78,-82.6 1.8,-11.02 3.61,-22.1 5.4,-33.15 l -140.73,-22.19 m 379.43,59.84 c 5.83,88.31 12.51,189.94 15.16,284.36 l 393.31,61.83 -24.64,3.48 46.58,7.59 c 51.73,-195.2 46.27,-195.97 21.27,-286.01 l -61.6,-9.72 -390.08,-61.53 m 429.52,360.61 -2.07,7.78 v 0 c 0.7,-2.62 1.39,-5.22 2.07,-7.78" /><path
         id="path98"
         style="fill:#f1be94;fill-opacity:1;fill-rule:nonzero;stroke:none"
         d="m 2464.92,1961.02 301.15,49.09 c -0.43,-0.65 -0.87,-1.3 -1.3,-1.95 l -299.85,-47.14 m 898.09,141.19 c 0.05,1.74 0.1,3.49 0.14,5.23 l 368.53,60.08 24.64,-3.48 -393.31,-61.83" /><path
         id="path100"
         style="fill:#eaa471;fill-opacity:1;fill-rule:nonzero;stroke:none"
         d="m 2396.31,1949.84 v 0 l -0.06,0.38 68.67,10.8 -68.61,-11.18" /><path
         id="path102"
         style="fill:#3b6b61;fill-opacity:1;fill-rule:nonzero;stroke:none"
         d="m 3778.26,2175.11 c -0.3,1.12 -0.59,2.22 -0.89,3.35 l 0.89,-3.35" /><path
         id="path104"
         style="fill:#eaa471;fill-opacity:1;fill-rule:nonzero;stroke:none"
         d="m 3731.68,2167.52 -40.14,5.66 83.63,13.15 c 0.04,-0.03 0.08,-0.05 0.13,-0.09 l 2.07,-7.78 c 0.3,-1.13 0.59,-2.23 0.89,-3.35 l -46.58,-7.59" /><path
         id="path106"
         style="fill:#eaa471;fill-opacity:1;fill-rule:nonzero;stroke:none"
         d="m 2396.25,1950.22 -3.17,18.88 0.14,-0.03 351.75,55.3 c 8.83,-2.06 17.68,-4.1 26.56,-6.12 v 0 c -0.31,-0.36 -2.18,-3.16 -5.36,-7.99 -0.03,-0.05 -0.06,-0.1 -0.1,-0.15 l -301.15,-49.09 -68.67,-10.8 m 966.9,157.22 c 0.13,4.75 0.24,9.46 0.35,14.17 l 328.04,51.57 40.14,-5.66 -368.53,-60.08" /><path
         id="path108"
         style="fill:#f8dcc2;fill-opacity:1;fill-rule:nonzero;stroke:none"
         d="m 3775.02,2186.38 h -0.01 l 0.06,0.01 -0.05,-0.01" /><path
         id="path110"
         style="fill:#3d7c80;fill-opacity:1;fill-rule:nonzero;stroke:none"
         d="m 3775.11,2186.36 -0.09,0.02 0.05,0.01 c 0,0 0.02,-0.01 0.04,-0.03" /><path
         id="path112"
         style="fill:#3d7c80;fill-opacity:1;fill-rule:nonzero;stroke:none"
         d="m 2393.22,1969.07 -0.14,0.03 -0.03,0.17 327.14,60.97 c 8.24,-1.98 16.5,-3.93 24.78,-5.87 l -351.75,-55.3 m 970.28,152.54 c 0.07,3.49 0.15,6.97 0.21,10.44 l 337.12,44.47 74.18,9.86 h 0.01 l 0.09,-0.02 c 0.01,0 0.03,-0.02 0.06,-0.03 l -83.63,-13.15 -328.04,-51.57" /><path
         id="path114"
         style="fill:#3b5765;fill-opacity:1;fill-rule:nonzero;stroke:none"
         d="m 3516.76,1366.82 c -29.74,-21.08 -47.33,-39.65 -123.69,-18.66 -41.66,11.45 -88.48,40.61 -116.28,57.61 -15.53,9.67 -32.64,16.45 -50.54,20.68 -5.32,1.3 -10.35,2.36 -14.86,3.76 l -2.01,0.86 c -61.83,16.95 -64.71,37.59 -66.97,45.5 -2.69,9.23 10.37,162.93 10.37,162.93 l 171.16,-37.22 c 0,0 21.62,-37.85 56.04,-72.16 42.69,-42.57 110.1,-92.46 128.83,-106.54 28.59,-21.5 24.36,-45.37 7.95,-56.76" /><path
         id="path116"
         style="fill:#7e362f;fill-opacity:1;fill-rule:nonzero;stroke:none"
         d="m 3341.51,1575.62 c -0.46,0.64 -0.92,1.28 -1.37,1.91 0.4,-0.53 0.81,-1.06 1.22,-1.59 0,0 0.06,-0.11 0.15,-0.32" /><path
         id="path118"
         style="fill:#2e4754;fill-opacity:1;fill-rule:nonzero;stroke:none"
         d="m 3209.38,1431.07 c -61.83,16.95 -64.71,37.59 -66.97,45.5 -0.25,0.86 -0.37,2.96 -0.37,6.06 0,12.1 1.71,39.47 3.76,68.02 0.27,-1.74 0.53,-3.44 0.79,-5.08 v 0 0 c -0.25,2.26 -0.46,4.65 -0.64,7.16 0.31,4.31 0.63,8.64 0.95,12.93 9.05,-8.68 33.26,-12.79 61.69,-12.79 47.2,0 106.03,11.34 126.27,31.9 1.58,-2.25 3.34,-4.67 5.28,-7.24 0.45,-0.63 0.91,-1.27 1.37,-1.91 1.59,-3.6 12.49,-37.08 -127.66,-47.1 -91.96,-6.57 -22.98,-87.84 -4.47,-97.45" /><path
         id="path120"
         style="fill:#ec925d;fill-opacity:1;fill-rule:nonzero;stroke:none"
         d="m 3364.08,2198.92 c -2.73,-67.78 -46.11,-88.5 -76,-140.55 -20.51,5.79 -51.45,9.82 -89.53,12.77 -35.57,2.96 -77.7,4.61 -123.15,5.88 -232.66,7.44 -557.2,3.9 -605.2,62.21 -12.95,15.59 -70.14,241.2 -79.27,257.5 -19.31,34.72 -29.52,70.48 -30.46,103.37 -1.46,59.68 26.66,110.12 83.93,130.32 32.5,11.8 74.83,13.24 125.77,0.57 10.42,-3.94 25.94,0.81 41.49,5.57 14.99,4.59 30.01,9.17 40.53,5.97 18.55,-5.72 36.85,-11.76 55.18,-18.06 44.74,-14.78 88.78,-30.76 132.05,-47.38 170.7,-65.09 339.45,-147.19 445.76,-205.49 65.61,-43.45 81.56,-106.55 78.9,-172.68" /><path
         id="path122"
         style="fill:#ec925d;fill-opacity:1;fill-rule:nonzero;stroke:none"
         d="m 3362.98,2246.11 c 8.77,-223.61 -33.89,-588.37 -23.73,-655.73 -23.93,-40.47 -191.21,-50.81 -196.04,-18.08 -3.38,26.73 -3.3,27.62 -3.74,31.48 -17.88,115.71 -84.1,482.05 -93.7,519.83 -0.1,0.82 0.3,2.27 1.25,3.77 7.76,15.42 60.98,58.94 118.91,102.98 75.96,57.55 196.36,33.25 197.05,15.75" /><path
         id="path124"
         style="fill:#e6ac82;fill-opacity:1;fill-rule:nonzero;stroke:none"
         d="m 3145.8,1550.65 c -6.57,42.37 -17.91,113.78 -30.28,190.3 l 0.93,0.15 c 9.82,-56.45 18.19,-106.05 23.02,-137.32 0.44,-3.86 0.36,-4.75 3.74,-31.48 0.25,-1.7 0.94,-3.28 2.02,-4.75 0.15,-5.31 0.38,-10.26 0.72,-14.82 -0.05,-0.69 -0.1,-1.38 -0.15,-2.08" /><path
         id="path126"
         style="fill:#3b6760;fill-opacity:1;fill-rule:nonzero;stroke:none"
         d="m 3115.52,1740.95 c -2.1,12.98 -4.23,26.1 -6.37,39.25 l 0.44,0.07 c 2.35,-13.33 4.64,-26.41 6.86,-39.17 l -0.93,-0.15" /><path
         id="path128"
         style="fill:#ea9e6e;fill-opacity:1;fill-rule:nonzero;stroke:none"
         d="m 3109.15,1780.2 c -1.79,11.05 -3.6,22.13 -5.4,33.15 1.97,-11.12 3.93,-22.18 5.84,-33.08 l -0.44,-0.07" /><path
         id="path130"
         style="fill:#2d3b3f;fill-opacity:1;fill-rule:nonzero;stroke:none"
         d="m 3146.59,1545.57 c -0.26,1.64 -0.52,3.34 -0.79,5.08 0.05,0.7 0.1,1.39 0.15,2.08 0.18,-2.51 0.39,-4.9 0.64,-7.16" /><path
         id="path132"
         style="fill:#f8d3be;fill-opacity:1;fill-rule:nonzero;stroke:none"
         d="m 2840.39,2576.72 c -0.32,0.12 -0.65,0.24 -0.97,0.37 0,0 0.4,-0.08 0.97,-0.37" /><path
         id="path134"
         style="fill:#e57945;fill-opacity:1;fill-rule:nonzero;stroke:none"
         d="m 3132.13,2204.27 c -15.42,18.6 -35.04,37.76 -59.44,57.48 v 0 c -0.69,0.81 -1.69,1.88 -2.96,2.62 -0.43,0.33 -0.86,0.65 -1.29,0.97 l 38.02,16.88 c 22.66,-17.65 42.84,-35 59.47,-51.86 -11.57,-8.79 -22.93,-17.56 -33.8,-26.09 m -356.37,259.69 c -12.15,7.73 -24.74,15.71 -37.8,23.97 -7.79,4.93 -16.38,10.38 -25.45,16.12 81.91,57.03 50.21,84.85 50.21,84.85 -10.51,6.77 -18.35,15.42 -24.14,25.03 34.04,-11.73 67.67,-24.1 100.84,-36.84 v 0 c 0.32,-0.13 0.65,-0.25 0.97,-0.37 3.27,-1.69 12.27,-10.53 -13.12,-53.44 -5.22,-8.82 -1.52,-23.46 5.99,-38.24 l -57.5,-21.08" /><path
         id="path136"
         style="fill:#e57945;fill-opacity:1;fill-rule:nonzero;stroke:none"
         d="m 3145.23,1567.55 c -1.08,1.47 -1.77,3.05 -2.02,4.75 -3.38,26.73 -3.3,27.62 -3.74,31.48 -4.83,31.27 -13.2,80.87 -23.02,137.32 v 0 c -2.22,12.76 -4.51,25.84 -6.86,39.17 -1.91,10.9 -3.87,21.96 -5.84,33.08 -4.69,28.69 -9.36,57.04 -13.82,83.87 36.36,47.93 64.09,93.79 76.37,133.59 22.36,51.61 19.13,109.2 -34.17,173.46 10.87,8.53 22.23,17.3 33.8,26.09 v 0 c 48.48,-49.19 62.54,-148.3 40.57,-221.9 -34.18,-114.54 -64.01,-340.91 -61.27,-440.91" /><path
         id="path138"
         style="fill:#f8c650;fill-opacity:1;fill-rule:nonzero;stroke:none"
         d="m 2889.2,3253.05 c -2.93,-17.12 -62.17,-266.1 -86.72,-369.06 v -0.49 c -6.13,-26.17 -10.13,-42.8 -10.13,-43.53 -53.1,6.85 -153.69,32.77 -195.85,85.35 -14.68,18.35 -22.15,40.11 -17.61,65.3 7.73,43.05 42.42,142.59 53.36,183.19 15.21,56.74 34.95,103.46 58.17,138.92 25.88,40.35 56.3,66.04 89.92,75.32 79.51,21.77 99.79,-22.49 114.73,-62.36 7.74,-21.28 -4,-63.1 -5.87,-72.64" /><path
         id="path140"
         style="fill:#fcc7a9;fill-opacity:1;fill-rule:nonzero;stroke:none"
         d="m 3040.54,2612.05 c 0,0 40.07,-41.98 61.06,-49.61 11,-3.99 27.23,-2.23 46.22,-0.47 17.27,1.6 36.83,3.2 56.82,0.47 41.98,-5.72 53.66,-62.92 61.06,-76.32 7.4,-13.39 9.3,-55.03 -33.51,-57.09 -18.51,-0.89 -38.04,10.79 -54.33,22.46 -21.39,15.33 -37.2,30.66 -37.83,17.55 16.22,-28.56 29.71,-45.35 9.28,-45.89 -20.44,-0.53 -52.25,59.13 -82.42,68.43 -30.17,9.3 -53.06,20.2 -60.69,38.85 -7.63,18.66 34.34,81.62 34.34,81.62" /><path
         id="path142"
         style="fill:#f8c650;fill-opacity:1;fill-rule:nonzero;stroke:none"
         d="m 2971.38,2519.58 c 0,0 -10.94,6.35 -29.08,16.63 l -0.8,0.49 c -78.98,44.75 -287.64,163.86 -310.58,177.07 -28.02,16.14 -71.51,72.64 -85.12,92.69 3.2,51.6 22.68,92.7 50.7,118.86 53.63,49.65 138.74,45.74 205.98,-41.82 0.27,-0.73 260.15,-272.21 269.49,-279.54 10.14,-8.08 -62.21,-101.4 -100.59,-84.38" /><path
         id="path144"
         style="fill:#f8c650;fill-opacity:1;fill-rule:nonzero;stroke:none"
         d="m 2573.22,3472.99 -24.83,35.13 c 0,0 33.02,27.58 73.72,10.38 l -48.89,-45.51" /><path
         id="path146"
         style="fill:#f19a19;fill-opacity:1;fill-rule:nonzero;stroke:none"
         d="m 2557.84,3514.3 c 2.47,1.35 5.37,2.79 8.65,4.13 -3.34,-1.43 -6.34,-2.91 -8.65,-4.13" /><path
         id="path148"
         style="fill:#3b5765;fill-opacity:1;fill-rule:nonzero;stroke:none"
         d="m 2956.38,3710.47 c -74.04,-63.29 -83.67,-169.98 -226.03,-169.98 -142.36,0 -117.31,-35.25 -158.94,52.81 -40.56,85.82 -42.87,131.89 -49.3,215.71 -3.18,41.42 43.67,103.48 136.24,129.57 106.91,65.72 197.49,-0.18 252.43,-12.47 80.47,-18 87.45,-67.55 77.45,-96.78 0.8,-75.38 -6.72,-80.53 -31.85,-118.86" /><path
         id="path150"
         style="fill:#ec925d;fill-opacity:1;fill-rule:nonzero;stroke:none"
         d="m 3072.69,2261.75 c 0.86,-7.58 -35.24,-93.29 -68.42,-168.31 -1.88,-4.35 -3.75,-8.7 -5.91,-13.09 -23.95,-54.75 -45.06,-100.61 -46.52,-100.78 -45.99,9.27 -91.4,18.61 -136.04,28.92 -14.83,3.05 -29.37,6.13 -44.27,9.76 -176.04,40.05 -343.56,88.46 -509.71,161.27 -138.74,60.54 -191.96,206.48 -176.44,299.01 1.73,10.84 3.52,21.1 5.09,30.74 25.41,151.31 26.94,148.23 225.55,138.53 35.95,-1.53 129.36,-42.98 164.62,-54.05 40.21,-13.03 56.39,-10.62 68.7,-8.22 15.23,2.96 24.55,5.93 66.1,-20.25 4.45,-2.75 8.94,-5.79 13.39,-8.53 36.58,-22.76 70.05,-44.1 100.95,-63.65 140.13,-88.48 226.79,-146.06 296.73,-196.96 3.18,-2.01 6.4,-4.3 9.32,-6.64 11.61,-8.43 22.92,-16.91 33.9,-25.13 1.27,-0.74 2.27,-1.81 2.96,-2.62" /><path
         id="path152"
         style="fill:#3b5765;fill-opacity:1;fill-rule:nonzero;stroke:none"
         d="m 2726.62,1207.44 c -23.05,-7.94 -139,15.87 -185.12,68 -4.03,4.27 -12.41,20.77 -22.93,40.56 l -0.07,0.59 c -18.09,34.32 -42.1,79.2 -59.1,90.87 -27.23,18.49 -50.32,83.88 -40.99,103.27 9.33,19.39 150.34,129.11 150.34,129.11 l 94.49,-105.77 c 0,0 -14.45,-34.17 -7.6,-94.59 2.72,-23.94 8.85,-51.92 20.77,-83.98 50.84,-72.88 131.61,-120.2 50.21,-148.06" /><path
         id="path154"
         style="fill:#2e4754;fill-opacity:1;fill-rule:nonzero;stroke:none"
         d="m 2518.5,1316.59 c -4.9,9.3 -10.24,19.37 -15.75,29.35 -14.84,26.85 -30.96,53.01 -43.35,61.52 -23.03,15.64 -43.09,64.82 -43.09,91.35 0,4.84 0.66,8.92 2.1,11.92 4.98,10.33 47.37,46.34 85.87,77.71 6.87,-33.88 52.83,-80.72 96.38,-105.34 15.93,-9.01 31.55,-15.05 44.8,-16.39 v 0 0 0 0 l 0.58,0.06 c 1.76,-0.18 3.48,-0.27 5.16,-0.27 0.89,0 1.77,0.03 2.64,0.08 0.15,-8.33 0.7,-17.37 1.8,-27.1 -4.73,-1.45 -10.55,-2.44 -17.59,-2.44 -18,0 -43.97,6.48 -80.25,28.29 -27.78,16.7 -47.13,22.81 -60.52,22.81 -29.29,0 -30.04,-29.2 -27.95,-40.53 3.1,-16.79 30,-76.72 49.17,-131.02" /><path
         id="path156"
         style="fill:#ec925d;fill-opacity:1;fill-rule:nonzero;stroke:none"
         d="m 3166.3,2030.81 c -58.8,-190.58 -472.02,-520.12 -488.98,-550.43 -6.14,-11.05 -17.52,-15.01 -31.28,-13.61 l -0.58,-0.06 c -59.22,5.99 -165.45,105.7 -137.45,145.55 0,0 68.21,107.67 156.34,243.04 l 0.74,1.26 c 15.36,23.62 31.23,47.9 47.66,72.53 19.14,29.37 38.79,59.4 58.78,89.16 2.03,2.89 4.04,6.07 6.33,9.29 18.66,28.43 37.6,56.9 56.36,84.46 5.24,18.92 106.28,212.52 111.29,233.49 30.28,-16.67 57.27,-33.12 81,-49.35 3.18,-2.01 6.4,-4.3 9.32,-6.64 11.61,-8.43 22.92,-16.91 33.9,-25.13 1.27,-0.74 2.27,-1.81 2.96,-2.62 108.72,-87.89 122.43,-164.4 93.61,-230.94" /><path
         id="path158"
         style="fill:#2d3a3d;fill-opacity:1;fill-rule:nonzero;stroke:none"
         d="m 2645.46,1466.71 c -13.25,1.34 -28.87,7.38 -44.8,16.39 15.93,-9.01 31.55,-15.05 44.8,-16.39 v 0" /><path
         id="path160"
         style="fill:#e38652;fill-opacity:1;fill-rule:nonzero;stroke:none"
         d="m 2766.17,2010.26 c 3.18,4.83 5.05,7.63 5.36,7.99 -1.79,-2.66 -3.58,-5.33 -5.36,-7.99" /><path
         id="path162"
         style="fill:#3d757a;fill-opacity:1;fill-rule:nonzero;stroke:none"
         d="m 2720.19,2030.24 c -157.4,37.75 -308.44,83.58 -458.37,149.28 -97.87,42.71 -153.19,127.92 -171.84,206.9 v 0 c 18.65,-78.98 73.97,-164.19 171.84,-206.9 149.93,-65.7 300.97,-111.53 458.37,-149.28 v 0" /><path
         id="path164"
         style="fill:#e38652;fill-opacity:1;fill-rule:nonzero;stroke:none"
         d="m 2771.53,2018.25 c -8.88,2.02 -17.73,4.06 -26.56,6.12 v 0 c 8.83,-2.06 17.68,-4.1 26.56,-6.12 v 0 0 0" /><path
         id="path166"
         style="fill:#3b655d;fill-opacity:1;fill-rule:nonzero;stroke:none"
         d="m 2744.97,2024.37 c -8.28,1.94 -16.54,3.89 -24.78,5.87 v 0 c 8.24,-1.98 16.5,-3.93 24.78,-5.87 v 0" /><path
         id="path168"
         style="fill:#de6332;fill-opacity:1;fill-rule:nonzero;stroke:none"
         d="m 2737.96,2487.93 c -2.7,1.71 -5.44,3.44 -8.18,5.17 -5.67,3.59 -11.43,7.24 -17.28,10.94 l 0.01,0.01 c 9.07,-5.74 17.66,-11.19 25.45,-16.12" /><path
         id="path170"
         style="fill:#e47744;fill-opacity:1;fill-rule:nonzero;stroke:none"
         d="m 2771.53,2018.25 v 0 c -8.88,2.02 -17.73,4.06 -26.56,6.12 -8.28,1.94 -16.54,3.89 -24.78,5.87 -157.4,37.75 -308.44,83.58 -458.37,149.28 -97.87,42.71 -153.19,127.92 -171.84,206.9 -2.86,12.14 -4.86,24.14 -6.02,35.82 23.07,-8.66 50.5,-16.54 76.55,-23.24 0.22,-0.06 0.44,-0.11 0.67,-0.17 53.8,-13.68 109.17,-20.41 164.66,-20.41 0.01,0 0.03,0 0.05,0 v 0 0 h 0.01 c 16.38,0 32.77,0.58 49.13,1.75 v 0 0 c 1.34,0 2.41,0.25 3.74,0.25 82.18,6.11 183.04,20.78 195.58,55.76 -0.26,6.35 -1.33,16.63 2.4,35.22 0.8,3.42 1.6,7.33 2.67,11.49 v 0 c 1.22,0.53 2.84,0.76 4.77,0.76 12.49,0 38.11,-9.94 53.13,-17.15 2.14,-0.98 4.27,-1.95 5.87,-2.93 v 0 c 29.21,14.83 51.84,28.31 69.31,40.47 5.85,-3.7 11.61,-7.35 17.28,-10.94 2.74,-1.73 5.48,-3.46 8.18,-5.17 1.26,-0.8 2.5,-1.58 3.72,-2.35 2.22,-16.63 -25.7,-39.15 -113.95,-75.9 l -54.41,-19.95 c -1.53,-0.56 -2.61,-1.6 -3.24,-2.82 -34.86,-13.18 -76.07,-27.87 -124.52,-44.33 -141.16,-47.95 185.61,-200.7 368.45,-260.51 -12.08,-18.02 -24.17,-36.28 -36.15,-54.53 -2.29,-3.22 -4.3,-6.4 -6.33,-9.29" /><path
         id="path172"
         style="fill:#e47744;fill-opacity:1;fill-rule:nonzero;stroke:none"
         d="m 2645.46,1466.71 c -13.25,1.34 -28.87,7.38 -44.8,16.39 -55.25,31.24 -114.38,98.24 -92.65,129.16 0,0 220.64,341.02 258.16,398 1.78,2.66 3.57,5.33 5.36,7.99 v 0 0 0 0 c 2.03,2.89 4.04,6.07 6.33,9.29 11.98,18.25 24.07,36.51 36.15,54.53 46.33,-15.15 83.43,-24.34 101.32,-24.34 2.71,0 4.97,0.21 6.77,0.64 -116.88,-45.53 -59.72,-148.7 -131.77,-212.71 0,0 -71.12,-96.2 -212.59,-234.49 -37.54,-36.68 38.61,-125 67.72,-144.46" /><path
         id="path174"
         style="fill:#fce2a6;fill-opacity:1;fill-rule:nonzero;stroke:none"
         d="m 2802.83,2883.11 c -0.22,0.25 -0.34,0.38 -0.35,0.39 v 0 0 0.49 0 0 c 0,-0.02 0.12,-0.32 0.35,-0.88" /><path
         id="path176"
         style="fill:#f4b034;fill-opacity:1;fill-rule:nonzero;stroke:none"
         d="m 2802.48,2883.5 c -4.44,5.78 -8.96,11.21 -13.54,16.27 6.35,17.44 12.87,35.58 19.39,54.2 -1.65,-34.01 -3.59,-59.81 -5.85,-69.98 v 0 -0.49 0" /><path
         id="path178"
         style="fill:#f4b034;fill-opacity:1;fill-rule:nonzero;stroke:none"
         d="m 2941.5,2536.7 c -48.1,27.25 -144.3,82.09 -217.36,123.79 -3.14,29.93 2.83,56.19 2.83,56.46 2.31,25.48 30.1,95.4 61.97,182.82 4.58,-5.06 9.1,-10.49 13.54,-16.27 v 0 c 0.01,-0.01 0.13,-0.14 0.35,-0.39 2.4,-5.96 16.7,-41.53 21.77,-80.18 4.87,-37.03 35.25,-214.87 116.9,-266.23" /><path
         id="path180"
         style="fill:#f8c650;fill-opacity:1;fill-rule:nonzero;stroke:none"
         d="m 2888.4,3314.69 c 0,-3.18 0,-6.36 -0.26,-9.3 v -2.2 c 0.26,-200.55 -155.56,-524.36 -161.17,-586.24 0,-0.49 -20.82,-91.61 35.75,-128.05 0,0 46.65,-40.96 -119.53,-125.33 -1.6,0.98 -3.73,1.95 -5.87,2.93 -13.61,7.09 -25.61,14.19 -33.88,23.24 -9.34,10.03 -13.34,22.01 -8.01,38.4 -8,-18.35 -12.81,-33.26 -16.01,-45.25 -1.07,-4.16 -1.87,-8.07 -2.67,-11.49 -3.73,-18.59 -2.66,-28.87 -2.4,-35.22 -12.54,-34.98 -113.4,-49.65 -195.58,-55.76 -1.33,0 -2.4,-0.25 -3.74,-0.25 -72.04,-5.14 -144.61,0.98 -214.52,18.83 -63.77,16.39 -135.81,39.87 -131.81,64.57 23.75,139.41 92.59,253.13 116.87,546.87 1.6,22.01 102.19,280.52 172.9,363.92 7.74,9.05 15.21,15.9 21.62,20.3 4.53,2.93 8,5.38 10.93,7.58 21.35,14.43 30.42,22.5 61.91,38.89 7.2,3.91 15.47,8.07 25.34,12.96 180.37,87.8 354.87,69.71 440.26,-100.28 3.74,-8.07 2.13,-3.66 6.94,-19.81 1.6,-6.59 2.67,-12.71 2.93,-19.31" /><path
         id="path182"
         style="fill:#fcc7a9;fill-opacity:1;fill-rule:nonzero;stroke:none"
         d="m 2835.46,3473.77 -70.71,-64.94 c -0.29,-10.29 -0.85,-21.97 -1.55,-34.37 -3.1,-52.97 -10.71,-116.78 -30.85,-121.85 -4.65,60.29 -17.33,102.27 -37.33,134.25 -12.26,20 -27.61,36.2 -45.36,50.57 -25.92,21.27 -57.33,38.73 -93.68,59.3 1.98,3.81 89.6,122.41 89.6,122.41 25.21,34.65 207.91,-111.71 189.88,-145.37" /><path
         id="path184"
         style="fill:#f7b546;fill-opacity:1;fill-rule:nonzero;stroke:none"
         d="m 2731.82,3252.61 c 0.17,0.08 0.34,0.16 0.51,0.25 0,-0.06 0.01,-0.12 0.01,-0.18 -0.17,-0.03 -0.35,-0.05 -0.52,-0.07 m 1.36,0.24 c 4.61,1.56 8.54,6.25 11.91,13.2 -3.36,-7.19 -7.3,-12 -11.91,-13.2 m 29.04,106.72 c 0.37,5.02 0.69,10 0.98,14.89 0.29,5.07 0.55,10.02 0.78,14.81 -0.27,-6.57 -0.8,-17.19 -1.76,-29.7 m -57.53,9.85 c -1.56,0.84 -3.11,1.73 -4.64,2.66 0.08,2.39 0.28,4.27 0.43,5.45 1.45,-2.64 2.85,-5.34 4.21,-8.11 m -5.38,10.21 c -2.68,1.43 -7.09,3.74 -12.69,6.81 -10.74,13.53 -23.35,25.09 -37.49,35.58 -8.94,1.09 -17.01,2.43 -24.26,3.97 -23.21,17.85 -44.31,39.04 -51.05,60.64 28.87,-16.42 54.26,-31.49 75.84,-49.2 17.75,-14.37 33.1,-30.57 45.36,-50.57 1.47,-2.36 2.9,-4.77 4.29,-7.23" /><path
         id="path186"
         style="fill:#fee9de;fill-opacity:1;fill-rule:nonzero;stroke:none"
         d="m 2815.86,3439.27 c -3.01,2.79 -6.05,5.49 -9.15,8.1 l 13.31,12.22 14.91,-4.26 -19.07,-16.06" /><path
         id="path188"
         style="fill:#f7b546;fill-opacity:1;fill-rule:nonzero;stroke:none"
         d="m 2764.28,3395.86 c 0.2,4.51 0.36,8.85 0.47,12.97 l 41.96,38.54 c 3.1,-2.61 6.14,-5.31 9.15,-8.1 l -51.58,-43.41" /><path
         id="path190"
         style="fill:#fbb693;fill-opacity:1;fill-rule:nonzero;stroke:none"
         d="m 2732.34,3252.68 c 0,0.06 -0.01,0.12 -0.01,0.18 11.54,6.27 19.07,44.52 22.15,67.03 3.26,23.9 1.96,42.44 -32.24,42.47 -6.05,1.61 -11.87,4.01 -17.55,7.06 -1.36,2.77 -2.76,5.47 -4.21,8.11 0.04,0.24 0.07,0.45 0.09,0.63 l -0.09,0.16 -0.06,0.55 c -0.07,0.1 -0.21,0.19 -0.41,0.26 l -0.1,0.17 c 0.02,-0.01 0.05,-0.02 0.07,-0.02 v 0 0 c -0.03,0.01 -0.06,0.03 -0.08,0.04 l -0.01,0.01 c -0.01,0.01 -0.02,0.01 -0.04,0.01 -0.17,0.1 -0.35,0.19 -0.54,0.29 -1.39,2.46 -2.82,4.87 -4.29,7.23 -12.26,20 -27.61,36.2 -45.36,50.57 -21.58,17.71 -46.97,32.78 -75.84,49.2 -0.98,3.13 -1.65,6.26 -1.99,9.4 4.86,9.39 11.39,17.46 16,22.55 4.23,2.9 6.87,3.88 4.27,4.49 0.84,0.83 1.32,1.27 1.32,1.27 l 226.6,-64.75 -13.31,-12.22 -41.96,-38.54 c -0.11,-4.12 -0.27,-8.46 -0.47,-12.97 l -0.06,-0.06 c -0.03,-0.97 -0.1,-3.24 -0.24,-6.53 -0.23,-4.79 -0.49,-9.74 -0.78,-14.81 -0.29,-4.89 -0.61,-9.87 -0.98,-14.89 -2.34,-30.56 -7.23,-72.35 -17.13,-93.52 -3.37,-6.95 -7.3,-11.64 -11.91,-13.2 -0.28,-0.07 -0.56,-0.13 -0.84,-0.17" /><path
         id="path192"
         style="fill:#f8c650;fill-opacity:1;fill-rule:nonzero;stroke:none"
         d="m 2700.57,3378.16 c -0.51,-3.44 -2.16,-18.3 4.29,-33.28 0,0 -62.09,1.19 -78,22.67 -15.55,21 63.75,15.12 73.03,11.78 l 0.68,-1.17" /><path
         id="path194"
         style="fill:#fce2a6;fill-opacity:1;fill-rule:nonzero;stroke:none"
         d="m 2340.09,3394.66 c 4.53,2.93 20.61,15.41 23.67,18.24 -0.01,-0.01 -0.02,-0.01 -0.03,-0.01 -0.63,0 9.34,6.01 24.77,14.61 -14.1,-8.56 -22.94,-15.43 -37.48,-25.26 -2.93,-2.2 -6.4,-4.65 -10.93,-7.58 m 112.86,66.34 c 25.2,12.05 50.08,22.43 66.08,25.42 -0.03,-0.02 -0.06,-0.05 -0.09,-0.07 -21.76,-6.76 -43.83,-15.24 -65.99,-25.35" /><path
         id="path196"
         style="fill:#e1692c;fill-opacity:1;fill-rule:nonzero;stroke:none"
         d="m 2325.89,2378.42 c -0.02,0 -0.04,0 -0.05,0 0.01,0 0.03,0 0.05,0 v 0 m 0.01,0 c 16.38,0 32.77,0.58 49.13,1.75 v 0 c -16.36,-1.17 -32.75,-1.75 -49.13,-1.75 m -164.72,20.41 c -0.23,0.06 -0.45,0.11 -0.67,0.17 -26.05,6.7 -53.48,14.58 -76.55,23.24 v 0 c 23.07,-8.66 50.5,-16.54 76.55,-23.24 0.22,-0.06 0.44,-0.11 0.67,-0.17 m 482.01,64.74 c -1.6,0.98 -3.73,1.95 -5.87,2.93 -15.02,7.21 -40.64,17.15 -53.13,17.15 -1.93,0 -3.55,-0.23 -4.77,-0.76 v 0 0 c 3.2,11.99 8.01,26.9 16.01,45.25 v 0 c -5.33,-16.39 -1.33,-28.37 8.01,-38.4 8.27,-9.05 20.27,-16.15 33.88,-23.24 2.14,-0.98 4.27,-1.95 5.87,-2.93 v 0 0" /><path
         id="path198"
         style="fill:#f4b034;fill-opacity:1;fill-rule:nonzero;stroke:none"
         d="m 2325.89,2378.42 c -0.02,0 -0.04,0 -0.05,0 -55.49,0 -110.87,6.73 -164.66,20.41 -0.23,0.06 -0.45,0.11 -0.67,0.17 -26.05,6.7 -53.48,14.58 -76.55,23.24 -31.9,11.98 -55.45,25.46 -55.42,39.38 0.01,0.65 0.06,1.3 0.16,1.95 23.75,139.41 92.59,253.13 116.87,546.87 1.6,22.01 102.19,280.52 172.9,363.92 7.74,9.05 15.21,15.9 21.62,20.3 v 0 c 4.53,2.93 8,5.38 10.93,7.58 14.54,9.83 23.38,16.7 37.48,25.26 17.1,9.53 40.91,22.25 64.45,33.5 22.16,10.11 44.23,18.59 65.99,25.35 -6.24,-4.87 -13.2,-11.04 -18.07,-18.02 -23.65,-1.05 -66.77,-33.62 -51.15,-50.74 20.98,-27.19 32.62,-81.91 21.91,-191.69 -10.41,-106.63 31.77,-228.43 -15.21,-335.31 -30.38,-69.11 67.39,-155.49 145.76,-220.66 -5.32,-47.08 -7.42,-94.49 -7.07,-141.79 h 0.32 c -8,-18.35 -12.81,-33.26 -16.01,-45.25 v 0 l -1.07,-0.49 c -111.5,4.32 -346.21,122.64 -400.12,122.64 -4.01,0 -7.03,-0.66 -8.91,-2.06 -214.71,-160.4 123.8,-206.42 205.71,-222.81 -16.36,-1.17 -32.75,-1.75 -49.13,-1.75 h -0.01 m 317.3,85.15 c -1.6,0.98 -3.73,1.95 -5.87,2.93 -13.61,7.09 -25.61,14.19 -33.88,23.24 -9.34,10.03 -13.34,22.01 -8.01,38.4 l 0.32,-0.01 c 2.27,45.93 6.23,91.72 11.92,137.25 45.43,-37.66 82.98,-67.7 82.78,-82.32 -0.26,-22.5 13.31,-76.69 -47.26,-119.49 v 0 m -90.13,817.44 c 0,0 -20.39,108.88 -58.47,137.55 -8.29,6.82 -19.73,31.55 2.9,44.08 -5.43,-11.19 -4.36,-23.93 13.03,-36.5 43.95,-31.89 42.54,-145.13 42.54,-145.13 v 0 m 0,0 c 0,0 19.44,16.53 44.24,36.16 v 0 c 15.64,12.32 33.48,25.86 50.01,37.19 9.87,-3.62 21.31,-5.87 31.38,-7.26 -42.34,-14.53 -125.63,-66.09 -125.63,-66.09" /><path
         id="path200"
         style="fill:#f4b034;fill-opacity:1;fill-rule:nonzero;stroke:none"
         d="m 2678.69,3347.1 c -10.07,1.39 -21.51,3.64 -31.38,7.26 3.76,2.58 7.45,5.05 11.03,7.36 6.09,-0.7 12.16,-1.73 18.05,-3.26 7.48,-3.96 14.08,-6.63 19.43,-7.58 -0.05,0 -0.1,0 -0.15,0 -4.19,0 -10.04,-1.39 -16.98,-3.78" /><path
         id="path202"
         style="fill:#f48d2e;fill-opacity:1;fill-rule:nonzero;stroke:none"
         d="m 2700.48,3378.32 -0.47,0.81 c 0.2,-0.07 0.34,-0.16 0.41,-0.26 l 0.06,-0.55" /><path
         id="path204"
         style="fill:#f19a19;fill-opacity:1;fill-rule:nonzero;stroke:none"
         d="m 2704.86,3344.88 c -8.29,6.67 -18.1,10.9 -28.47,13.58 -3.81,2.02 -7.86,4.38 -12.08,7.02 12.23,7.46 22.8,12.7 29.85,13.95 0.75,0.02 1.45,0.03 2.07,0.03 1.85,0 3.14,-0.1 3.78,-0.33 l 0.47,-0.81 0.02,-0.17 c -0.37,-2.69 -2.31,-19.35 4.36,-33.27" /><path
         id="path206"
         style="fill:#ed8910;fill-opacity:1;fill-rule:nonzero;stroke:none"
         d="m 2676.39,3358.46 c -5.89,1.53 -11.96,2.56 -18.05,3.26 1.8,1.15 3.57,2.27 5.3,3.35 v 0 0 c 0.23,0.14 0.45,0.27 0.67,0.41 4.22,-2.64 8.27,-5 12.08,-7.02" /><path
         id="path208"
         style="fill:#f8c650;fill-opacity:1;fill-rule:nonzero;stroke:none"
         d="m 2699.98,3379.28 c -6.06,2.19 -19.72,-4.01 -36.34,-14.21 -20.43,-12.66 -45.36,-31.38 -66.34,-47.9 -24.8,-19.63 -44.24,-36.16 -44.24,-36.16 0,0 1.41,113.24 -42.54,145.13 -43.39,31.38 14.79,63.79 22.26,70.5 8.44,7.36 15.07,12.14 20.28,14.85 v 0.14 c 0,0 21.55,13.16 35.78,11.87 14.09,-1.29 -10.42,-2.32 -17.05,-27.11 5.36,-53.98 111.29,-108.08 128.19,-117.11" /><path
         id="path210"
         style="fill:#f4ae32;fill-opacity:1;fill-rule:nonzero;stroke:none"
         d="m 2817.02,3286.02 c -17.84,11.46 -37.81,65.98 -50.97,65.98 -1,0 -1.95,-0.31 -2.87,-0.98 1.81,6.77 8.25,25.89 24.66,33.68 5.88,2.79 6.3,3.77 3.94,3.77 -0.8,0 -1.93,-0.11 -3.27,-0.31 8.04,5.96 17.38,9.81 27.31,9.81 6.2,0 12.63,-1.5 19.14,-4.91 -1.98,-16.09 -10.47,-72.05 -17.94,-107.04 m -54.35,64.59 c 0.01,0.04 0.02,0.08 0.03,0.11 l -0.01,-0.09 c -0.01,-0.01 -0.01,-0.01 -0.02,-0.02" /><path
         id="path212"
         style="fill:#f19a19;fill-opacity:1;fill-rule:nonzero;stroke:none"
         d="m 2762.6,3348.61 0.09,2.02 c 0.16,0.14 0.33,0.27 0.49,0.39 -0.41,-1.52 -0.58,-2.41 -0.58,-2.41 m 0.1,2.11 1.42,30.71 1.31,1.6 c 3.96,1.02 16.29,4.14 23.08,5.13 -12.78,-9.47 -22.29,-24.27 -25.81,-37.44" /><path
         id="path214"
         style="fill:#ed8710;fill-opacity:1;fill-rule:nonzero;stroke:none"
         d="m 2762.69,3350.63 0.01,0.09 c 3.52,13.17 13.03,27.97 25.81,37.44 1.34,0.2 2.47,0.31 3.27,0.31 2.36,0 1.94,-0.98 -3.94,-3.77 -16.41,-7.79 -22.85,-26.91 -24.66,-33.68 -0.16,-0.12 -0.33,-0.25 -0.49,-0.39" /><path
         id="path216"
         style="fill:#f8c650;fill-opacity:1;fill-rule:nonzero;stroke:none"
         d="m 2764.74,3382.69 c 0,0 11.19,5.47 25.66,-37.81 14.48,-43.29 26.06,-53.02 26.06,-53.02 0,0 2.9,76.79 12.55,87.05 9.65,10.26 -9.65,47.42 -9.65,47.42 l -54.62,-43.64" /><path
         id="path218"
         style="fill:#fcc7a9;fill-opacity:1;fill-rule:nonzero;stroke:none"
         d="m 2942.35,3672.1 c -5.04,-11.11 -7.15,-23.24 -6.3,-35.41 2.89,-41.08 -13.27,-81.05 -40.17,-127.2 -73.29,-125.74 -78.85,-108.8 -143.8,-94.01 -40.07,9.11 -76.58,30.05 -104.68,60.03 -38.94,41.55 -73.26,99.75 -102.02,183.84 -10.76,31.45 -8.81,66.21 6.33,95.79 74.57,145.75 214.77,85.97 339.77,58.31 94.16,-20.83 71.62,-95.65 50.87,-141.35" /><path
         id="path220"
         style="fill:#3b5765;fill-opacity:1;fill-rule:nonzero;stroke:none"
         d="m 2956.38,3710.47 c 0,0 -101.19,47.21 -82.8,88.45 6.02,13.5 -21.85,20.58 -36.62,21.19 -87.47,3.61 -149.28,-35.71 -167.3,-87.57 -3.66,-10.56 -5.49,-21.69 -5.35,-33.1 1.27,-83.96 -53.11,-43.39 -66.49,-75.09 -7.32,-17.18 -19.44,-20.99 -21.69,-41.12 -29.56,44.95 -44.32,134.87 -56.45,197.35 1.25,61.89 27.01,107.72 100.82,142.97 123.4,59.03 229.19,11.28 283.7,-44.23 l 0.15,-0.28 c 124.02,-29.72 149.48,-112.09 52.03,-168.57" /><path
         id="path222"
         style="fill:#3b5765;fill-opacity:1;fill-rule:nonzero;stroke:none"
         d="m 2597.85,3624.41 c -7.31,-17.29 -1.62,-55.17 -3.9,-75.35 -56.45,85.89 -128.21,300.49 26.54,374.53 l -22.64,-299.18" /><path
         id="path224"
         style="fill:#fcc7a9;fill-opacity:1;fill-rule:nonzero;stroke:none"
         d="m 2627.74,3638.53 c -15.18,-27.55 7.19,-64.18 -11.2,-71.12 -18.39,-6.93 -43.19,13.66 -55.39,46 -12.2,32.34 -22.09,58.55 11.2,71.11 42.49,16.02 72.07,-15.72 55.39,-45.99" /><path
         id="path226"
         style="fill:#f8c650;fill-opacity:1;fill-rule:nonzero;stroke:none"
         d="m 2339.74,2861.84 92.35,262.41 c 94.52,192.92 35.97,275.85 26.04,287 -12.47,13.99 -47.4,17.3 -63.26,13.37 -74.06,-18.39 -162.85,-112.47 -252.01,-361.28 -1.4,-3.92 -68.53,-211.53 -70.36,-217.99 -0.75,-2.99 178.94,31.74 267.24,16.49" /><path
         id="path228"
         style="fill:#f3a82a;fill-opacity:1;fill-rule:nonzero;stroke:none"
         d="m 2607.67,2665.38 c -1.81,1.5 -3.64,3.02 -5.49,4.55 1.53,13.44 3.31,26.85 5.37,40.22 9.42,60.01 22.28,120.5 48.87,175.7 29.76,53.27 45.97,112.49 55.93,172.2 9.96,59.78 16.6,120.14 19.15,180.86 l 0.64,0.01 c 1.76,-121.23 -17.85,-245.31 -72.55,-354.54 -23.98,-55.56 -36.65,-115.4 -45.88,-175.16 -2.19,-14.58 -4.2,-29.2 -6.04,-43.84" /><path
         id="path230"
         style="fill:#dd5917;fill-opacity:1;fill-rule:nonzero;stroke:none"
         d="m 2595.43,2528.14 v 0 0 0" /><path
         id="path232"
         style="fill:#ef951b;fill-opacity:1;fill-rule:nonzero;stroke:none"
         d="m 2595.75,2528.13 -0.32,0.01 v 0 0 h -0.32 c -0.35,47.3 1.75,94.71 7.07,141.79 1.85,-1.53 3.68,-3.05 5.49,-4.55 -5.69,-45.53 -9.65,-91.32 -11.92,-137.25" /><path
         id="path234"
         style="fill:#f7c048;fill-opacity:1;fill-rule:nonzero;stroke:none"
         d="m 2597.3,3317.17 c -0.29,1.16 -0.15,2.58 0,4.13 4.19,38.16 -49.21,120.39 -30.6,120.39 1.35,0 3.08,-0.43 5.24,-1.34 19.35,-38.05 71.98,-61.72 91.7,-75.28 -1.73,-1.08 -3.5,-2.2 -5.3,-3.35 -3.58,-2.31 -7.27,-4.78 -11.03,-7.36 -16.53,-11.33 -34.37,-24.87 -50.01,-37.19 v 0" /><path
         id="path236"
         style="fill:#3b5765;fill-opacity:1;fill-rule:nonzero;stroke:none"
         d="m 2982.03,2524.56 c -6.19,1.9 -12.83,1.73 -18.91,-0.5 l -385.87,-141.49 c -2.32,1.96 -6.56,5.31 -7.28,4.13 -1.11,-1.83 -2.51,-9.22 -2.2,-11.72 v -0.06 l 0.01,-0.42 0.1,0.01 c 0.15,-2.17 1.33,-4.28 3.77,-5.18 l 388.68,-144.25 c 3.92,-1.46 8.25,-1.34 12.09,0.32 l 401.09,178.49 -391.48,120.67" /><path
         id="path238"
         style="fill:#abe3ef;fill-opacity:1;fill-rule:nonzero;stroke:none"
         d="m 2974.08,2234.6 407.81,176.42 -398.21,122.74 c -6.19,1.91 -12.83,1.73 -18.91,-0.5 l -391.45,-143.53 c -5.2,-1.91 -5.22,-9.27 -0.02,-11.2 l 388.68,-144.25 c 3.93,-1.46 8.26,-1.34 12.1,0.32" /><path
         id="path240"
         style="fill:#3b5765;fill-opacity:1;fill-rule:nonzero;stroke:none"
         d="m 3547.36,2828.69 c -10.23,11.59 -13.09,10.42 -18.34,8.72 l -409.78,-135.64 c -8.98,-2.97 -16,-10.06 -18.88,-19.07 l -140.93,-440.41 c -2.16,-6.77 4.7,-12.93 11.2,-10.04 l 412,182.9 c 7.4,3.29 13.14,9.46 15.86,17.09 l 139.87,391.74 c 2.73,0.6 5.69,1.84 9,4.71" /><path
         id="path242"
         style="fill:#73cae0;fill-opacity:1;fill-rule:nonzero;stroke:none"
         d="m 2960.77,2234.73 -387.47,143.8 c -2.6,0.96 -3.9,3.29 -3.89,5.61 0,2.32 1.31,4.63 3.91,5.59 l 391.45,143.53 c 3.29,1.21 6.74,1.81 10.19,1.81 2.94,0 5.88,-0.43 8.72,-1.31 l 62.82,-19.36 -19.59,-61.23 -291.48,-106.88 c -4.72,-1.73 -4.73,-8.39 -0.03,-10.14 l 227.67,-82.48 -3.64,-11.38 c -0.9,-2.83 -0.23,-5.56 1.34,-7.56 m -65.2,242.15 c -1.93,-0.02 -3.69,-0.04 -5.63,-0.06 l -111.51,-40.88 c 0,-1.58 0,-1.61 0.01,-3.19 l 75.65,-27.41 c 1.29,0 2.47,-0.01 3.75,-0.02 l 115.45,40.44 c 2.09,0.74 2.08,3.69 -0.01,4.41 l -77.71,26.71" /><path
         id="path244"
         style="fill:#284d5f;fill-opacity:1;fill-rule:nonzero;stroke:none"
         d="m 2967.63,2233.27 c -1.91,0 -3.82,0.33 -5.65,1.01 l -1.21,0.45 v 0 c -1.57,2 -2.24,4.73 -1.34,7.56 l 3.64,11.38 10.19,-3.69 -4.42,-13.84 c -0.28,-0.87 -0.41,-1.74 -0.41,-2.57 0,-0.1 0,-0.19 0,-0.28 -0.26,-0.02 -0.53,-0.02 -0.8,-0.02 m 59.28,219.9 19.59,61.23 10.35,-3.19 -17.06,-53.32 -12.88,-4.72" /><path
         id="path246"
         style="fill:#4db4d2;fill-opacity:1;fill-rule:nonzero;stroke:none"
         d="m 2963.07,2253.67 -227.67,82.48 c -4.7,1.75 -4.69,8.41 0.03,10.14 l 291.48,106.88 -63.84,-199.5" /><path
         id="path248"
         style="fill:#1b4559;fill-opacity:1;fill-rule:nonzero;stroke:none"
         d="m 2973.26,2249.98 -10.19,3.69 63.84,199.5 12.88,4.72 -58.56,-183 v 0 l -7.97,-24.91" /><path
         id="path250"
         style="fill:#4db4d2;fill-opacity:1;fill-rule:nonzero;stroke:none"
         d="m 2857.84,2405.32 c -1.28,0.01 -2.46,0.02 -3.75,0.02 l -75.65,27.41 c -0.01,1.58 -0.01,1.61 -0.01,3.19 l 111.51,40.88 c 1.94,0.02 3.7,0.04 5.63,0.06 l 77.71,-26.71 c 2.09,-0.72 2.1,-3.67 0.01,-4.41 l -115.45,-40.44" /><path
         id="path252"
         style="fill:#abe3ef;fill-opacity:1;fill-rule:nonzero;stroke:none"
         d="m 2980.03,2226.1 412,182.89 c 7.4,3.29 13.13,9.47 15.86,17.1 l 140.88,394.57 c 2.31,6.46 -3.83,12.76 -10.35,10.6 l -409.78,-135.64 c -8.98,-2.97 -16,-10.06 -18.88,-19.07 l -140.92,-440.41 c -2.17,-6.77 4.69,-12.93 11.19,-10.04" /><path
         id="path254"
         style="fill:#c9f1f7;fill-opacity:1;fill-rule:nonzero;stroke:none"
         d="m 3255.47,2492.33 c -2.14,0 -4.31,0.07 -6.5,0.19 -30.54,1.76 -54.59,15.41 -53.72,30.49 0.78,13.66 21.82,23.7 48.46,24.17 3.35,6.56 7.69,13.27 13.16,19.73 14.86,17.61 32.91,28.21 45.85,28.21 4.24,0 7.93,-1.13 10.77,-3.54 11.54,-9.75 4.89,-36.59 -14.85,-59.96 l -0.28,-0.29 c 4.93,-4.45 7.78,-9.47 7.48,-14.7 -0.81,-13.99 -22.8,-24.3 -50.37,-24.3" /><path
         id="path256"
         style="fill:#d9f3f8;fill-opacity:1;fill-rule:nonzero;stroke:none"
         d="m 3293.95,2365.45 v 0 l 98.08,43.54 c 5.09,2.26 9.39,5.89 12.46,10.41 -3.07,-4.52 -7.37,-8.15 -12.46,-10.41 l -98.08,-43.54" /><path
         id="path258"
         style="fill:#c98b5a;fill-opacity:1;fill-rule:nonzero;stroke:none"
         d="m 3106.46,2282.22 v 0 l 187.49,83.23 v 0 l -187.49,-83.23" /><path
         id="path260"
         style="fill:#c37343;fill-opacity:1;fill-rule:nonzero;stroke:none"
         d="m 3068.44,2265.34 v 0 l 38.02,16.88 v 0 l -38.02,-16.88" /><path
         id="path262"
         style="fill:#c98b5a;fill-opacity:1;fill-rule:nonzero;stroke:none"
         d="m 2976.66,2225.37 c -1.05,0 -2.06,0.2 -3,0.58 v 0 c 0.94,-0.38 1.95,-0.58 3,-0.58 1.1,0 2.24,0.23 3.37,0.73 l 88.41,39.24 v 0 l -88.41,-39.24 c -1.13,-0.5 -2.27,-0.73 -3.37,-0.73" /><path
         id="path264"
         style="fill:#22495c;fill-opacity:1;fill-rule:nonzero;stroke:none"
         d="m 2968.43,2233.29 c 0,0.09 0,0.18 0,0.28 0,-0.1 0,-0.19 0,-0.28 v 0 m 0.41,2.85 4.42,13.84 v 0 l -4.42,-13.84" /><path
         id="path266"
         style="fill:#174156;fill-opacity:1;fill-rule:nonzero;stroke:none"
         d="m 2973.26,2249.98 v 0 l 7.97,24.91 -7.97,-24.91" /><path
         id="path268"
         style="fill:#325262;fill-opacity:1;fill-rule:nonzero;stroke:none"
         d="m 3529.79,2828.4 v 0 l 8.63,2.86 -8.63,-2.86" /><path
         id="path270"
         style="fill:#92d8e8;fill-opacity:1;fill-rule:nonzero;stroke:none"
         d="m 2976.66,2225.37 c -1.05,0 -2.06,0.2 -3,0.58 -2.93,1.18 -5.11,4.01 -5.23,7.34 0,0.09 0,0.18 0,0.28 0,0.83 0.13,1.7 0.41,2.57 v 0 l 4.42,13.84 7.97,24.91 210.15,101.36 c 93,44.85 169.14,118.25 217.42,209.52 58.82,111.21 120.7,241.11 120.7,241.11 l 0.29,1.52 8.63,2.86 c 0.89,0.3 1.78,0.43 2.64,0.43 4.47,0 8.19,-3.74 8.21,-8.19 0,-0.93 -0.15,-1.88 -0.5,-2.84 v 0 l -140.89,-394.57 c -0.85,-2.39 -1.99,-4.63 -3.39,-6.69 -3.07,-4.52 -7.37,-8.15 -12.46,-10.41 l -98.08,-43.54 -187.49,-83.23 -38.02,-16.88 -88.41,-39.24 c -1.13,-0.5 -2.27,-0.73 -3.37,-0.73" /><path
         id="path272"
         style="fill:#fcc7a9;fill-opacity:1;fill-rule:nonzero;stroke:none"
         d="m 2539.78,2643.6 c 0,0 124.43,-83.71 146.05,-89.37 21.61,-5.66 76.77,-8.77 96.63,-9.82 19.87,-1.04 79.95,-65.33 90.01,-97.17 10.06,-31.84 10.28,-66.81 0.57,-78.31 -9.72,-11.5 -66.87,-6.15 -109.54,10.62 -42.68,16.77 -59.78,66.86 -74.69,73.04 -14.9,6.19 -220.19,103.72 -220.19,103.72 l 71.16,87.29" /><path
         id="path274"
         style="fill:#f8c650;fill-opacity:1;fill-rule:nonzero;stroke:none"
         d="m 2337.82,2835.77 6.4,38.09 c -79.05,-39.16 -205.35,72.57 -269.2,-23.49 0.12,-0.22 -5.73,-24.88 0,-49.64 6.94,-29.93 23.47,-61.69 46.16,-84.13 16.03,-15.86 44.23,-29.67 54.59,-34.78 89.61,-74.69 239.27,-146.46 436.04,-215.94 33.58,-13.95 88.39,105.15 78.64,117.18 l -352.63,252.71" /><path
         id="path276"
         style="fill:#fcc7a9;fill-opacity:1;fill-rule:nonzero;stroke:none"
         d="m 2782.11,2539.4 c 12.82,-2.72 26.64,-5 39.71,-6.45 6.52,-0.66 13.08,-1.2 19.03,-1.19 5.41,-0.41 12.52,1.63 10.59,0.27 8.02,6.04 19.42,4.44 25.47,-3.58 6.03,-8.02 4.44,-19.42 -3.58,-25.46 -14.09,-8.98 -21.76,-8.01 -30.31,-9.54 -8.21,-0.79 -15.84,-0.85 -23.47,-0.82 -15.24,0.26 -29.62,1.25 -44.8,2.98 -12.2,1.39 -20.96,12.41 -19.57,24.61 1.4,12.21 12.42,20.97 24.62,19.57 l 2.31,-0.39" /></g></g></svg>