<?xml version="1.0" encoding="UTF-8" standalone="no"?>
<svg
   xmlns:dc="http://purl.org/dc/elements/1.1/"
   xmlns:cc="http://creativecommons.org/ns#"
   xmlns:rdf="http://www.w3.org/1999/02/22-rdf-syntax-ns#"
   xmlns:svg="http://www.w3.org/2000/svg"
   xmlns="http://www.w3.org/2000/svg"
   viewBox="0 0 1496 1200"
   height="1200"
   width="1496"
   xml:space="preserve"
   id="svg2"
   version="1.1"><metadata
     id="metadata8"><rdf:RDF><cc:Work
         rdf:about=""><dc:format>image/svg+xml</dc:format><dc:type
           rdf:resource="http://purl.org/dc/dcmitype/StillImage" /></cc:Work></rdf:RDF></metadata><defs
     id="defs6" /><g
     transform="matrix(1.3333333,0,0,-1.3333333,0,1200)"
     id="g10"><g
       transform="scale(0.1)"
       id="g12"><path
         id="path14"
         style="fill:#ffffff;fill-opacity:1;fill-rule:nonzero;stroke:none"
         d="M 0,0 H 11220 V 9000 H 0 Z" /><path
         id="path16"
         style="fill:#f0f2f3;fill-opacity:1;fill-rule:nonzero;stroke:none"
         d="m 6119.55,536.23 c -617.31,0 -1234.74,7.149 -1851.88,21.461 -621.61,14.399 -1243.06,36.059 -1864.17,64.981 -30.71,1.43 -66.54,1.859 -106.29,1.859 -29.88,0 -61.98,-0.25 -95.77,-0.492 -33.84,-0.238 -69.36,-0.488 -106.1,-0.488 -357.7,0 -828.62,23.109 -939.67,294.289 -12.48,30.512 -15.92,63.59 -6.8,99.17 33,128.72 189.59,142.47 320.33,142.47 17.77,0 35.09,-0.25 51.53,-0.51 16.45,-0.25 32.05,-0.51 46.42,-0.51 9.23,0 17.95,0.11 26.07,0.39 48.06,1.65 102.19,12.49 127.69,53.25 21.17,33.83 15.31,78.62 -1.67,114.74 -61.52,130.85 -227.85,163.74 -368.81,195.91 -124.97,28.51 -318.45,188.06 -145.98,306.1 60.02,41.08 137.42,43.82 210.14,45.13 930.95,0 1863.19,33.53 2794.01,50.28 281.64,5.07 562,6.99 841.91,6.99 631.83,0 1261.08,-9.82 1895.66,-15.5 59.11,-0.53 133.36,-11.82 149.8,-68.59 28.82,-99.47 -158.87,-149.62 -151.25,-252.91 5.57,-75.52 105.11,-96.99 180.98,-96.99 0.22,0 0.44,0 0.67,0 703.13,1.13 1406.98,49.24 2109.49,49.24 286.66,0 573.17,-8.02 859.24,-30.5 181.9,-14.31 379.1,-41.69 506.9,-172.05 374.3,-381.911 -318.4,-547.731 -559.7,-602.341 C 9407.31,529.949 8657.08,573.809 7998.03,558.309 7371.94,543.59 6745.81,536.23 6119.55,536.23" /><path
         id="path18"
         style="fill:#eacda4;fill-opacity:1;fill-rule:nonzero;stroke:none"
         d="m 2910.77,5447.71 c -2.26,2.01 -4.43,4.1 -6.42,6.36 -8.11,9.24 -12.64,23.27 -5.4,33.6 23.58,33.64 77.96,-29 69.3,29.33 -2.37,15.92 -65.65,91.77 -59.49,100.24 31.49,43.25 104.52,59.76 140.17,18.03 24.14,-28.25 32.69,-69.68 38.52,-104.23 9.06,-53.64 9.89,-108.64 20.98,-161.86 1.02,-4.89 2.08,-10.21 -0.23,-14.81 -2.21,-4.38 -6.98,-7.06 -11.48,-9.46 -32.68,-17.44 -82.21,-48.74 -117.03,-19 -4.85,4.17 -7.24,10.28 -9.46,16.16 -6.37,16.88 -12.73,33.75 -19.11,50.62 -4.88,12.93 -9.93,26.15 -19.28,36.54 -6.21,6.89 -14.09,12.27 -21.07,18.48" /><path
         id="path20"
         style="fill:#a7ceb9;fill-opacity:1;fill-rule:nonzero;stroke:none"
         d="m 3249.89,4903.29 c -7.42,23.7 -15.84,48.98 -23.62,77.9 -9.36,34.85 -90.88,423.94 -91.53,423.78 -13,-3.06 -205.4,-52.72 -207.92,-39.32 20.33,-107.93 40.65,-215.86 60.98,-323.79 35.49,-188.43 13.74,-343.1 -152.91,-448.49 -66.09,-41.8 -138.7,-71.41 -207.96,-107.41 -11.04,-5.74 -22.44,-12.04 -29.38,-22.56 -11.67,-17.68 -7.41,-41.41 -2.38,-62.23 32.08,-132.78 77.23,-262.3 134.55,-385.92 27.02,-61.05 71.75,-119.64 105.57,-177.37 6.83,-11.67 16.21,-24.85 29.42,-24.37 13.71,0.49 21.97,15.27 27.58,28.11 84.44,193.31 168.88,386.62 253.32,579.93 67.53,154.61 158.56,308.13 104.28,481.74" /><path
         id="path22"
         style="fill:#eacda4;fill-opacity:1;fill-rule:nonzero;stroke:none"
         d="m 2057.42,5478.7 c 2.42,1.82 4.76,3.72 6.93,5.81 8.85,8.53 14.54,22.13 8.19,33.03 -20.68,35.49 -80.12,-22.37 -66.6,35.03 3.68,15.65 73.09,85.95 67.65,94.9 -27.75,45.73 -99.15,68.3 -138.16,29.7 -26.42,-26.13 -38.4,-66.72 -47.1,-100.66 -13.52,-52.68 -18.95,-107.42 -34.45,-159.53 -1.43,-4.79 -2.93,-10 -1.01,-14.76 1.84,-4.57 6.37,-7.63 10.65,-10.4 31.11,-20.11 77.85,-55.44 115.03,-28.72 5.19,3.75 8.07,9.63 10.78,15.31 7.75,16.29 15.51,32.57 23.27,48.85 5.95,12.47 12.09,25.22 22.28,34.79 6.77,6.36 15.07,11.06 22.54,16.65" /><path
         id="path24"
         style="fill:#a7ceb9;fill-opacity:1;fill-rule:nonzero;stroke:none"
         d="m 1673.96,4964.55 c 9.37,23 19.88,47.48 30.04,75.66 12.25,33.94 126.02,414.85 126.66,414.64 12.69,-4.14 200.27,-69.71 203.9,-56.57 -29.28,-105.86 -58.56,-211.71 -87.85,-317.56 -51.12,-184.8 -42.38,-340.75 114.87,-459.71 62.37,-47.18 132.25,-82.75 198.25,-124.43 10.52,-6.64 21.36,-13.87 27.39,-24.93 10.15,-18.59 3.92,-41.88 -2.83,-62.21 -43.07,-129.64 -98.9,-254.93 -166.36,-373.32 C 2086,3977.54 2036.52,3922.9 1998,3868.2 c -7.79,-11.05 -18.24,-23.41 -31.36,-21.82 -13.62,1.64 -20.62,17.06 -25.13,30.32 -67.98,199.7 -135.95,399.39 -203.93,599.08 -54.36,159.72 -132.24,320.3 -63.62,488.77" /><path
         id="path26"
         style="fill:#a7ceb9;fill-opacity:1;fill-rule:nonzero;stroke:none"
         d="m 2427.16,4575.26 c -43.16,5.62 -87.47,9.7 -129.87,-0.42 -56.94,-13.58 -105.47,-51.72 -145.45,-95.13 -94.34,-102.46 -148.9,-235.5 -195.64,-367.42 -57.19,-161.41 -105.65,-325.98 -145.09,-492.74 -48.7,-205.84 -83.77,-418.25 -61.94,-628.59 1.52,-14.67 3.62,-30.07 12.41,-41.79 10.31,-13.73 27.67,-19.59 44.12,-23.97 66.2,-17.65 134.87,-23.32 203.14,-28.72 257.11,-20.33 514.43,-37.92 771.91,-52.76 14.94,-0.86 30.98,-1.43 43.65,6.69 17.06,10.96 22.04,33.54 25.3,53.76 27.94,173.02 41.16,348.45 39.48,523.68 -1.38,143.47 -12.72,286.59 -24.06,429.57 -8.77,110.63 -17.53,221.26 -26.3,331.89 -5.57,70.25 -11.55,142.15 -40.37,206.21 -65.46,145.5 -233.47,161.8 -371.29,179.74" /><path
         id="path28"
         style="fill:#1a1a1a;fill-opacity:1;fill-rule:nonzero;stroke:none"
         d="m 2745.08,5303.54 c -51.99,28.49 -110.42,46.19 -168.87,57.8 -49.54,9.85 -100.44,15.78 -150.56,9.56 -80.97,-10.05 -157.37,-53.05 -207.98,-117.05 -59.26,-74.94 -81.19,-172.08 -98.01,-266.13 -12.5,-69.86 -23.14,-140.4 -24.75,-211.47 -0.77,-34.08 -1.05,-70.09 4.53,-103.83 4.95,-29.91 22.52,-36.29 49.34,-49.91 128.01,-65.07 273.38,-86.53 415.28,-94.32 46.64,-2.56 96.3,-8 139.02,11.52 50.66,23.16 105.5,38.85 157.56,58.98 11.06,4.28 22.49,8.79 30.72,17.33 9.63,9.99 13.53,24.03 16.96,37.48 26.57,104.03 46.2,211.52 36.32,318.43 -9.88,106.92 -52.09,214.12 -132.66,285.1 -20.53,18.08 -43.03,33.43 -66.9,46.51" /><path
         id="path30"
         style="fill:#eacda4;fill-opacity:1;fill-rule:nonzero;stroke:none"
         d="m 2811.9,4875.91 c 7.93,18.76 8.93,40.25 7.7,60.85 -1.61,26.94 -21.71,83.16 -54.4,57.82 -1.71,-1.33 -3.2,-3.17 -4.61,-5.22 -0.72,3.95 -1.45,7.91 -2.09,11.93 -6.82,43.08 -2.13,88.01 -17.35,129.22 -10.2,27.61 -28.74,51.75 -47.45,75.11 -12.27,15.31 -24.99,30.73 -41.55,41.83 -63.59,42.65 -147.28,49.13 -220.05,29.28 -47.27,-12.89 -92.1,-43.89 -120.77,-83.77 -6.54,-9.1 -79.25,-119.85 -54.95,-125.23 -39.82,8.8 -63.27,-13.12 -73.73,-51.86 -5.37,-19.92 -8.74,-41.17 -4.78,-61.14 3.75,-18.88 15.29,-36.19 31.32,-41.55 -10.13,-32.71 -15.29,-66.32 -8.71,-102.87 10.5,-58.33 42.93,-114.59 97.79,-145.91 27.64,-15.77 58.03,-40.1 68.59,-71.37 5.74,-16.99 6.65,-35.18 7.02,-53.1 0.27,-13.34 0.44,-27.35 7.02,-38.95 11.46,-20.19 37.44,-25.83 60.37,-29.45 27.93,-4.4 60.58,-7.39 80.51,12.67 17.73,17.84 17.52,46.42 28.2,69.18 20.65,43.99 80.93,65.58 119.81,90.57 45.24,29.06 81.92,71.21 102.04,121.28 11.53,28.69 15.23,55.17 14.7,80.9 10.88,6.07 20.01,17.1 25.37,29.78" /><path
         id="path32"
         style="fill:#1a1a1a;fill-opacity:1;fill-rule:nonzero;stroke:none"
         d="m 2324.81,5137.83 c -0.16,-2.97 -0.24,-6.2 1.49,-8.6 3.5,-4.87 11.04,-2.91 16.58,-0.64 95.19,39.21 202.72,27.28 304.89,14.61 28.03,-3.47 60.91,-10.42 72.06,-36.37 9,33.28 18.01,66.56 27.01,99.85 2.53,9.32 4.96,19.68 0.56,28.27 -3.13,6.11 -9.16,10.12 -15.01,13.7 -78.84,48.22 -172.3,69.11 -264.71,70.63 -43.3,0.71 -99.08,-6.32 -126.01,-45.68 -23.49,-34.34 -14.76,-96.6 -16.86,-135.77" /><path
         id="path34"
         style="fill:#1a1a1a;fill-opacity:1;fill-rule:nonzero;stroke:none"
         d="m 2765.67,4913.29 c -0.12,-8.4 -0.45,-16.81 -1.02,-25.21 -5.46,-81.25 -36.19,-164.77 -100.54,-214.66 11.03,8.54 48.75,-7.89 60.77,-9.74 28.72,-4.4 58.45,-4.58 87.32,-1.65 4.89,0.49 10.04,1.19 13.94,4.19 4.52,3.48 6.42,9.29 8.08,14.74 21.55,70.75 43.29,142.7 43.91,216.66 0.69,81.6 -24.34,160.98 -49.74,238.53 -9.56,29.18 -20.45,60.14 -44.86,78.76 -24.78,18.9 -59.64,22.21 -89.76,21.72 15.82,0.25 33.7,-48.13 37.16,-59.87 7.3,-24.85 9.86,-51.86 14.3,-77.35 10.69,-61.45 21.34,-123.6 20.44,-186.12" /><path
         id="path36"
         style="fill:#1a1a1a;fill-opacity:1;fill-rule:nonzero;stroke:none"
         d="m 2254.95,5009.67 c -2.27,-8.1 -4.33,-16.25 -6.17,-24.47 -17.77,-79.47 -11.96,-168.28 35.63,-234.35 -8.16,11.33 -48.99,6.24 -61.04,7.88 -28.79,3.91 -57.35,12.16 -84.21,23.14 -4.56,1.86 -9.29,3.99 -12.18,7.97 -3.35,4.61 -3.53,10.73 -3.58,16.43 -0.63,73.95 -1.1,149.11 19.25,220.21 22.45,78.46 68.94,147.5 115.27,214.68 17.42,25.29 36.64,51.89 65.33,62.83 29.11,11.11 63.48,4.42 92.23,-4.59 -15.1,4.73 -45.96,-36.62 -52.59,-46.89 -14.04,-21.76 -24.15,-46.94 -35.62,-70.13 -27.67,-55.91 -55.48,-112.5 -72.32,-172.71" /><path
         id="path38"
         style="fill:#eacda4;fill-opacity:1;fill-rule:nonzero;stroke:none"
         d="m 2574.91,2344.94 -50.25,-570.5 -153.57,-613.58 -158.12,41.96 33.39,610.71 -19.81,381.41 348.36,150" /><path
         id="path40"
         style="fill:#1a1a1a;fill-opacity:1;fill-rule:nonzero;stroke:none"
         d="m 2389.26,1180.49 c -8.31,-25.61 -14.94,-55.35 -3.24,-76.56 12.78,-23.2 41.7,-32.31 49.04,-60.71 3.07,-11.88 0.85,-24.49 -2.54,-36.29 -2.54,-8.821 -5.93,-17.801 -12.55,-24.18 -10.93,-10.539 -27.66,-11.508 -42.84,-11.871 -23.57,-0.559 -47.47,-1.078 -70.37,4.519 -39.44,9.661 -71.39,36.292 -99.32,64.532 -23.68,23.93 -49,43.68 -43.47,82.04 1.66,11.48 6.89,22.06 11.51,32.71 12.09,27.9 20.26,57.5 24.19,87.64 66.29,-11.7 132.58,-23.4 198.87,-35.11 -2.72,-7.84 -6.12,-16.99 -9.28,-26.72" /><path
         id="path42"
         style="fill:#eacda4;fill-opacity:1;fill-rule:nonzero;stroke:none"
         d="m 1550.63,2756.68 -363.54,-442.52 -319.945,-545.63 142.285,-80.75 403.72,459.44 281.19,258.45 -143.71,351.01" /><path
         id="path44"
         style="fill:#1a1a1a;fill-opacity:1;fill-rule:nonzero;stroke:none"
         d="m 867.918,1795.25 c -11.996,-24.09 -28.082,-49.97 -51.285,-56.93 -25.367,-7.61 -52.403,6.14 -77.524,-9 -10.511,-6.33 -17.754,-16.89 -23.589,-27.69 -4.372,-8.09 -8.223,-16.86 -7.969,-26.05 0.422,-15.18 11.683,-27.58 22.277,-38.47 16.438,-16.9 33.137,-34 53.41,-46.05 34.918,-20.72 76.375,-24.07 116.094,-23.46 33.664,0.52 65.574,-3.11 88.477,28.15 6.851,9.36 10.527,20.58 14.681,31.41 10.9,28.39 25.79,55.24 44.09,79.52 -55.525,38.06 -111.053,76.1 -166.58,114.16 -3.547,-7.51 -7.516,-16.42 -12.082,-25.59" /><path
         id="path46"
         style="fill:#6f6357;fill-opacity:1;fill-rule:nonzero;stroke:none"
         d="m 930.598,1888.53 346.802,920.19 474.49,447.63 80.19,-29.1 c 34.11,104.97 89.41,196.82 131.06,300.71 54.33,135.53 94.5,278.8 129.47,420.38 3.31,13.4 7.23,27.98 16.91,35.87 8.78,7.17 20.03,6.94 30.45,6.41 3.3,-0.17 6.6,-0.41 9.9,-0.59 34.38,177.85 62.78,356.85 84.92,536.64 3.75,30.47 -11.6,28.06 12.51,47.96 7.22,5.97 83.25,12.07 83.19,11.18 -14.23,-201.69 -28.45,-403.37 -42.68,-605.06 89.23,-7.23 178.25,-16.88 267,-28.83 23,203.5 46,407 69,610.49 0.11,0.9 73.76,-18.94 79.77,-26.12 20.08,-23.97 5.43,-18.79 3.58,-49.43 -11.2,-184.94 -15.83,-370.26 -14.07,-555.52 5.63,-0.92 11.27,-1.75 16.9,-2.69 11.96,-1.77 41.04,-325.69 45.66,-358.07 15.49,-108.53 25.61,-204.72 61.61,-308.22 12.27,-35.3 16.04,-112.78 12.47,-188.08 l 103.48,-1.07 -205.39,-1033.15 -318.02,-749.1 -254.79,40.12 -71.74,1047.63 -942.66,-639.92 -210.012,149.74" /><path
         id="path48"
         style="fill:#c64b71;fill-opacity:1;fill-rule:nonzero;stroke:none"
         d="m 3607.78,6241.46 h 28.32 c 120.83,0 218.78,97.95 218.78,218.78 0,120.83 -97.95,218.78 -218.78,218.78 h -53.32 c 120.83,0 218.78,97.95 218.78,218.78 0,120.83 -106.14,218.78 -226.97,218.78 h -163.64 -266.38 c -130.43,58.72 -172.67,161.89 -177.6,274.98 -3.78,86.76 14.37,179.37 31.4,262.18 22.22,108.04 33.8,220.99 -0.97,326.41 -34.78,105.42 -124.19,202.37 -245.08,227.93 -37.86,8.01 -79.25,8.54 -114.21,-6.58 -56.46,-24.42 -83.19,-84.07 -84.62,-139.59 -1.42,-55.52 17.11,-109.71 27.1,-164.54 14.3,-78.41 10.81,-160.37 -19.58,-235.12 -58.91,-144.96 -207.51,-243.75 -345.28,-338.12 -77.35,-52.97 -151.19,-111.29 -220.67,-173.84 -28.15,-25.35 -37.32,-45.37 -51.44,-81.75 -4.42,-11.38 -18.17,-66.57 -35.19,-66.57 -5.62,0 -613.79,0 -613.79,0 V 5646.32 c 97.85,0 195.7,0 293.55,0 119.16,0 284.07,35.2 372.5,-60.58 20.03,-21.68 36.53,-47.16 60.61,-64.22 76.83,-54.45 221.79,-27.44 309.62,-27.26 360.01,0.7 720.02,0.78 1080.03,0.78 h 126.66 c 85.29,0 154.43,69.14 154.43,154.43 0,85.29 -69.14,154.43 -154.43,154.43 h 61.54 8.63 c 120.83,0 218.78,97.96 218.78,218.79 0,120.83 -97.95,218.77 -218.78,218.77" /><path
         id="path50"
         style="fill:#9b2958;fill-opacity:1;fill-rule:nonzero;stroke:none"
         d="m 1647.99,5458.73 h -478.95 c -24.71,0 -44.74,20.03 -44.74,44.74 v 1613.47 c 0,24.71 20.03,44.74 44.74,44.74 h 478.95 c 24.71,0 44.74,-20.03 44.74,-44.74 V 5503.47 c 0,-24.71 -20.03,-44.74 -44.74,-44.74" /><path
         id="path52"
         style="fill:#eacdb0;fill-opacity:1;fill-rule:nonzero;stroke:none"
         d="m 5683.3,5021.61 c 10.56,36.59 21.12,73.16 29.88,110.23 -9.04,21.63 -18.14,43.21 -27.26,64.81 7.64,32.73 14.35,65.74 22.59,98.29 10.01,0.16 52.64,-2.41 54.31,-12.32 3.59,-21.22 0.39,-37.03 14.52,-54.16 23.32,25.36 38.78,51.89 50.63,84.9 10.34,28.77 14.83,62.88 52.93,43.31 10.23,-5.25 18.34,-16.32 24.13,-27.51 14.65,-28.29 21.04,-58.71 17.55,-90.8 -2.75,-25.31 -10.71,-48.11 -6.94,-73.88 0.62,-4.24 2.99,-6.71 1.05,-12.5 -4.69,-14.03 -28.75,-35.02 -37.67,-44.38 -8.92,-9.38 -24.86,-29.44 -26.81,-33.64 -18.38,-39.71 -32.32,-68.75 -51.45,-104.16 -39.08,17.36 -78.7,33.68 -117.46,51.81" /><path
         id="path54"
         style="fill:#ce8d95;fill-opacity:1;fill-rule:nonzero;stroke:none"
         d="m 5447.72,4630.37 c 37.98,46.82 59.75,111.63 86.01,167.34 46.7,99.07 95.47,182.1 155.01,271.4 17.07,-3.66 234.29,-93.53 235.07,-91.06 -49.65,-158.76 -99.29,-317.51 -148.94,-476.27 -17.74,-56.74 -36.27,-114.98 -73.69,-161.18 -108.55,-134.03 -307.09,-182.91 -467.81,-224.05 -180.02,-46.07 -368.24,-69.83 -554.11,-58.93 -41.51,2.44 -76.15,14.39 -111.85,28.4 -91.26,35.8 -116.44,127.11 -108.96,222.09 4.6,58.5 32.76,117.48 83.04,147.73 42.58,25.62 94.65,28.05 144.27,30.59 223.57,11.46 446.28,39.44 665.73,83.64 41.96,8.45 72.31,30.8 96.23,60.3" /><path
         id="path56"
         style="fill:#3a3029;fill-opacity:1;fill-rule:nonzero;stroke:none"
         d="m 4789.53,996.742 c -3.38,-77.703 -21.24,-146.094 23.45,-213.203 9.55,-14.328 20.37,-28.469 35.22,-37.207 8.76,-5.152 18.62,-8.23 27.35,-13.422 7.76,-4.609 14.48,-10.789 22.21,-15.418 32.48,-19.441 74.08,-7.961 109.3,5.93 17.43,6.859 37.72,18.789 36.56,37.488 -0.62,10.031 -7.58,18.332 -13.76,26.262 -20.8,26.687 -36.15,57.609 -44.86,90.308 -3.17,11.95 -89.96,166.84 -83.96,169.54 l -111.51,-50.278" /><path
         id="path58"
         style="fill:#4e4e4e;fill-opacity:1;fill-rule:nonzero;stroke:none"
         d="m 5210.91,2971.03 -44.92,-949.93 -188.57,-1068.202 -203.95,-1.718 -70.61,1041.73 -169.36,787.45 677.41,190.67" /><path
         id="path60"
         style="fill:#3a3029;fill-opacity:1;fill-rule:nonzero;stroke:none"
         d="m 3867.31,1138.97 c 6.54,-18.2 15.75,-35.43 26.05,-51.82 30.69,-48.85 71.54,-91.189 119.13,-123.459 8.77,-5.961 18.26,-11.742 28.81,-12.441 26.77,-1.789 44.39,28.75 47.41,55.62 6.29,55.88 -19.67,108.6 -21.84,163.86 -1.91,48.52 3.65,56.79 -34.91,86.33 -10.34,7.92 -103.88,80.05 -99.4,87.41 -39.65,-65.16 -93.2,-99.24 -70.42,-188.7 1.45,-5.68 3.19,-11.29 5.17,-16.8" /><path
         id="path62"
         style="fill:#4e4e4e;fill-opacity:1;fill-rule:nonzero;stroke:none"
         d="m 4086.91,1185.15 c -3.8,-4.44 -7.61,-8.87 -11.42,-13.3 -3.33,-3.88 -6.89,-7.91 -11.19,-9.14 -6.47,-1.86 -12.47,3.1 -17.62,7.87 -52.61,48.65 -103.3,100.59 -151.85,155.6 69.87,165.25 139.74,330.48 209.61,495.72 15.1,35.73 30.45,72.32 35.79,111.68 6.92,51 -3.56,101.43 -13.2,150.27 -25.9,131.27 -46.27,264.77 -60.98,399.76 -9.74,89.43 -16.68,183.36 7.78,270.99 19.7,70.58 58.2,131.13 83.21,199.27 11.15,30.4 20.46,63.8 40.72,85.45 23.49,25.11 37.85,9.81 59.75,3.34 26.2,-7.74 54.73,-17.72 87.39,-19.91 78.75,-5.25 157.31,-12.45 235.65,-21.53 29.92,-3.48 128.31,5.05 148.69,-20.72 20.62,-26.06 -1.93,-146.64 -4.43,-184.63 -18.18,-276.3 -45.11,-552.39 -80.7,-827.35 -2.53,-19.51 -5.13,-39.18 -10.94,-57.76 -6.2,-19.81 -15.86,-37.74 -25.64,-55.25 -39.36,-70.47 -82.32,-137.78 -128.49,-201.28 -59.87,-82.36 -124.97,-158.15 -189.97,-233.8 -67.39,-78.43 -134.77,-156.86 -202.16,-235.28" /><path
         id="path64"
         style="fill:#eacdb0;fill-opacity:1;fill-rule:nonzero;stroke:none"
         d="m 4204.99,5071.18 c -17.05,21.8 -28.55,47.84 -32.86,75.2 -3.51,22.21 -5.75,48.42 10.69,63.78 12.15,11.34 31.22,12.43 46.94,7.01 14.49,-4.98 26.92,-14.94 39.25,-23.53 30.38,36.31 20.37,113.55 43.02,158.61 15.56,30.92 40.6,56.87 65.74,81.89 16.49,16.41 33.53,32.88 54.6,43.91 80.87,42.35 181.15,40.42 265.16,9.12 178.03,-66.33 172.17,-263.01 199.28,-419.03 21.57,-124.19 19.5,-248.15 -116.4,-307.5 -34.81,-15.19 -73.95,-40.02 -90.4,-75.16 -8.94,-19.08 -12.28,-40.12 -14.95,-60.89 -1.98,-15.47 -3.92,-31.73 -13.19,-44.46 -16.12,-22.17 -47.71,-25.79 -75.41,-27.39 -33.74,-1.96 -72.92,-1.72 -94.11,23.83 -27.08,32.66 -17.87,85.63 -39.4,122.27 -17.8,30.29 -45.67,48.23 -68.45,73.16 -23.39,25.62 -44.4,54.38 -67.93,80.3 -30.99,34.16 -61.5,73.02 -57.17,121.29 1.53,17.04 6.13,35.87 -3.4,50.08 -4.66,6.96 -12.03,11.53 -18.82,16.44 -12.18,8.81 -22.99,19.32 -32.19,31.07" /><path
         id="path66"
         style="fill:#3a3029;fill-opacity:1;fill-rule:nonzero;stroke:none"
         d="m 4171.3,5439.81 c 31.75,48.98 75.23,91.09 125.2,122.47 39.35,24.71 81.22,47.29 127,55.22 29.74,5.15 75.35,-2.2 123.61,-9.56 89.82,-13.68 188.82,-27.37 211.85,39.52 13.21,38.35 74.99,49.44 101.05,18.14 7.76,-9.33 12.28,-20.89 20.24,-30.05 7.97,-9.17 21.69,-15.69 32.81,-10.22 14.61,7.19 14.41,28.8 27.45,38.41 16.21,11.95 40.5,-4.03 45.28,-23.05 2.76,-10.94 -2.6,-23.45 -0.05,-33.45 1.96,-7.66 7.79,-10.57 10.34,-17.81 5.76,-16.34 11.89,-30.07 1.39,-46.84 -4.19,-6.66 -10.18,-12.25 -13.58,-19.31 -6.54,-13.58 -2.22,-29.32 -1.56,-44.22 1.45,-32.79 -15.52,-63.18 -36.98,-89.53 11.46,-31.93 19.68,-65.55 17.38,-97.44 -3.83,-53.08 -43.69,-113.45 -64.7,-162.06 -10.37,14.96 -13.12,33.69 -17.78,51.3 -9.84,37.21 -29.46,71.82 -56.34,99.37 -13.23,13.56 -28.1,25.54 -40.35,39.94 -2.13,-0.53 -4.27,-1.06 -6.31,-1.63 -12.86,-3.56 -26.04,-7.16 -39.35,-6.22 -26.36,1.87 -52.68,1.23 -79.32,0.6 -19.11,-0.45 -38.39,-0.91 -57.95,-0.44 -48.43,1.17 -98.07,0.94 -143.62,-15.54 -45.57,-16.46 -86.93,-52.33 -97.09,-99.7 -4.57,-21.3 -4.09,-46.53 -20.95,-60.31 -32.15,-26.28 -54.4,-4.31 -75.86,17.66 -17.77,18.18 -35.01,36.37 -56.89,27.18 -35.3,-14.84 -9.82,-71.9 5.21,-94 13.34,-19.61 31.74,-35.41 44.76,-55.23 13.03,-19.83 19.96,-46.6 7.88,-67.01 -2.85,-4.81 -7.3,-9.37 -12.89,-9.59 -6.62,-0.25 -11.73,5.52 -15.74,10.82 -56.28,74.34 -103.51,158.66 -116.39,251.02 -11.16,79.98 10.3,156.79 52.25,221.56" /><path
         id="path68"
         style="fill:#ce8d95;fill-opacity:1;fill-rule:nonzero;stroke:none"
         d="m 5252.63,3107.99 c -8.7,110.84 -21.4,221.46 -29.16,332.7 -7.74,110.8 -18.22,221.4 -32.43,331.45 -30.3,234.67 -80.45,466.34 -225.83,656.72 -31.78,41.64 -66,86.35 -111.19,114.32 -30.67,19 -78.7,22.67 -103.37,49.65 -17.78,19.45 -17.74,56.76 -12.02,81.36 -88.21,1.51 -184.15,0.16 -275.32,5.01 -71.52,3.77 -57.25,-32.84 -84.7,-80.62 -29.44,-51.27 -103.04,-76.7 -144.54,-115.34 -38.48,-35.83 -66.41,-83.07 -90.42,-131.52 -39.5,-79.76 -69.97,-164.95 -88.25,-253.29 -17.61,-85.08 -23.85,-172.39 -28.79,-259.42 -17.1,-301.33 -19.18,-603.68 -6.23,-905.26 2.27,-52.94 -2.98,-127.47 16.45,-176.91 19.8,-50.38 76.05,-43.28 126.11,-50.8 116.92,-17.59 234.93,-26.51 352.96,-26.8 236.06,-0.59 472.23,33.33 699.82,101.38 12.79,3.82 26.34,8.29 34.84,19.32 9.34,12.11 10.35,29.16 10.8,44.95 2.5,88.11 -1.87,175.68 -8.73,263.1" /><path
         id="path70"
         style="fill:#ddf1fa;fill-opacity:1;fill-rule:nonzero;stroke:none"
         d="m 4898.72,5056.7 c -0.61,3.81 -1.25,7.62 -1.91,11.44 -6.17,35.51 -10.64,73.14 -15.95,110.84 4.31,-16.91 7.26,-34.65 17.17,-48.95 2.4,5.56 5.05,11.26 7.86,17.1 6.85,-15.04 10.45,-31.91 8.84,-48.99 -1.79,-18.84 -8.14,-32.1 -16.01,-41.44" /><path
         id="path72"
         style="fill:#cbc8b8;fill-opacity:1;fill-rule:nonzero;stroke:none"
         d="m 4844.63,5033.39 c -26.43,0.01 -53.16,12.43 -68.89,34.25 -12.28,17.05 -22.81,46.93 -2.58,90.38 11.86,25.48 36.16,44.71 62.46,44.71 0.58,0 1.17,-0.01 1.75,-0.02 8.16,-0.27 16.49,-2.41 24.69,-6.78 6.07,-3.24 12.05,-7.53 17.67,-12.66 0.18,-0.64 0.35,-1.29 0.52,-1.94 0.21,-0.78 0.41,-1.56 0.61,-2.35 5.31,-37.7 9.78,-75.33 15.95,-110.84 0.66,-3.82 1.3,-7.63 1.91,-11.44 -9.5,-11.28 -21.22,-16.85 -29.79,-19.59 -7.85,-2.51 -16.06,-3.72 -24.3,-3.72" /><path
         id="path74"
         style="fill:#374447;fill-opacity:1;fill-rule:nonzero;stroke:none"
         d="m 4898.03,5130.03 c -9.91,14.3 -12.86,32.04 -17.17,48.95 -0.2,0.79 -0.4,1.57 -0.61,2.35 -0.17,0.65 -0.34,1.3 -0.52,1.94 10.48,-9.56 19.75,-22.05 26.16,-36.14 -2.81,-5.84 -5.46,-11.54 -7.86,-17.1" /><path
         id="path76"
         style="fill:#cbc8b8;fill-opacity:1;fill-rule:nonzero;stroke:none"
         d="m 4587.24,5015.02 c -35.08,0 -70.28,14.08 -90.86,39.05 -16.32,19.8 -29.98,54.63 -1.53,105.32 16.57,29.53 49.6,51.67 84.76,51.67 0.91,0 1.81,-0.01 2.72,-0.04 10.91,-0.35 21.99,-2.87 32.83,-7.96 38.87,-18.26 73.91,-64.72 67.9,-112.62 -6.01,-47.87 -41.02,-64.82 -61.99,-70.8 -10.92,-3.12 -22.37,-4.62 -33.83,-4.62" /><path
         id="path78"
         style="fill:#333333;fill-opacity:1;fill-rule:nonzero;stroke:none"
         d="m 4683.06,5090.44 c -6.01,-47.87 -41.02,-64.82 -61.99,-70.8 -44.35,-12.67 -97.38,1.31 -124.69,34.43 -16.32,19.8 -29.98,54.63 -1.53,105.32 16.99,30.29 51.31,52.81 87.48,51.63 10.91,-0.36 21.99,-2.87 32.83,-7.96 38.87,-18.26 73.91,-64.72 67.9,-112.62 z m -64.82,121.06 c -51.59,24.49 -108.24,-3.63 -132.66,-46.83 -24.44,-43.22 -23.54,-85.28 2.64,-116.85 24.6,-29.67 68.01,-45.22 109.21,-42.05 8.89,0.69 17.67,2.24 26.14,4.71 38.84,11.3 63.14,39.83 67.93,78.34 6.49,52.17 -31.26,102.74 -73.26,122.68" /><path
         id="path80"
         style="fill:#333333;fill-opacity:1;fill-rule:nonzero;stroke:none"
         d="m 4914.73,5098.13 c -3.94,-41.57 -30.13,-56 -45.8,-61.02 -33,-10.55 -72.56,1.9 -93.19,30.53 -12.28,17.05 -22.81,46.93 -2.58,90.38 12.12,26.04 37.25,45.56 64.21,44.69 8.16,-0.27 16.49,-2.41 24.69,-6.78 29.49,-15.73 56.61,-56.13 52.67,-97.8 z m -50.47,105.13 c -38.91,20.94 -80.58,-3.53 -98.01,-40.72 -17.36,-37.04 -16.1,-73.05 3.57,-100.22 18.55,-25.61 50.92,-39.34 81.59,-36.99 6.63,0.52 13.19,1.78 19.51,3.84 29.08,9.46 47.09,34.05 50.22,67.52 4.26,45.41 -24.98,89.38 -56.88,106.57" /><path
         id="path82"
         style="fill:#000000;fill-opacity:1;fill-rule:nonzero;stroke:none"
         d="m 4757.17,5117.21 c -7.03,12.34 -20.19,17.59 -32.76,16.21 -11.45,-1.27 -30.81,-10.02 -34.06,-23.21 -0.5,-2.05 1.34,-3.97 3.16,-3.97 9.22,-0.03 15.88,8.67 24.06,11.98 10.58,4.28 22.55,3.23 29.71,-8 4.63,-7.26 14.15,-0.49 9.89,6.99" /><path
         id="path84"
         style="fill:#b0daed;fill-opacity:1;fill-rule:nonzero;stroke:none"
         d="m 7749.87,3385.37 h 36.39 c 155.21,0 281.04,125.83 281.04,281.05 0,155.21 -125.83,281.03 -281.04,281.03 h -68.51 c 155.22,0 281.04,125.83 281.04,281.05 0,155.21 -136.34,281.04 -291.55,281.04 h -210.21 -342.19 c -167.55,75.42 -221.81,207.94 -228.13,353.22 -4.86,111.46 18.45,230.41 40.33,336.79 28.55,138.79 43.42,283.88 -1.25,419.3 -44.67,135.43 -159.53,259.96 -314.82,292.79 -48.63,10.28 -101.8,10.98 -146.71,-8.45 -72.53,-31.36 -106.87,-107.98 -108.7,-179.3 -1.82,-71.32 21.97,-140.94 34.81,-211.37 18.37,-100.73 13.89,-206.01 -25.15,-302.04 -75.68,-186.19 -266.56,-313.11 -443.55,-434.33 -99.35,-68.05 -194.21,-142.97 -283.45,-223.32 -36.16,-32.56 -47.95,-58.28 -66.09,-105 -5.67,-14.63 -23.33,-85.53 -45.2,-85.53 -7.22,0 -788.46,0 -788.46,0 V 2620.87 c 125.7,0 251.39,0 377.09,0 153.07,0 364.9,45.22 478.5,-77.81 25.73,-27.86 46.92,-60.59 77.85,-82.5 98.7,-69.94 284.91,-35.26 397.74,-35.03 462.46,0.9 924.92,1 1387.38,1 h 162.71 c 109.56,0 198.38,88.82 198.38,198.38 0,109.56 -88.82,198.38 -198.38,198.38 h 79.05 11.08 c 155.22,0 281.04,125.82 281.04,281.05 0,155.21 -125.82,281.03 -281.04,281.03" /><path
         id="path86"
         style="fill:#3c5d84;fill-opacity:1;fill-rule:nonzero;stroke:none"
         d="m 5245.1,2379.89 h -640.71 c -24.71,0 -44.74,20.03 -44.74,44.74 v 2098.09 c 0,24.71 20.03,44.74 44.74,44.74 h 640.71 c 24.71,0 44.74,-20.03 44.74,-44.74 V 2424.63 c 0,-24.71 -20.03,-44.74 -44.74,-44.74" /><path
         id="path88"
         style="fill:#eacdb0;fill-opacity:1;fill-rule:nonzero;stroke:none"
         d="m 4823.38,3852.09 99.87,38.02 34.17,51.86 82.94,31.57 c 0,0 24.69,-45.39 18.23,-47.88 -14.97,-5.78 -27.67,-19.96 -31.8,-34.77 30.53,-10.51 89.3,-5.17 115,14.24 24.53,18.52 53.18,-1.18 48.14,-31.74 -2.13,-12.88 -9.32,-24.32 -16.92,-34.94 -20.11,-28.16 -44.03,-53.34 -67.85,-78.43 -7.64,-8.05 -15.99,-16.48 -26.84,-18.72 -6.97,-1.43 -14.16,-0.1 -21.15,1.23 -42.54,8.08 -85.7,21.47 -128.04,15.36 -29.28,-4.23 -59.3,-13.31 -88.61,-19 l -17.14,113.2" /><path
         id="path90"
         style="fill:#ce8d95;fill-opacity:1;fill-rule:nonzero;stroke:none"
         d="m 4374.37,3901.98 c 43.07,-35.39 125.53,-20.77 176.46,-17.57 29.83,1.88 301.01,53.21 308.13,40.32 22.77,-40.02 37.2,-84.99 41.83,-130.82 5.99,-59.23 1.17,-61.36 -49.9,-83.07 -85.39,-36.28 -180.47,-58.71 -270.47,-80.37 -109.9,-26.46 -215.21,-69.72 -325.14,-96.63 -87.54,-21.44 -273.36,-74.44 -316.45,41.64 -13,35.03 -10.85,73.65 -7.44,110.87 10.62,115.8 31.71,230.63 62.94,342.64 14.71,52.81 32.32,106.22 66.11,149.37 77.53,99 278.12,101.86 310.32,-42.18 18.26,-81.64 -66.55,-160.68 -2.98,-228.06 2.07,-2.19 4.28,-4.24 6.59,-6.14" /><path
         id="path92"
         style="fill:#f1ca62;fill-opacity:1;fill-rule:nonzero;stroke:none"
         d="m 9910.53,5975.52 25.62,1.19 c 109.25,5.08 193.75,97.79 188.65,207.08 -5,109.29 -97.7,193.77 -207.04,188.69 l -48.23,-2.24 c 109.29,5.08 193.77,97.8 188.67,207.08 -5.1,109.29 -105.17,193.43 -214.46,188.35 l -148.02,-6.87 -240.94,-11.2 c -120.43,47.63 -162.98,139.17 -172.19,241.25 -7.06,78.32 5.46,162.84 17.39,238.46 15.56,98.66 21.28,201.3 -14.6,295.19 -35.89,93.9 -120.83,177.82 -231.25,195.87 -34.58,5.64 -72.05,4.39 -103.03,-10.75 -50.04,-24.46 -71.71,-79.53 -70.67,-129.82 1.05,-50.27 20.08,-98.51 31.43,-147.68 16.23,-70.33 16.51,-144.6 -7.83,-213.5 -47.2,-133.57 -177.45,-229.18 -298.1,-320.33 -67.73,-51.16 -132.08,-107.01 -192.28,-166.51 -24.4,-24.12 -31.85,-42.6 -43.1,-76.1 -3.52,-10.48 -13.63,-60.97 -29.03,-61.7 -5.08,-0.23 -555.17,-25.79 -555.17,-25.79 l 56.97,-1226.18 c 88.51,4.11 177.01,8.22 265.52,12.34 107.78,5 255.45,43.78 339.47,-39.14 19.02,-18.77 35.02,-41.12 57.51,-55.54 71.78,-46.02 201.76,-15.5 281.2,-11.65 325.6,15.76 651.22,30.96 976.85,46.1 l 114.56,5.32 c 77.15,3.59 136.77,69.02 133.17,146.16 -3.6,77.15 -69,136.78 -146.15,133.2 l 55.67,2.58 7.8,0.37 c 109.28,5.07 193.78,97.79 188.68,207.08 -5.1,109.29 -97.8,193.77 -207.07,188.69" /><path
         id="path94"
         style="fill:#e5b13c;fill-opacity:1;fill-rule:nonzero;stroke:none"
         d="m 8166.58,5184.99 -424.76,-19.74 c -24.69,-1.15 -45.62,17.93 -46.77,42.61 l -67.41,1450.94 c -1.15,24.68 17.93,45.61 42.61,46.77 l 424.76,19.73 c 24.68,1.15 45.62,-17.94 46.77,-42.61 l 67.41,-1450.93 c 1.15,-24.69 -17.93,-45.63 -42.61,-46.77" /><path
         id="path96"
         style="fill:#e9dcd4;fill-opacity:1;fill-rule:nonzero;stroke:none"
         d="m 8329.42,5078.89 c -0.23,11.62 -0.26,23.23 -0.48,34.67 -0.37,18.98 -0.73,37.95 -1.1,56.93 0,53.09 -7.16,89.9 -24.97,140.03 -1.75,4.91 -3.61,10.01 -7.38,13.61 -9.11,8.7 -23.93,4.74 -35.7,0.25 -5.21,13.09 -10.55,26.38 -19.33,37.4 -8.79,11 -21.69,19.6 -35.78,19.8 -23.36,0.33 -41.51,-22.46 -45.57,-45.48 -2.79,-15.76 -1.46,-33.74 -12.17,-45.64 -3.21,-3.59 -7.39,-6.4 -9.72,-10.61 -2.43,-4.39 -2.49,-9.64 -2.5,-14.66 -0.02,-20.39 -0.04,-40.78 -0.06,-61.16 0,-6.49 0.05,-13.25 2.94,-19.06 3.02,-6.07 8.71,-10.28 13.85,-14.72 52.92,-45.65 66.15,-157.62 77.44,-223.18 0.83,-4.8 1.76,-9.99 5.5,-13.33 3.58,-3.18 8.85,-3.91 13.79,-4.47 35.7,-4.09 101.97,-18.22 102.49,32.55 0.21,20.23 -14.11,44.02 -17.33,64.45 -2.71,17.23 -3.55,34.94 -3.92,52.62" /><path
         id="path98"
         style="fill:#b3b8e2;fill-opacity:1;fill-rule:nonzero;stroke:none"
         d="m 8961.34,3915.61 c -13.52,-29.59 -28.05,-56.5 -42.99,-79.05 -20.41,-30.82 -56,-54.46 -92.67,-49.86 -42.83,5.36 -71.75,44.78 -97.03,79.77 -56.73,78.53 -121.26,151.41 -192.32,217.25 -180.69,167.39 -304.74,274.34 -347.96,526.72 -10.87,63.49 -4.36,133.31 -5.88,198.25 -1.6,68.04 4.78,135.4 -1.81,203.74 -0.53,5.56 -1.05,11.51 1.61,16.44 3.49,6.5 11.3,9.16 18.42,11.09 37.35,10.13 113.35,31.52 150.87,15.84 42.74,-17.87 40.55,-64.97 52.17,-112.01 6.51,-26.43 61.65,-294.06 72.57,-294.06 37.59,-152.29 126.88,-241.95 282.97,-269.97 72.58,-13.03 144.47,-15.45 217.97,-15.42 63.61,0.03 60.28,-49.42 63.11,-106.51 4.8,-96.63 -30.7,-236.49 -79.03,-342.22" /><path
         id="path100"
         style="fill:#e9dcd4;fill-opacity:1;fill-rule:nonzero;stroke:none"
         d="m 9972.38,5317.31 0.64,-0.16 c 12.78,-3.1 24.89,8.31 29.68,20.56 10,25.63 13.3,42.56 -0.4,66.02 -12.33,21.02 -30.2,40.73 -32.23,66.12 -3.03,38.04 35.13,49.21 64.13,47.21 10.2,-0.7 20.4,-1.41 30.6,-2.12 7.5,-0.52 15.1,-1.05 22.3,-3.39 16,-5.23 27.8,-18.76 37.8,-32.3 19.3,-25.93 35.5,-54.15 48,-83.9 1.6,-3.63 3.1,-7.68 1.9,-11.42 -1.2,-3.4 -4.3,-5.67 -7,-7.94 -49.4,-40.53 -36.2,-126.73 -32.6,-181.94 0.3,-4.87 0.6,-10.13 -2.3,-14.25 -2.7,-3.93 -7.6,-5.86 -12.3,-7.56 -33.9,-12.38 -85.9,-35.82 -115.5,-2.41 -4.1,4.69 -5.56,10.91 -6.9,16.89 -3.84,16.64 -4.68,40.11 -13,55.07 -9.74,17.48 -30.77,24.77 -41.19,41.36 -7.09,11.28 -39,45.45 -22.84,58.29 6.19,4.92 15.51,4.47 22.3,0.4 10.96,-6.58 16.71,-21.13 28.91,-24.53" /><path
         id="path102"
         style="fill:#b3b8e2;fill-opacity:1;fill-rule:nonzero;stroke:none"
         d="m 9930.11,4159.16 c 42.85,36.46 86.69,71.82 131.29,106.02 47.2,36.09 95.4,83.09 109.9,143.08 17.9,74.07 7.2,163.95 9.4,239.96 5.1,176.22 11,352.43 15.3,528.68 0.1,5.13 -188.8,2.59 -207.15,-1.53 -66.68,-15.02 -69.17,-47.93 -82.51,-113.2 -33.05,-161.78 -57.3,-325.49 -73.6,-489.79 -1.71,-17.35 -3.57,-35.4 -12.65,-50.28 -8.98,-14.73 -23.95,-24.58 -38.43,-33.94 -101.39,-65.55 -218.67,-174.01 -346.91,-168.53 -12.05,0.52 -26.47,0.86 -33.37,-9.04 -3.25,-4.68 -3.92,-10.68 -3.94,-16.38 -0.08,-27.93 12.8,-54.05 25.38,-78.99 55.29,-109.57 110.57,-219.14 165.86,-328.71 2.89,-5.74 5.99,-11.71 11.23,-15.43 15.62,-11.06 36.01,4.18 49,18.24 88.24,95.45 182.2,185.6 281.2,269.84" /><path
         id="path104"
         style="fill:#ce732e;fill-opacity:1;fill-rule:nonzero;stroke:none"
         d="m 8906.74,5013.7 c -5.12,-25.2 -8.12,-52.47 -10.63,-77.96 -2.83,-28.84 4.35,-58.29 -4.98,-86.45 -5.95,-17.98 -18,-33.19 -27.28,-49.68 -29.79,-52.9 -29.6,-121.45 0.5,-174.17 10.33,-18.11 23.87,-34.4 32.47,-53.38 14.33,-31.65 13.39,-66.82 15.51,-100.74 2.26,-35.96 16.35,-63.5 22.92,-97.56 9.32,-48.32 -0.6,-98.36 -15.55,-145.25 -3.48,-10.89 -7.28,-22.21 -5.6,-33.53 2.53,-17.02 18.61,-24.11 33.9,-26.43 187.32,-28.42 376.75,-24.18 565.37,-19.9 -14.81,-0.33 0.53,135.71 2.75,146.51 11.07,53.96 28.02,106.71 50.5,157.01 11.61,25.95 24.9,52.08 26.84,80.45 2.75,40.26 -17.49,82.84 -1.02,119.68 14.66,32.84 48.06,55.63 53.75,93.24 6.34,41.89 -20.11,87.43 -40.81,121.65 -17.06,28.2 -35.85,56.54 -46.04,88.16 -8.7,26.95 -6.12,51.18 -18.05,77.25 -24.38,53.3 -64.54,100.53 -110.2,136.82 -17.12,13.63 -35.42,26.09 -55.71,34.28 -24.17,9.76 -50.44,13.16 -76.48,14.43 -59.06,2.89 -117.41,-4.67 -175.69,-8.38 -61.2,-3.9 -122.48,-38.09 -162.05,-84.01 -27.42,-31.81 -46.06,-70.9 -54.42,-112.04" /><path
         id="path106"
         style="fill:#e9dcd4;fill-opacity:1;fill-rule:nonzero;stroke:none"
         d="m 9597.71,4816.95 c -10.96,19.65 -33.34,33.22 -55.73,30.99 -11.91,-1.18 -21.41,-5.13 -28.98,-11.01 -3.86,37.48 -11.7,74.65 -23.69,110.66 -8.08,24.25 -18,48.36 -34.15,68.15 -14.11,17.29 -32.46,30.66 -51.79,41.78 -65.72,37.85 -145.27,51.03 -219.69,36.44 -104.58,-20.53 -167.24,-77.4 -198.01,-161.15 -10.58,-28.8 -17.39,-60.78 -20.84,-95.55 -0.14,-1.43 -0.27,-2.89 -0.4,-4.34 -6.17,2.95 -13.29,4.83 -21.5,5.39 -22.45,1.51 -44.38,-12.77 -54.7,-32.76 -10.33,-19.99 -9.85,-44.52 -1.55,-65.43 8.31,-20.92 23.83,-38.4 41.82,-51.9 10.95,-8.21 23.71,-15.17 37.1,-16.5 10.55,-80.97 39.54,-158.94 103.86,-205.9 44.41,-32.4 44.42,-45.23 44.59,-103.05 0.09,-29.73 5.95,-63.18 30.38,-80.11 12.88,-8.93 28.96,-11.7 44.54,-13.42 21.28,-2.35 42.73,-3.12 64.13,-2.31 16.45,0.61 33.97,2.58 46.74,12.97 19.74,16.04 20.86,45.26 20.09,70.68 -2.12,69.66 -1.43,61.12 50.11,96.02 33.52,22.71 59.02,53.71 79.37,88.45 27.09,46.26 45.76,96.31 56.26,147.87 3.1,-1.55 6.59,-2.33 10.07,-2.58 16.67,-1.22 32.45,7.6 45.49,18.06 17.55,14.07 32.5,32.04 40.12,53.21 7.63,21.16 7.32,45.69 -3.64,65.34" /><path
         id="path108"
         style="fill:#6c4e28;fill-opacity:1;fill-rule:nonzero;stroke:none"
         d="m 9074.2,4688.32 c -5.53,0.2 -5.86,-8.38 -0.32,-8.58 5.52,-0.21 5.85,8.37 0.32,8.58" /><path
         id="path110"
         style="fill:#6c4e28;fill-opacity:1;fill-rule:nonzero;stroke:none"
         d="m 9038.14,4643.82 c -5.52,0.2 -5.85,-8.38 -0.32,-8.58 5.53,-0.21 5.86,8.37 0.32,8.58" /><path
         id="path112"
         style="fill:#6c4e28;fill-opacity:1;fill-rule:nonzero;stroke:none"
         d="m 9151.61,4651.04 -0.05,-1.44 c -0.21,-5.52 8.38,-5.85 8.58,-0.32 l 0.05,1.43 c 0.21,5.53 -8.37,5.86 -8.58,0.33" /><path
         id="path114"
         style="fill:#6c4e28;fill-opacity:1;fill-rule:nonzero;stroke:none"
         d="m 9237.05,4675.06 c -5.53,0.2 -5.86,-8.38 -0.33,-8.59 5.53,-0.2 5.86,8.38 0.33,8.59" /><path
         id="path116"
         style="fill:#6c4e28;fill-opacity:1;fill-rule:nonzero;stroke:none"
         d="m 9270.9,4660.9 c -5.52,0.21 -5.85,-8.38 -0.32,-8.59 5.53,-0.2 5.85,8.38 0.32,8.59" /><path
         id="path118"
         style="fill:#6c4e28;fill-opacity:1;fill-rule:nonzero;stroke:none"
         d="m 9396.61,4650.46 -0.06,-1.43 c -0.21,-5.53 8.38,-5.86 8.59,-0.32 l 0.05,1.43 c 0.21,5.52 -8.38,5.86 -8.58,0.32" /><path
         id="path120"
         style="fill:#6c4e28;fill-opacity:1;fill-rule:nonzero;stroke:none"
         d="m 9440.76,4681.76 c -5.53,0.21 -5.85,-8.37 -0.32,-8.59 5.52,-0.2 5.85,8.38 0.32,8.59" /><path
         id="path122"
         style="fill:#6c4e28;fill-opacity:1;fill-rule:nonzero;stroke:none"
         d="m 9376.48,4687.03 c -5.52,0.22 -5.85,-8.37 -0.32,-8.58 5.52,-0.21 5.85,8.38 0.32,8.58" /><path
         id="path124"
         style="fill:#6c4e28;fill-opacity:1;fill-rule:nonzero;stroke:none"
         d="m 9352.67,4663.57 c -5.52,0.2 -5.85,-8.38 -0.32,-8.59 5.53,-0.2 5.86,8.38 0.32,8.59" /><path
         id="path126"
         style="fill:#6c4e28;fill-opacity:1;fill-rule:nonzero;stroke:none"
         d="m 9410.61,4680.03 -1.44,0.05 c -5.52,0.21 -5.85,-8.38 -0.32,-8.59 l 1.43,-0.05 c 5.53,-0.2 5.86,8.39 0.33,8.59" /><path
         id="path128"
         style="fill:#6c4e28;fill-opacity:1;fill-rule:nonzero;stroke:none"
         d="m 9081.5,4653.66 -1.43,0.05 c -3.38,0.13 -4.79,-3.03 -4.13,-5.55 -0.67,-1.37 -0.65,-3.06 0.71,-4.53 l 1.38,-1.47 c 3.51,-3.79 9.11,1.01 6.82,4.97 1.38,2.5 0.37,6.4 -3.35,6.53" /><path
         id="path130"
         style="fill:#6c4e28;fill-opacity:1;fill-rule:nonzero;stroke:none"
         d="m 9043.61,4675.14 c -5.52,0.2 -5.85,-8.38 -0.32,-8.59 5.53,-0.2 5.86,8.38 0.32,8.59" /><path
         id="path132"
         style="fill:#6c4e28;fill-opacity:1;fill-rule:nonzero;stroke:none"
         d="m 9171.81,4693.26 -0.05,-1.42 c -0.2,-5.53 8.38,-5.86 8.59,-0.33 l 0.05,1.43 c 0.21,5.53 -8.37,5.86 -8.59,0.32" /><path
         id="path134"
         style="fill:#e7d4d2;fill-opacity:1;fill-rule:nonzero;stroke:none"
         d="m 9022.25,4603.89 c -7.81,0 -15.18,1.27 -21.4,4.68 -15.34,8.42 -19.69,31.38 -13.73,46.71 5.7,14.66 18.86,25.48 33.39,31.52 14.52,6.02 30.43,7.8 46.13,8.8 10.81,0.68 21.63,1.02 32.46,1.02 10.11,0 20.23,-0.3 30.33,-0.9 13.01,-0.77 26.42,-2.17 37.83,-8.47 11.42,-6.28 20.41,-18.68 18.9,-31.63 -0.13,-1.14 -0.33,-2.24 -0.6,-3.32 -3.75,-15.01 -20.3,-24.16 -35.51,-29.01 -26.21,-8.36 -52.12,-4.74 -77.76,-10.32 -13.84,-3.02 -32.98,-9.08 -50.04,-9.08 m 15.7,39.93 c -5.34,0 -5.59,-8.38 -0.13,-8.58 0.07,-0.01 0.13,-0.01 0.19,-0.01 5.35,0 5.6,8.39 0.13,8.59 -0.06,0 -0.13,0 -0.19,0 m 41.92,9.9 c -3.24,0 -4.58,-3.08 -3.93,-5.56 -0.67,-1.37 -0.65,-3.06 0.71,-4.53 l 1.38,-1.47 c 0.9,-0.97 1.94,-1.38 2.94,-1.38 2.92,0 5.58,3.41 3.88,6.35 1.38,2.5 0.37,6.4 -3.35,6.53 l -1.43,0.05 c -0.07,0 -0.13,0.01 -0.2,0.01 m 76,1.31 c -2.09,0 -4.16,-1.31 -4.26,-3.99 l -0.05,-1.44 c -0.11,-2.84 2.11,-4.31 4.33,-4.31 2.08,0 4.15,1.31 4.25,3.99 l 0.05,1.43 c 0.11,2.85 -2.11,4.32 -4.32,4.32 m -112.45,20.11 c -5.34,0 -5.6,-8.38 -0.13,-8.59 0.07,0 0.13,0 0.2,0 5.33,0 5.6,8.38 0.12,8.59 -0.06,0 -0.13,0 -0.19,0 m 30.59,13.18 c -5.34,0 -5.6,-8.38 -0.13,-8.58 0.06,-0.01 0.13,-0.01 0.19,-0.01 5.34,0 5.6,8.39 0.13,8.59 -0.06,0 -0.13,0 -0.19,0" /><path
         id="path136"
         style="fill:#775538;fill-opacity:1;fill-rule:nonzero;stroke:none"
         d="m 9074.07,4679.73 c -0.06,0 -0.13,0 -0.19,0.01 -5.47,0.2 -5.21,8.58 0.13,8.58 0.06,0 0.13,0 0.19,0 5.47,-0.2 5.21,-8.59 -0.13,-8.59" /><path
         id="path138"
         style="fill:#775538;fill-opacity:1;fill-rule:nonzero;stroke:none"
         d="m 9038.01,4635.23 c -0.06,0 -0.12,0 -0.19,0.01 -5.46,0.2 -5.21,8.58 0.13,8.58 0.06,0 0.13,0 0.19,0 5.47,-0.2 5.22,-8.59 -0.13,-8.59" /><path
         id="path140"
         style="fill:#775538;fill-opacity:1;fill-rule:nonzero;stroke:none"
         d="m 9155.89,4645.29 c -2.22,0 -4.44,1.47 -4.33,4.31 l 0.05,1.44 c 0.1,2.68 2.17,3.99 4.26,3.99 2.21,0 4.43,-1.47 4.32,-4.32 l -0.05,-1.43 c -0.1,-2.68 -2.17,-3.99 -4.25,-3.99" /><path
         id="path142"
         style="fill:#775538;fill-opacity:1;fill-rule:nonzero;stroke:none"
         d="m 9080.97,4640.78 c -1,0 -2.04,0.41 -2.94,1.38 l -1.38,1.47 c -1.36,1.47 -1.38,3.16 -0.71,4.53 -0.65,2.48 0.69,5.56 3.93,5.56 0.07,0 0.13,-0.01 0.2,-0.01 l 1.43,-0.05 c 3.72,-0.13 4.73,-4.03 3.35,-6.53 1.7,-2.94 -0.96,-6.35 -3.88,-6.35" /><path
         id="path144"
         style="fill:#775538;fill-opacity:1;fill-rule:nonzero;stroke:none"
         d="m 9043.49,4666.55 c -0.07,0 -0.13,0 -0.2,0 -5.47,0.21 -5.21,8.59 0.13,8.59 0.06,0 0.13,0 0.19,0 5.48,-0.21 5.21,-8.59 -0.12,-8.59" /><path
         id="path146"
         style="fill:#e7d4d2;fill-opacity:1;fill-rule:nonzero;stroke:none"
         d="m 9425.65,4616.6 c -27.99,0 -55.73,7.81 -83.33,12.12 -12.08,1.9 -24.26,3.81 -35.67,8.22 -11.39,4.39 -22.1,11.54 -28.61,21.89 -2.4,3.81 -4.2,8.02 -5.22,12.41 -5.25,22.59 26.39,36.53 45.64,39.26 4.37,0.62 8.76,0.89 13.15,0.89 11.28,0 22.6,-1.77 33.72,-3.9 20.56,-3.94 40.89,-9.15 60.83,-15.58 12.4,-4 25.04,-8.7 34.52,-17.65 9.48,-8.96 15.08,-23.21 10.39,-35.36 -0.42,-1.07 -0.89,-2.08 -1.42,-3.06 -7.38,-13.6 -25.69,-18.32 -41.63,-19.22 -0.79,-0.01 -1.58,-0.02 -2.37,-0.02 m -24.79,37.85 c -2.08,0 -4.15,-1.3 -4.25,-3.99 l -0.06,-1.43 c -0.11,-2.84 2.12,-4.31 4.33,-4.31 2.08,0 4.15,1.3 4.26,3.99 l 0.05,1.43 c 0.11,2.84 -2.12,4.31 -4.33,4.31 m -48.38,9.12 c -5.34,0 -5.59,-8.39 -0.13,-8.59 0.07,0 0.13,0 0.2,0 5.34,0 5.59,8.38 0.12,8.59 -0.06,0 -0.13,0 -0.19,0 m 56.49,16.51 c -5.33,0 -5.58,-8.38 -0.12,-8.59 l 1.43,-0.05 c 0.07,0 0.13,0 0.2,0 5.34,0 5.6,8.39 0.13,8.59 l -1.44,0.05 c -0.06,0 -0.13,0 -0.2,0 m 31.59,1.68 c -5.33,0 -5.58,-8.37 -0.12,-8.59 0.06,0 0.13,0 0.19,0 5.34,0 5.6,8.39 0.13,8.59 -0.07,0 -0.13,0 -0.2,0 m -64.28,5.27 c -5.33,0 -5.59,-8.37 -0.12,-8.58 0.06,-0.01 0.13,-0.01 0.19,-0.01 5.34,0 5.6,8.39 0.13,8.59 -0.07,0 -0.14,0 -0.2,0" /><path
         id="path148"
         style="fill:#775538;fill-opacity:1;fill-rule:nonzero;stroke:none"
         d="m 9400.88,4644.72 c -2.21,0 -4.44,1.47 -4.33,4.31 l 0.06,1.43 c 0.1,2.69 2.17,3.99 4.25,3.99 2.21,0 4.44,-1.47 4.33,-4.31 l -0.05,-1.43 c -0.11,-2.69 -2.18,-3.99 -4.26,-3.99" /><path
         id="path150"
         style="fill:#775538;fill-opacity:1;fill-rule:nonzero;stroke:none"
         d="m 9440.63,4673.17 c -0.06,0 -0.13,0 -0.19,0 -5.46,0.22 -5.21,8.59 0.12,8.59 0.07,0 0.13,0 0.2,0 5.47,-0.2 5.21,-8.59 -0.13,-8.59" /><path
         id="path152"
         style="fill:#775538;fill-opacity:1;fill-rule:nonzero;stroke:none"
         d="m 9376.35,4678.44 c -0.06,0 -0.13,0 -0.19,0.01 -5.47,0.21 -5.21,8.58 0.12,8.58 0.06,0 0.13,0 0.2,0 5.47,-0.2 5.21,-8.59 -0.13,-8.59" /><path
         id="path154"
         style="fill:#775538;fill-opacity:1;fill-rule:nonzero;stroke:none"
         d="m 9352.55,4654.98 c -0.07,0 -0.13,0 -0.2,0 -5.46,0.2 -5.21,8.59 0.13,8.59 0.06,0 0.13,0 0.19,0 5.47,-0.21 5.22,-8.59 -0.12,-8.59" /><path
         id="path156"
         style="fill:#775538;fill-opacity:1;fill-rule:nonzero;stroke:none"
         d="m 9410.48,4671.44 c -0.07,0 -0.13,0 -0.2,0 l -1.43,0.05 c -5.46,0.21 -5.21,8.59 0.12,8.59 0.07,0 0.14,0 0.2,0 l 1.44,-0.05 c 5.47,-0.2 5.21,-8.59 -0.13,-8.59" /><path
         id="path158"
         style="fill:#d17c42;fill-opacity:1;fill-rule:nonzero;stroke:none"
         d="m 9400.53,4951.27 c 3.84,-14.47 7.72,-29.62 16.74,-44.49 20.44,-33.66 52.39,-59.87 68.9,-95.62 21.36,-46.25 13.38,-100.3 1.85,-149.92 -10.1,-43.51 -22.6,-86.46 -37.45,-128.58 -5.67,-16.1 -13.95,-30.56 -10.6,-47.87 2.73,-14.16 14.63,-24.33 18.58,-38.08 13.85,-48.2 -46.05,-101.98 -88.21,-115.72 40.3,-54.14 97.69,-95.38 161.86,-116.31 27.27,-8.89 67.01,95.18 73.72,111.07 22.22,52.68 26.71,110.17 7.6,164.85 -11.55,33.03 -30.67,62.91 -43.89,95.31 -19.59,48.03 -25.77,101.45 -17.65,152.68 4.92,31.08 14.99,61.61 14.7,93.07 -0.21,21.88 -5.43,43.38 -10.9,64.57 -16.34,63.42 -35.65,127.54 -73.56,180.95 -35.64,50.21 -98.95,101.2 -163.78,91.39 -36.26,-5.48 -71.23,-21.36 -96.93,-47.84 -16.29,-16.78 -62.8,-64.69 -16.05,-77.43 25.19,-6.86 51.52,-7.99 77.5,-10.57 25.98,-2.57 52.4,-6.84 75.37,-19.25 29.55,-15.99 35.83,-38.18 42.2,-62.21" /><path
         id="path160"
         style="fill:#d17c42;fill-opacity:1;fill-rule:nonzero;stroke:none"
         d="m 9123.61,5011.25 c -36.96,-8.85 -98.66,-22.48 -103.88,-66.37 -5.31,-44.64 18.34,-86.92 3.72,-133.69 -7.37,-23.57 -24.34,-42.66 -38.04,-63.23 -22.76,-34.19 -37.08,-77.75 -23.37,-116.49 14.04,-39.66 54.45,-66.49 65.07,-107.2 11.44,-43.84 -15.12,-89.24 -11.41,-134.39 3.14,-38.29 -1.21,-60.73 -41.84,-74.56 -20.62,-7.01 -42.65,-13.86 -59.07,-29.05 -4.57,-4.22 -35.74,-56.29 -21.51,-59.14 -41,8.22 -88.43,21.59 -103.46,60.61 -8.14,21.15 -4.08,45.52 6.29,65.66 10.36,20.14 26.46,36.71 43.11,52.08 9.57,8.84 19.61,17.65 25.77,29.14 12.34,23.03 6.46,51.54 -3.45,75.7 -9.92,24.17 -23.7,47.37 -26.89,73.29 -9.66,78.47 66.31,118.44 95.29,181.17 42.78,92.59 -37.54,205.96 -0.54,301.02 11.53,29.61 33.42,53.89 55.93,76.32 34.6,34.46 75.04,67.81 123.57,73.27 62.26,6.99 112.41,-46.04 139.67,-95.1 7.19,-12.96 13.67,-26.5 19.12,-40.28 9.63,-24.33 13.31,-24.27 -8.16,-35.71 -35.85,-19.1 -92.29,-22.44 -131.97,-32.1 -1.28,-0.32 -2.59,-0.63 -3.95,-0.95" /><path
         id="path162"
         style="fill:#116b84;fill-opacity:1;fill-rule:nonzero;stroke:none"
         d="m 8991.12,2626.15 253.49,-834.65 270.58,-496.71 199.58,27.52 -89.52,633.88 121.66,674.31 -755.79,-4.35" /><path
         id="path164"
         style="fill:#363636;fill-opacity:1;fill-rule:nonzero;stroke:none"
         d="m 9502.71,1272.85 c 6.42,-14.27 13.54,-28.16 21.35,-41.62 18.34,-31.61 9.3,-50.53 5.06,-85.26 -3.73,-30.46 -0.2,-63.33 16.82,-88.12 20.04,-29.18 55.96,-42.4 89.89,-41.08 60.2,2.33 77.77,56.04 97.97,108.72 9.43,24.61 18.87,49.21 28.3,73.82 6.98,18.21 13.12,41.62 0,55.48 -3.92,4.15 -9.21,6.81 -12.48,11.58 -2.9,4.22 -3.84,9.58 -4.71,14.72 -5.22,30.93 -8.92,62.91 -16.38,93.2 -41.85,-3.39 -80.33,0.13 -123.28,-6.01 -37.62,-5.38 -75.01,-12.66 -111.98,-21.79 -4.73,-1.17 -10.12,-2.95 -11.95,-7.73 -1.32,-3.46 -0.29,-7.37 0.79,-10.93 5.71,-18.79 12.6,-37.17 20.6,-54.98" /><path
         id="path166"
         style="fill:#116b84;fill-opacity:1;fill-rule:nonzero;stroke:none"
         d="m 8690.96,2656.11 75.34,-939.8 166.6,-789.412 163.98,29.004 34.34,634.578 167.9,1021.35 -608.16,44.28" /><path
         id="path168"
         style="fill:#363636;fill-opacity:1;fill-rule:nonzero;stroke:none"
         d="m 8916.42,949.91 c 5.93,-28.43 9.78,-61.148 -4.1,-82.808 -15.16,-23.672 -45.29,-30.52 -55.45,-60.36 -4.25,-12.492 -3.22,-26.301 -0.93,-39.363 1.72,-9.77 4.29,-19.777 10.37,-27.328 10.04,-12.481 26.86,-15.25 42.19,-17.192 23.79,-3.019 47.91,-6.019 71.61,-2.339 40.82,6.351 75.7,31.769 106.68,59.32 26.25,23.351 53.76,42.039 51.86,83.93 -0.57,12.539 -4.85,24.48 -8.48,36.421 -9.54,31.289 -14.96,64.02 -16.03,96.899 -68.18,-5.809 -136.36,-11.621 -204.54,-17.43 2,-8.73 4.56,-18.93 6.82,-29.75" /><path
         id="path170"
         style="fill:#b3b8e2;fill-opacity:1;fill-rule:nonzero;stroke:none"
         d="m 8945.33,4311.27 c -1.55,-1.98 -3.1,-4.02 -4.66,-6.13 -35.19,-47.43 -61.15,-100.35 -84.06,-154.59 -199.29,-471.86 -245.74,-993.62 -253.22,-1505.77 -1.5,-102.94 26.71,-121.16 121.29,-121.2 108.97,-0.04 217.97,-1.4 326.94,-2.11 127,-0.82 254,-1.64 380.99,-2.46 59.9,-0.38 291.71,-36.94 326.45,18.44 11.09,17.67 11.04,39.86 10.62,60.71 -2.44,120.72 -5.66,241.42 -9.65,362.09 -14.14,427.82 -40.95,867.71 -222.4,1255.39 -31.72,67.79 -117.63,234.1 -215.91,174.04 -13.66,-8.35 -24.84,-20.11 -36.78,-30.79 -31.23,-27.95 -72.62,-49.88 -113.79,-42 -33.69,6.45 -60.74,31.63 -81.52,58.92 -3.58,4.7 -7.44,9.8 -13.11,11.45 -4.93,1.44 -10.2,-0.04 -15.1,-1.58 -53.78,-16.86 -83.59,-32.68 -116.09,-74.41" /></g></g></svg>